<svg version="1.1" viewBox="0.0 0.0 1571.0 972.0" fill="none" stroke="none" stroke-linecap="square" stroke-miterlimit="10" width="1571" height="972" xmlns:xlink="http://www.w3.org/1999/xlink" xmlns="http://www.w3.org/2000/svg"><path fill="#ffffff" d="M0 0L1571.0 0L1571.0 972.0L0 972.0L0 0Z" fill-rule="nonzero"/><path stroke="#333333" stroke-width="1.0" stroke-linecap="butt" d="M136.5 850.5L1522.5 850.5" fill-rule="nonzero"/><path stroke="#cccccc" stroke-width="1.0" stroke-linecap="butt" d="M136.5 704.5L1522.5 704.5" fill-rule="nonzero"/><path stroke="#cccccc" stroke-width="1.0" stroke-linecap="butt" d="M136.5 557.5L1522.5 557.5" fill-rule="nonzero"/><path stroke="#cccccc" stroke-width="1.0" stroke-linecap="butt" d="M136.5 411.5L1522.5 411.5" fill-rule="nonzero"/><path stroke="#cccccc" stroke-width="1.0" stroke-linecap="butt" d="M136.5 264.5L1522.5 264.5" fill-rule="nonzero"/><path stroke="#cccccc" stroke-width="1.0" stroke-linecap="butt" d="M136.5 118.5L1522.5 118.5" fill-rule="nonzero"/><path stroke="#e6e6e6" stroke-width="1.0" stroke-linecap="butt" d="M136.5 801.5L1522.5 801.5" fill-rule="nonzero"/><path stroke="#e6e6e6" stroke-width="1.0" stroke-linecap="butt" d="M136.5 752.5L1522.5 752.5" fill-rule="nonzero"/><path stroke="#e6e6e6" stroke-width="1.0" stroke-linecap="butt" d="M136.5 655.5L1522.5 655.5" fill-rule="nonzero"/><path stroke="#e6e6e6" stroke-width="1.0" stroke-linecap="butt" d="M136.5 606.5L1522.5 606.5" fill-rule="nonzero"/><path stroke="#e6e6e6" stroke-width="1.0" stroke-linecap="butt" d="M136.5 508.5L1522.5 508.5" fill-rule="nonzero"/><path stroke="#e6e6e6" stroke-width="1.0" stroke-linecap="butt" d="M136.5 460.5L1522.5 460.5" fill-rule="nonzero"/><path stroke="#e6e6e6" stroke-width="1.0" stroke-linecap="butt" d="M136.5 362.5L1522.5 362.5" fill-rule="nonzero"/><path stroke="#e6e6e6" stroke-width="1.0" stroke-linecap="butt" d="M136.5 313.5L1522.5 313.5" fill-rule="nonzero"/><path stroke="#e6e6e6" stroke-width="1.0" stroke-linecap="butt" d="M136.5 216.5L1522.5 216.5" fill-rule="nonzero"/><path stroke="#e6e6e6" stroke-width="1.0" stroke-linecap="butt" d="M136.5 167.5L1522.5 167.5" fill-rule="nonzero"/><path stroke="#000000" stroke-width="1.0" stroke-linecap="butt" d="M136.5 850.5L136.5 118.5" fill-rule="nonzero"/><clipPath id="id_0"><path d="M136.6 118.5L1522.4 118.5L1522.4 850.4L136.6 850.4L136.6 118.5Z" clip-rule="nonzero"/></clipPath><path stroke="#000000" stroke-width="2.0" stroke-linecap="butt" stroke-opacity="0.0" clip-path="url(#id_0)" d="M326.0 850.0L203.0 850.0L203.0 785.0C203.0 783.89545 203.89543 783.0 205.0 783.0L324.0 783.0C325.10458 783.0 326.0 783.89545 326.0 785.0Z" fill-rule="nonzero"/><path fill="#4285f4" clip-path="url(#id_0)" d="M326.0 850.0L203.0 850.0L203.0 785.0C203.0 783.89545 203.89543 783.0 205.0 783.0L324.0 783.0C325.10458 783.0 326.0 783.89545 326.0 785.0Z" fill-rule="nonzero"/><path stroke="#000000" stroke-width="2.0" stroke-linecap="butt" stroke-opacity="0.0" clip-path="url(#id_0)" d="M514.0 850.0L391.0 850.0L391.0 721.0C391.0 719.89545 391.89542 719.0 393.0 719.0L512.0 719.0C513.10455 719.0 514.0 719.89545 514.0 721.0Z" fill-rule="nonzero"/><path fill="#4285f4" clip-path="url(#id_0)" d="M514.0 850.0L391.0 850.0L391.0 721.0C391.0 719.89545 391.89542 719.0 393.0 719.0L512.0 719.0C513.10455 719.0 514.0 719.89545 514.0 721.0Z" fill-rule="nonzero"/><path stroke="#000000" stroke-width="2.0" stroke-linecap="butt" stroke-opacity="0.0" clip-path="url(#id_0)" d="M703.0 850.0L580.0 850.0L580.0 614.0C580.0 612.89545 580.89545 612.0 582.0 612.0L701.0 612.0C702.10455 612.0 703.0 612.89545 703.0 614.0Z" fill-rule="nonzero"/><path fill="#4285f4" clip-path="url(#id_0)" d="M703.0 850.0L580.0 850.0L580.0 614.0C580.0 612.89545 580.89545 612.0 582.0 612.0L701.0 612.0C702.10455 612.0 703.0 612.89545 703.0 614.0Z" fill-rule="nonzero"/><path stroke="#000000" stroke-width="2.0" stroke-linecap="butt" stroke-opacity="0.0" clip-path="url(#id_0)" d="M892.0 850.0L769.0 850.0L769.0 506.0C769.0 504.89542 769.89545 504.0 771.0 504.0L890.0 504.0C891.10455 504.0 892.0 504.89542 892.0 506.0Z" fill-rule="nonzero"/><path fill="#4285f4" clip-path="url(#id_0)" d="M892.0 850.0L769.0 850.0L769.0 506.0C769.0 504.89542 769.89545 504.0 771.0 504.0L890.0 504.0C891.10455 504.0 892.0 504.89542 892.0 506.0Z" fill-rule="nonzero"/><path stroke="#000000" stroke-width="2.0" stroke-linecap="butt" stroke-opacity="0.0" clip-path="url(#id_0)" d="M1080.0 850.0L957.0 850.0L957.0 418.0C957.0 416.89542 957.89545 416.0 959.0 416.0L1078.0 416.0C1079.1046 416.0 1080.0 416.89542 1080.0 418.0Z" fill-rule="nonzero"/><path fill="#4285f4" clip-path="url(#id_0)" d="M1080.0 850.0L957.0 850.0L957.0 418.0C957.0 416.89542 957.89545 416.0 959.0 416.0L1078.0 416.0C1079.1046 416.0 1080.0 416.89542 1080.0 418.0Z" fill-rule="nonzero"/><path stroke="#000000" stroke-width="2.0" stroke-linecap="butt" stroke-opacity="0.0" clip-path="url(#id_0)" d="M1269.0 850.0L1146.0 850.0L1146.0 347.0C1146.0 345.89542 1146.8954 345.0 1148.0 345.0L1267.0 345.0C1268.1046 345.0 1269.0 345.89542 1269.0 347.0Z" fill-rule="nonzero"/><path fill="#4285f4" clip-path="url(#id_0)" d="M1269.0 850.0L1146.0 850.0L1146.0 347.0C1146.0 345.89542 1146.8954 345.0 1148.0 345.0L1267.0 345.0C1268.1046 345.0 1269.0 345.89542 1269.0 347.0Z" fill-rule="nonzero"/><path stroke="#000000" stroke-width="2.0" stroke-linecap="butt" stroke-opacity="0.0" clip-path="url(#id_0)" d="M1457.0 850.0L1334.0 850.0L1334.0 259.0C1334.0 257.89542 1334.8954 257.0 1336.0 257.0L1455.0 257.0C1456.1046 257.0 1457.0 257.89542 1457.0 259.0Z" fill-rule="nonzero"/><path fill="#4285f4" clip-path="url(#id_0)" d="M1457.0 850.0L1334.0 850.0L1334.0 259.0C1334.0 257.89542 1334.8954 257.0 1336.0 257.0L1455.0 257.0C1456.1046 257.0 1457.0 257.89542 1457.0 259.0Z" fill-rule="nonzero"/><path stroke="#38761d" stroke-width="2.0" stroke-linecap="butt" stroke-opacity="0.8" clip-path="url(#id_0)" d="M0 915.8878L1522.4 188.38013" fill-rule="nonzero"/><path stroke="#ffffff" stroke-width="3.0" stroke-linejoin="round" stroke-linecap="round" d="M257.34375 763.87573L255.98438 763.87573L255.98438 754.8445L253.25 755.8445L253.25 754.6101L257.125 753.157L257.34375 753.157L257.34375 763.87573ZM265.34375 763.87573L263.98438 763.87573L263.98438 754.8445L261.25 755.8445L261.25 754.6101L265.125 753.157L265.34375 753.157L265.34375 763.87573ZM269.51562 758.532L270.04688 753.20386L275.51562 753.20386L275.51562 754.4695L271.20312 754.4695L270.875 757.37573Q271.65625 756.907 272.65625 756.907Q274.10938 756.907 274.96875 757.87573Q275.82812 758.82886 275.82812 760.4695Q275.82812 762.12573 274.9375 763.07886Q274.04688 764.01636 272.45312 764.01636Q271.04688 764.01636 270.14062 763.2351Q269.25 762.45386 269.125 761.06323L270.40625 761.06323Q270.53125 761.9851 271.0625 762.45386Q271.59375 762.9226 272.45312 762.9226Q273.39062 762.9226 273.92188 762.282Q274.46875 761.62573 274.46875 760.4851Q274.46875 759.4226 273.89062 758.782Q273.3125 758.12573 272.34375 758.12573Q271.45312 758.12573 270.95312 758.51636L270.59375 758.81323L269.51562 758.532Z" fill-rule="nonzero"/><path fill="#000000" d="M257.34375 763.87573L255.98438 763.87573L255.98438 754.8445L253.25 755.8445L253.25 754.6101L257.125 753.157L257.34375 753.157L257.34375 763.87573ZM265.34375 763.87573L263.98438 763.87573L263.98438 754.8445L261.25 755.8445L261.25 754.6101L265.125 753.157L265.34375 753.157L265.34375 763.87573ZM269.51562 758.532L270.04688 753.20386L275.51562 753.20386L275.51562 754.4695L271.20312 754.4695L270.875 757.37573Q271.65625 756.907 272.65625 756.907Q274.10938 756.907 274.96875 757.87573Q275.82812 758.82886 275.82812 760.4695Q275.82812 762.12573 274.9375 763.07886Q274.04688 764.01636 272.45312 764.01636Q271.04688 764.01636 270.14062 763.2351Q269.25 762.45386 269.125 761.06323L270.40625 761.06323Q270.53125 761.9851 271.0625 762.45386Q271.59375 762.9226 272.45312 762.9226Q273.39062 762.9226 273.92188 762.282Q274.46875 761.62573 274.46875 760.4851Q274.46875 759.4226 273.89062 758.782Q273.3125 758.12573 272.34375 758.12573Q271.45312 758.12573 270.95312 758.51636L270.59375 758.81323L269.51562 758.532Z" fill-rule="nonzero"/><path stroke="#ffffff" stroke-width="3.0" stroke-linejoin="round" stroke-linecap="round" d="M447.875 700.2491L440.89062 700.2491L440.89062 699.28033L444.57812 695.17096Q445.39062 694.2491 445.70312 693.67096Q446.01562 693.0772 446.01562 692.4522Q446.01562 691.6241 445.51562 691.09283Q445.01562 690.54596 444.17188 690.54596Q443.15625 690.54596 442.59375 691.1241Q442.03125 691.7022 442.03125 692.73346L440.6875 692.73346Q440.6875 691.2491 441.625 690.34283Q442.57812 689.4366 444.17188 689.4366Q445.65625 689.4366 446.51562 690.21783Q447.39062 690.9991 447.39062 692.29596Q447.39062 693.8741 445.375 696.04596L442.51562 699.1397L447.875 699.1397L447.875 700.2491ZM455.875 700.2491L448.89062 700.2491L448.89062 699.28033L452.57812 695.17096Q453.39062 694.2491 453.70312 693.67096Q454.01562 693.0772 454.01562 692.4522Q454.01562 691.6241 453.51562 691.09283Q453.01562 690.54596 452.17188 690.54596Q451.15625 690.54596 450.59375 691.1241Q450.03125 691.7022 450.03125 692.73346L448.6875 692.73346Q448.6875 691.2491 449.625 690.34283Q450.57812 689.4366 452.17188 689.4366Q453.65625 689.4366 454.51562 690.21783Q455.39062 690.9991 455.39062 692.29596Q455.39062 693.8741 453.375 696.04596L450.51562 699.1397L455.875 699.1397L455.875 700.2491ZM462.60938 696.67096L464.09375 696.67096L464.09375 697.78033L462.60938 697.78033L462.60938 700.2491L461.25 700.2491L461.25 697.78033L456.39062 697.78033L456.39062 696.96783L461.15625 689.5772L462.60938 689.5772L462.60938 696.67096ZM457.92188 696.67096L461.25 696.67096L461.25 691.4366L461.07812 691.73346L457.92188 696.67096Z" fill-rule="nonzero"/><path fill="#000000" d="M447.875 700.2491L440.89062 700.2491L440.89062 699.28033L444.57812 695.17096Q445.39062 694.2491 445.70312 693.67096Q446.01562 693.0772 446.01562 692.4522Q446.01562 691.6241 445.51562 691.09283Q445.01562 690.54596 444.17188 690.54596Q443.15625 690.54596 442.59375 691.1241Q442.03125 691.7022 442.03125 692.73346L440.6875 692.73346Q440.6875 691.2491 441.625 690.34283Q442.57812 689.4366 444.17188 689.4366Q445.65625 689.4366 446.51562 690.21783Q447.39062 690.9991 447.39062 692.29596Q447.39062 693.8741 445.375 696.04596L442.51562 699.1397L447.875 699.1397L447.875 700.2491ZM455.875 700.2491L448.89062 700.2491L448.89062 699.28033L452.57812 695.17096Q453.39062 694.2491 453.70312 693.67096Q454.01562 693.0772 454.01562 692.4522Q454.01562 691.6241 453.51562 691.09283Q453.01562 690.54596 452.17188 690.54596Q451.15625 690.54596 450.59375 691.1241Q450.03125 691.7022 450.03125 692.73346L448.6875 692.73346Q448.6875 691.2491 449.625 690.34283Q450.57812 689.4366 452.17188 689.4366Q453.65625 689.4366 454.51562 690.21783Q455.39062 690.9991 455.39062 692.29596Q455.39062 693.8741 453.375 696.04596L450.51562 699.1397L455.875 699.1397L455.875 700.2491ZM462.60938 696.67096L464.09375 696.67096L464.09375 697.78033L462.60938 697.78033L462.60938 700.2491L461.25 700.2491L461.25 697.78033L456.39062 697.78033L456.39062 696.96783L461.15625 689.5772L462.60938 689.5772L462.60938 696.67096ZM457.92188 696.67096L461.25 696.67096L461.25 691.4366L461.07812 691.73346L457.92188 696.67096Z" fill-rule="nonzero"/><path stroke="#ffffff" stroke-width="3.0" stroke-linejoin="round" stroke-linecap="round" d="M635.6094 589.7756L637.09375 589.7756L637.09375 590.88495L635.6094 590.88495L635.6094 593.3537L634.25 593.3537L634.25 590.88495L629.3906 590.88495L629.3906 590.07245L634.15625 582.6818L635.6094 582.6818L635.6094 589.7756ZM630.9219 589.7756L634.25 589.7756L634.25 584.5412L634.0781 584.8381L630.9219 589.7756ZM644.5781 588.8068Q644.5781 591.1818 643.7656 592.3381Q642.9531 593.4943 641.21875 593.4943Q639.5156 593.4943 638.6875 592.3693Q637.875 591.2443 637.84375 588.9943L637.84375 587.1818Q637.84375 584.82245 638.65625 583.6818Q639.46875 582.5412 641.2031 582.5412Q642.9219 582.5412 643.7344 583.6506Q644.5469 584.7443 644.5781 587.0412L644.5781 588.8068ZM643.21875 586.94745Q643.21875 585.2287 642.7344 584.44745Q642.25 583.6506 641.2031 583.6506Q640.1719 583.6506 639.6875 584.44745Q639.21875 585.2287 639.2031 586.8537L639.2031 589.00995Q639.2031 590.7443 639.7031 591.57245Q640.2031 592.4006 641.21875 592.4006Q642.21875 592.4006 642.7031 591.6193Q643.2031 590.8381 643.21875 589.1662L643.21875 586.94745ZM652.7656 583.44745L648.3594 593.3537L646.9375 593.3537L651.3281 583.8068L645.5625 583.8068L645.5625 582.6818L652.7656 582.6818L652.7656 583.44745Z" fill-rule="nonzero"/><path fill="#000000" d="M635.6094 589.7756L637.09375 589.7756L637.09375 590.88495L635.6094 590.88495L635.6094 593.3537L634.25 593.3537L634.25 590.88495L629.3906 590.88495L629.3906 590.07245L634.15625 582.6818L635.6094 582.6818L635.6094 589.7756ZM630.9219 589.7756L634.25 589.7756L634.25 584.5412L634.0781 584.8381L630.9219 589.7756ZM644.5781 588.8068Q644.5781 591.1818 643.7656 592.3381Q642.9531 593.4943 641.21875 593.4943Q639.5156 593.4943 638.6875 592.3693Q637.875 591.2443 637.84375 588.9943L637.84375 587.1818Q637.84375 584.82245 638.65625 583.6818Q639.46875 582.5412 641.2031 582.5412Q642.9219 582.5412 643.7344 583.6506Q644.5469 584.7443 644.5781 587.0412L644.5781 588.8068ZM643.21875 586.94745Q643.21875 585.2287 642.7344 584.44745Q642.25 583.6506 641.2031 583.6506Q640.1719 583.6506 639.6875 584.44745Q639.21875 585.2287 639.2031 586.8537L639.2031 589.00995Q639.2031 590.7443 639.7031 591.57245Q640.2031 592.4006 641.21875 592.4006Q642.21875 592.4006 642.7031 591.6193Q643.2031 590.8381 643.21875 589.1662L643.21875 586.94745ZM652.7656 583.44745L648.3594 593.3537L646.9375 593.3537L651.3281 583.8068L645.5625 583.8068L645.5625 582.6818L652.7656 582.6818L652.7656 583.44745Z" fill-rule="nonzero"/><path stroke="#ffffff" stroke-width="3.0" stroke-linejoin="round" stroke-linecap="round" d="M819.5156 480.0788L820.0469 474.75067L825.5156 474.75067L825.5156 476.0163L821.2031 476.0163L820.875 478.92255Q821.65625 478.4538 822.65625 478.4538Q824.1094 478.4538 824.96875 479.42255Q825.8281 480.37567 825.8281 482.0163Q825.8281 483.67255 824.9375 484.62567Q824.0469 485.56317 822.4531 485.56317Q821.0469 485.56317 820.1406 484.78192Q819.25 484.00067 819.125 482.61005L820.40625 482.61005Q820.53125 483.53192 821.0625 484.00067Q821.59375 484.46942 822.4531 484.46942Q823.3906 484.46942 823.9219 483.8288Q824.46875 483.17255 824.46875 482.03192Q824.46875 480.96942 823.8906 480.3288Q823.3125 479.67255 822.34375 479.67255Q821.4531 479.67255 820.9531 480.06317L820.59375 480.36005L819.5156 480.0788ZM832.0781 480.73505Q831.65625 481.23505 831.0625 481.54755Q830.46875 481.86005 829.7656 481.86005Q828.84375 481.86005 828.15625 481.40692Q827.4844 480.9538 827.1094 480.12567Q826.7344 479.29755 826.7344 478.29755Q826.7344 477.23505 827.1406 476.37567Q827.5469 475.5163 828.2969 475.06317Q829.0469 474.61005 830.03125 474.61005Q831.625 474.61005 832.53125 475.79755Q833.4375 476.98505 833.4375 479.0163L833.4375 479.42255Q833.4375 482.53192 832.2031 483.96942Q830.9844 485.3913 828.5 485.42255L828.2344 485.42255L828.2344 484.28192L828.5156 484.28192Q830.2031 484.25067 831.09375 483.40692Q832.0 482.56317 832.0781 480.73505ZM829.9844 480.73505Q830.6719 480.73505 831.25 480.3288Q831.8281 479.90692 832.09375 479.28192L832.09375 478.73505Q832.09375 477.40692 831.5 476.5788Q830.9219 475.73505 830.0469 475.73505Q829.15625 475.73505 828.6094 476.42255Q828.0625 477.11005 828.0625 478.23505Q828.0625 479.3288 828.5781 480.03192Q829.1094 480.73505 829.9844 480.73505ZM839.34375 485.42255L837.9844 485.42255L837.9844 476.3913L835.25 477.3913L835.25 476.15692L839.125 474.7038L839.34375 474.7038L839.34375 485.42255Z" fill-rule="nonzero"/><path fill="#000000" d="M819.5156 480.0788L820.0469 474.75067L825.5156 474.75067L825.5156 476.0163L821.2031 476.0163L820.875 478.92255Q821.65625 478.4538 822.65625 478.4538Q824.1094 478.4538 824.96875 479.42255Q825.8281 480.37567 825.8281 482.0163Q825.8281 483.67255 824.9375 484.62567Q824.0469 485.56317 822.4531 485.56317Q821.0469 485.56317 820.1406 484.78192Q819.25 484.00067 819.125 482.61005L820.40625 482.61005Q820.53125 483.53192 821.0625 484.00067Q821.59375 484.46942 822.4531 484.46942Q823.3906 484.46942 823.9219 483.8288Q824.46875 483.17255 824.46875 482.03192Q824.46875 480.96942 823.8906 480.3288Q823.3125 479.67255 822.34375 479.67255Q821.4531 479.67255 820.9531 480.06317L820.59375 480.36005L819.5156 480.0788ZM832.0781 480.73505Q831.65625 481.23505 831.0625 481.54755Q830.46875 481.86005 829.7656 481.86005Q828.84375 481.86005 828.15625 481.40692Q827.4844 480.9538 827.1094 480.12567Q826.7344 479.29755 826.7344 478.29755Q826.7344 477.23505 827.1406 476.37567Q827.5469 475.5163 828.2969 475.06317Q829.0469 474.61005 830.03125 474.61005Q831.625 474.61005 832.53125 475.79755Q833.4375 476.98505 833.4375 479.0163L833.4375 479.42255Q833.4375 482.53192 832.2031 483.96942Q830.9844 485.3913 828.5 485.42255L828.2344 485.42255L828.2344 484.28192L828.5156 484.28192Q830.2031 484.25067 831.09375 483.40692Q832.0 482.56317 832.0781 480.73505ZM829.9844 480.73505Q830.6719 480.73505 831.25 480.3288Q831.8281 479.90692 832.09375 479.28192L832.09375 478.73505Q832.09375 477.40692 831.5 476.5788Q830.9219 475.73505 830.0469 475.73505Q829.15625 475.73505 828.6094 476.42255Q828.0625 477.11005 828.0625 478.23505Q828.0625 479.3288 828.5781 480.03192Q829.1094 480.73505 829.9844 480.73505ZM839.34375 485.42255L837.9844 485.42255L837.9844 476.3913L835.25 477.3913L835.25 476.15692L839.125 474.7038L839.34375 474.7038L839.34375 485.42255Z" fill-rule="nonzero"/><path stroke="#ffffff" stroke-width="3.0" stroke-linejoin="round" stroke-linecap="round" d="M1013.7656 386.78003L1009.3594 396.68628L1007.9375 396.68628L1012.3281 387.1394L1006.5625 387.1394L1006.5625 386.0144L1013.7656 386.0144L1013.7656 386.78003ZM1020.6094 393.10815L1022.09375 393.10815L1022.09375 394.21753L1020.6094 394.21753L1020.6094 396.68628L1019.25 396.68628L1019.25 394.21753L1014.3906 394.21753L1014.3906 393.40503L1019.15625 386.0144L1020.6094 386.0144L1020.6094 393.10815ZM1015.9219 393.10815L1019.25 393.10815L1019.25 387.87378L1019.0781 388.17065L1015.9219 393.10815ZM1029.875 396.68628L1022.8906 396.68628L1022.8906 395.71753L1026.5781 391.60815Q1027.3906 390.68628 1027.7031 390.10815Q1028.0156 389.5144 1028.0156 388.8894Q1028.0156 388.06128 1027.5156 387.53003Q1027.0156 386.98315 1026.1719 386.98315Q1025.1562 386.98315 1024.5938 387.56128Q1024.0312 388.1394 1024.0312 389.17065L1022.6875 389.17065Q1022.6875 387.68628 1023.625 386.78003Q1024.5781 385.87378 1026.1719 385.87378Q1027.6562 385.87378 1028.5156 386.65503Q1029.3906 387.43628 1029.3906 388.73315Q1029.3906 390.31128 1027.375 392.48315L1024.5156 395.5769L1029.875 395.5769L1029.875 396.68628Z" fill-rule="nonzero"/><path fill="#000000" d="M1013.7656 386.78003L1009.3594 396.68628L1007.9375 396.68628L1012.3281 387.1394L1006.5625 387.1394L1006.5625 386.0144L1013.7656 386.0144L1013.7656 386.78003ZM1020.6094 393.10815L1022.09375 393.10815L1022.09375 394.21753L1020.6094 394.21753L1020.6094 396.68628L1019.25 396.68628L1019.25 394.21753L1014.3906 394.21753L1014.3906 393.40503L1019.15625 386.0144L1020.6094 386.0144L1020.6094 393.10815ZM1015.9219 393.10815L1019.25 393.10815L1019.25 387.87378L1019.0781 388.17065L1015.9219 393.10815ZM1029.875 396.68628L1022.8906 396.68628L1022.8906 395.71753L1026.5781 391.60815Q1027.3906 390.68628 1027.7031 390.10815Q1028.0156 389.5144 1028.0156 388.8894Q1028.0156 388.06128 1027.5156 387.53003Q1027.0156 386.98315 1026.1719 386.98315Q1025.1562 386.98315 1024.5938 387.56128Q1024.0312 388.1394 1024.0312 389.17065L1022.6875 389.17065Q1022.6875 387.68628 1023.625 386.78003Q1024.5781 385.87378 1026.1719 385.87378Q1027.6562 385.87378 1028.5156 386.65503Q1029.3906 387.43628 1029.3906 388.73315Q1029.3906 390.31128 1027.375 392.48315L1024.5156 395.5769L1029.875 395.5769L1029.875 396.68628Z" fill-rule="nonzero"/><path stroke="#ffffff" stroke-width="3.0" stroke-linejoin="round" stroke-linecap="round" d="M1202.3594 317.76013Q1202.3594 318.557 1201.9375 319.182Q1201.5156 319.79138 1200.7969 320.15076Q1201.625 320.51013 1202.1094 321.19763Q1202.6094 321.88513 1202.6094 322.76013Q1202.6094 324.13513 1201.6719 324.96326Q1200.7344 325.77576 1199.2188 325.77576Q1197.6719 325.77576 1196.75 324.96326Q1195.8281 324.13513 1195.8281 322.76013Q1195.8281 321.88513 1196.2969 321.19763Q1196.7656 320.4945 1197.5938 320.13513Q1196.8906 319.79138 1196.4688 319.16638Q1196.0625 318.54138 1196.0625 317.76013Q1196.0625 316.40076 1196.9219 315.6195Q1197.7969 314.82263 1199.2188 314.82263Q1200.625 314.82263 1201.4844 315.6195Q1202.3594 316.40076 1202.3594 317.76013ZM1201.25 322.72888Q1201.25 321.83826 1200.6719 321.27576Q1200.1094 320.71326 1199.1875 320.71326Q1198.2812 320.71326 1197.7188 321.27576Q1197.1719 321.82263 1197.1719 322.72888Q1197.1719 323.63513 1197.7031 324.16638Q1198.25 324.682 1199.2188 324.682Q1200.1562 324.682 1200.7031 324.16638Q1201.25 323.63513 1201.25 322.72888ZM1199.2188 315.932Q1198.4062 315.932 1197.9062 316.432Q1197.4219 316.932 1197.4219 317.77576Q1197.4219 318.58826 1197.9062 319.08826Q1198.4062 319.58826 1199.2188 319.58826Q1200.0312 319.58826 1200.5156 319.08826Q1201.0 318.58826 1201.0 317.77576Q1201.0 316.96326 1200.4844 316.44763Q1199.9844 315.932 1199.2188 315.932ZM1209.2031 314.96326L1209.2031 316.1195L1208.9531 316.1195Q1207.375 316.13513 1206.4375 317.057Q1205.5 317.96326 1205.3438 319.60388Q1206.1875 318.63513 1207.6562 318.63513Q1209.0469 318.63513 1209.875 319.6195Q1210.7031 320.60388 1210.7031 322.15076Q1210.7031 323.807 1209.7969 324.79138Q1208.9062 325.77576 1207.4062 325.77576Q1205.875 325.77576 1204.9219 324.60388Q1203.9688 323.432 1203.9688 321.57263L1203.9688 321.057Q1203.9688 318.1195 1205.2188 316.557Q1206.4844 314.9945 1208.9688 314.96326L1209.2031 314.96326ZM1207.4219 319.77576Q1206.7344 319.77576 1206.1406 320.19763Q1205.5625 320.60388 1205.3281 321.22888L1205.3281 321.72888Q1205.3281 323.057 1205.9219 323.8695Q1206.5156 324.66638 1207.4062 324.66638Q1208.3125 324.66638 1208.8281 323.9945Q1209.3594 323.307 1209.3594 322.22888Q1209.3594 321.1195 1208.8281 320.44763Q1208.2969 319.77576 1207.4219 319.77576ZM1217.6094 322.057L1219.0938 322.057L1219.0938 323.16638L1217.6094 323.16638L1217.6094 325.63513L1216.25 325.63513L1216.25 323.16638L1211.3906 323.16638L1211.3906 322.35388L1216.1562 314.96326L1217.6094 314.96326L1217.6094 322.057ZM1212.9219 322.057L1216.25 322.057L1216.25 316.82263L1216.0781 317.1195L1212.9219 322.057Z" fill-rule="nonzero"/><path fill="#000000" d="M1202.3594 317.76013Q1202.3594 318.557 1201.9375 319.182Q1201.5156 319.79138 1200.7969 320.15076Q1201.625 320.51013 1202.1094 321.19763Q1202.6094 321.88513 1202.6094 322.76013Q1202.6094 324.13513 1201.6719 324.96326Q1200.7344 325.77576 1199.2188 325.77576Q1197.6719 325.77576 1196.75 324.96326Q1195.8281 324.13513 1195.8281 322.76013Q1195.8281 321.88513 1196.2969 321.19763Q1196.7656 320.4945 1197.5938 320.13513Q1196.8906 319.79138 1196.4688 319.16638Q1196.0625 318.54138 1196.0625 317.76013Q1196.0625 316.40076 1196.9219 315.6195Q1197.7969 314.82263 1199.2188 314.82263Q1200.625 314.82263 1201.4844 315.6195Q1202.3594 316.40076 1202.3594 317.76013ZM1201.25 322.72888Q1201.25 321.83826 1200.6719 321.27576Q1200.1094 320.71326 1199.1875 320.71326Q1198.2812 320.71326 1197.7188 321.27576Q1197.1719 321.82263 1197.1719 322.72888Q1197.1719 323.63513 1197.7031 324.16638Q1198.25 324.682 1199.2188 324.682Q1200.1562 324.682 1200.7031 324.16638Q1201.25 323.63513 1201.25 322.72888ZM1199.2188 315.932Q1198.4062 315.932 1197.9062 316.432Q1197.4219 316.932 1197.4219 317.77576Q1197.4219 318.58826 1197.9062 319.08826Q1198.4062 319.58826 1199.2188 319.58826Q1200.0312 319.58826 1200.5156 319.08826Q1201.0 318.58826 1201.0 317.77576Q1201.0 316.96326 1200.4844 316.44763Q1199.9844 315.932 1199.2188 315.932ZM1209.2031 314.96326L1209.2031 316.1195L1208.9531 316.1195Q1207.375 316.13513 1206.4375 317.057Q1205.5 317.96326 1205.3438 319.60388Q1206.1875 318.63513 1207.6562 318.63513Q1209.0469 318.63513 1209.875 319.6195Q1210.7031 320.60388 1210.7031 322.15076Q1210.7031 323.807 1209.7969 324.79138Q1208.9062 325.77576 1207.4062 325.77576Q1205.875 325.77576 1204.9219 324.60388Q1203.9688 323.432 1203.9688 321.57263L1203.9688 321.057Q1203.9688 318.1195 1205.2188 316.557Q1206.4844 314.9945 1208.9688 314.96326L1209.2031 314.96326ZM1207.4219 319.77576Q1206.7344 319.77576 1206.1406 320.19763Q1205.5625 320.60388 1205.3281 321.22888L1205.3281 321.72888Q1205.3281 323.057 1205.9219 323.8695Q1206.5156 324.66638 1207.4062 324.66638Q1208.3125 324.66638 1208.8281 323.9945Q1209.3594 323.307 1209.3594 322.22888Q1209.3594 321.1195 1208.8281 320.44763Q1208.2969 319.77576 1207.4219 319.77576ZM1217.6094 322.057L1219.0938 322.057L1219.0938 323.16638L1217.6094 323.16638L1217.6094 325.63513L1216.25 325.63513L1216.25 323.16638L1211.3906 323.16638L1211.3906 322.35388L1216.1562 314.96326L1217.6094 314.96326L1217.6094 322.057ZM1212.9219 322.057L1216.25 322.057L1216.25 316.82263L1216.0781 317.1195L1212.9219 322.057Z" fill-rule="nonzero"/><path stroke="#ffffff" stroke-width="3.0" stroke-linejoin="round" stroke-linecap="round" d="M1384.3438 238.24617L1382.9844 238.24617L1382.9844 229.21492L1380.25 230.21492L1380.25 228.98055L1384.125 227.52742L1384.3438 227.52742L1384.3438 238.24617ZM1394.5781 233.6993Q1394.5781 236.0743 1393.7656 237.23055Q1392.9531 238.3868 1391.2188 238.3868Q1389.5156 238.3868 1388.6875 237.2618Q1387.875 236.1368 1387.8438 233.8868L1387.8438 232.0743Q1387.8438 229.71492 1388.6562 228.5743Q1389.4688 227.43367 1391.2031 227.43367Q1392.9219 227.43367 1393.7344 228.54305Q1394.5469 229.6368 1394.5781 231.93367L1394.5781 233.6993ZM1393.2188 231.83992Q1393.2188 230.12117 1392.7344 229.33992Q1392.25 228.54305 1391.2031 228.54305Q1390.1719 228.54305 1389.6875 229.33992Q1389.2188 230.12117 1389.2031 231.74617L1389.2031 233.90242Q1389.2031 235.6368 1389.7031 236.46492Q1390.2031 237.29305 1391.2188 237.29305Q1392.2188 237.29305 1392.7031 236.5118Q1393.2031 235.73055 1393.2188 234.05867L1393.2188 231.83992ZM1400.3438 238.24617L1398.9844 238.24617L1398.9844 229.21492L1396.25 230.21492L1396.25 228.98055L1400.125 227.52742L1400.3438 227.52742L1400.3438 238.24617ZM1405.8594 232.2618L1406.875 232.2618Q1407.8281 232.24617 1408.375 231.7618Q1408.9375 231.2618 1408.9375 230.41805Q1408.9375 228.54305 1407.0625 228.54305Q1406.1875 228.54305 1405.6562 229.05867Q1405.1406 229.55867 1405.1406 230.3868L1403.7812 230.3868Q1403.7812 229.10555 1404.7031 228.27742Q1405.6406 227.43367 1407.0625 227.43367Q1408.5781 227.43367 1409.4219 228.23055Q1410.2812 229.02742 1410.2812 230.4493Q1410.2812 231.15242 1409.8281 231.80867Q1409.3906 232.4493 1408.6094 232.77742Q1409.4844 233.05867 1409.9688 233.6993Q1410.4531 234.33992 1410.4531 235.27742Q1410.4531 236.71492 1409.5156 237.55867Q1408.5781 238.3868 1407.0781 238.3868Q1405.5781 238.3868 1404.625 237.5743Q1403.6875 236.7618 1403.6875 235.43367L1405.0469 235.43367Q1405.0469 236.27742 1405.5938 236.79305Q1406.1562 237.29305 1407.0781 237.29305Q1408.0469 237.29305 1408.5625 236.77742Q1409.0938 236.2618 1409.0938 235.30867Q1409.0938 234.37117 1408.5156 233.87117Q1407.9531 233.37117 1406.875 233.35555L1405.8594 233.35555L1405.8594 232.2618Z" fill-rule="nonzero"/><path fill="#000000" d="M1384.3438 238.24617L1382.9844 238.24617L1382.9844 229.21492L1380.25 230.21492L1380.25 228.98055L1384.125 227.52742L1384.3438 227.52742L1384.3438 238.24617ZM1394.5781 233.6993Q1394.5781 236.0743 1393.7656 237.23055Q1392.9531 238.3868 1391.2188 238.3868Q1389.5156 238.3868 1388.6875 237.2618Q1387.875 236.1368 1387.8438 233.8868L1387.8438 232.0743Q1387.8438 229.71492 1388.6562 228.5743Q1389.4688 227.43367 1391.2031 227.43367Q1392.9219 227.43367 1393.7344 228.54305Q1394.5469 229.6368 1394.5781 231.93367L1394.5781 233.6993ZM1393.2188 231.83992Q1393.2188 230.12117 1392.7344 229.33992Q1392.25 228.54305 1391.2031 228.54305Q1390.1719 228.54305 1389.6875 229.33992Q1389.2188 230.12117 1389.2031 231.74617L1389.2031 233.90242Q1389.2031 235.6368 1389.7031 236.46492Q1390.2031 237.29305 1391.2188 237.29305Q1392.2188 237.29305 1392.7031 236.5118Q1393.2031 235.73055 1393.2188 234.05867L1393.2188 231.83992ZM1400.3438 238.24617L1398.9844 238.24617L1398.9844 229.21492L1396.25 230.21492L1396.25 228.98055L1400.125 227.52742L1400.3438 227.52742L1400.3438 238.24617ZM1405.8594 232.2618L1406.875 232.2618Q1407.8281 232.24617 1408.375 231.7618Q1408.9375 231.2618 1408.9375 230.41805Q1408.9375 228.54305 1407.0625 228.54305Q1406.1875 228.54305 1405.6562 229.05867Q1405.1406 229.55867 1405.1406 230.3868L1403.7812 230.3868Q1403.7812 229.10555 1404.7031 228.27742Q1405.6406 227.43367 1407.0625 227.43367Q1408.5781 227.43367 1409.4219 228.23055Q1410.2812 229.02742 1410.2812 230.4493Q1410.2812 231.15242 1409.8281 231.80867Q1409.3906 232.4493 1408.6094 232.77742Q1409.4844 233.05867 1409.9688 233.6993Q1410.4531 234.33992 1410.4531 235.27742Q1410.4531 236.71492 1409.5156 237.55867Q1408.5781 238.3868 1407.0781 238.3868Q1405.5781 238.3868 1404.625 237.5743Q1403.6875 236.7618 1403.6875 235.43367L1405.0469 235.43367Q1405.0469 236.27742 1405.5938 236.79305Q1406.1562 237.29305 1407.0781 237.29305Q1408.0469 237.29305 1408.5625 236.77742Q1409.0938 236.2618 1409.0938 235.30867Q1409.0938 234.37117 1408.5156 233.87117Q1407.9531 233.37117 1406.875 233.35555L1405.8594 233.35555L1405.8594 232.2618Z" fill-rule="nonzero"/><path fill="#000000" d="M780.3594 914.79065L778.6719 914.79065L778.03125 918.4L776.4219 918.4L777.0625 914.79065L775.0625 914.79065L775.0625 913.29065L777.3281 913.29065L777.7656 910.79065L775.71875 910.79065L775.71875 909.2594L778.03125 909.2594L778.6719 905.60315L780.28125 905.60315L779.6406 909.2594L781.34375 909.2594L781.9844 905.60315L783.59375 905.60315L782.9531 909.2594L784.875 909.2594L784.875 910.79065L782.6719 910.79065L782.2344 913.29065L784.2031 913.29065L784.2031 914.79065L781.96875 914.79065L781.34375 918.4L779.7344 918.4L780.3594 914.79065ZM778.9375 913.29065L780.625 913.29065L781.0625 910.79065L779.3594 910.79065L778.9375 913.29065ZM793.4531 918.4L790.8125 918.4L790.8125 905.60315L793.4531 905.60315L793.4531 918.4ZM796.28125 919.4938L794.3906 919.4938L799.09375 905.60315L800.9844 905.60315L796.28125 919.4938ZM813.15625 912.29065Q813.15625 914.1813 812.4844 915.60315Q811.8125 917.025 810.5625 917.8063Q809.3281 918.5719 807.71875 918.5719Q806.125 918.5719 804.875 917.8063Q803.6406 917.04065 802.9531 915.6344Q802.2656 914.2125 802.25 912.3688L802.25 911.72815Q802.25 909.8375 802.9375 908.4Q803.625 906.9625 804.8594 906.1969Q806.1094 905.4313 807.7031 905.4313Q809.3125 905.4313 810.5469 906.1969Q811.7969 906.9625 812.46875 908.4Q813.15625 909.8375 813.15625 911.7125L813.15625 912.29065ZM810.4844 911.7125Q810.4844 909.6969 809.7656 908.65Q809.0469 907.60315 807.7031 907.60315Q806.375 907.60315 805.65625 908.6344Q804.9375 909.66565 804.9219 911.66565L804.9219 912.29065Q804.9219 914.2438 805.6406 915.3375Q806.375 916.41565 807.71875 916.41565Q809.0469 916.41565 809.75 915.3844Q810.46875 914.3375 810.4844 912.3375L810.4844 911.7125ZM828.28125 907.7438L824.3594 907.7438L824.3594 918.4L821.71875 918.4L821.71875 907.7438L817.8594 907.7438L817.8594 905.60315L828.28125 905.60315L828.28125 907.7438ZM831.9531 909.9313Q832.96875 908.7125 834.5 908.7125Q837.59375 908.7125 837.625 912.3063L837.625 918.4L835.09375 918.4L835.09375 912.3844Q835.09375 911.5563 834.7344 911.16565Q834.3906 910.775 833.5781 910.775Q832.4531 910.775 831.9531 911.6344L831.9531 918.4L829.4219 918.4L829.4219 904.9L831.9531 904.9L831.9531 909.9313ZM844.8125 911.275Q844.2969 911.1969 843.90625 911.1969Q842.46875 911.1969 842.0156 912.1813L842.0156 918.4L839.46875 918.4L839.46875 908.8844L841.875 908.8844L841.9531 910.025Q842.7031 908.7125 844.0625 908.7125Q844.4844 908.7125 844.8594 908.8219L844.8125 911.275ZM850.8594 918.5719Q848.7656 918.5719 847.4531 917.29065Q846.1406 916.0094 846.1406 913.8688L846.1406 913.6344Q846.1406 912.1969 846.6875 911.0719Q847.2344 909.9313 848.25 909.3219Q849.2656 908.7125 850.5781 908.7125Q852.5156 908.7125 853.6406 909.9469Q854.7656 911.1813 854.7656 913.4313L854.7656 914.47815L848.7031 914.47815Q848.8281 915.4 849.4531 915.9625Q850.0781 916.525 851.0156 916.525Q852.4844 916.525 853.3125 915.4625L854.5625 916.8688Q853.9844 917.66565 853.0156 918.1188Q852.0469 918.5719 850.8594 918.5719ZM850.5625 910.775Q849.8125 910.775 849.3281 911.29065Q848.8594 911.79065 848.7344 912.7438L852.2656 912.7438L852.2656 912.54065Q852.25 911.6969 851.8125 911.2438Q851.375 910.775 850.5625 910.775ZM861.9844 918.4Q861.8125 918.0563 861.7344 917.54065Q860.8125 918.5719 859.3281 918.5719Q857.9375 918.5719 857.0156 917.775Q856.09375 916.9625 856.09375 915.72815Q856.09375 914.2125 857.21875 913.41565Q858.34375 912.60315 860.4531 912.5875L861.625 912.5875L861.625 912.04065Q861.625 911.3844 861.28125 910.9938Q860.9531 910.5875 860.21875 910.5875Q859.5781 910.5875 859.2031 910.9Q858.84375 911.2125 858.84375 911.7438L856.3125 911.7438Q856.3125 910.91565 856.8125 910.2125Q857.3281 909.5094 858.25 909.1188Q859.1875 908.7125 860.3594 908.7125Q862.1094 908.7125 863.1406 909.60315Q864.1719 910.47815 864.1719 912.0875L864.1719 916.1969Q864.1875 917.5563 864.5469 918.2438L864.5469 918.4L861.9844 918.4ZM859.8906 916.6344Q860.4531 916.6344 860.9219 916.3844Q861.3906 916.1344 861.625 915.7125L861.625 914.0719L860.6719 914.0719Q858.7656 914.0719 858.6406 915.4L858.6406 915.54065Q858.6406 916.025 858.96875 916.3375Q859.3125 916.6344 859.8906 916.6344ZM866.0781 913.5719Q866.0781 911.35315 867.0781 910.04065Q868.0781 908.7125 869.8125 908.7125Q871.2031 908.7125 872.09375 909.7438L872.09375 904.9L874.65625 904.9L874.65625 918.4L872.3594 918.4L872.2344 917.3844Q871.28125 918.5719 869.7969 918.5719Q868.1094 918.5719 867.09375 917.2594Q866.0781 915.9313 866.0781 913.5719ZM868.625 913.7594Q868.625 915.0875 869.0781 915.8063Q869.5469 916.525 870.4375 916.525Q871.625 916.525 872.09375 915.525L872.09375 911.775Q871.625 910.775 870.4531 910.775Q868.625 910.775 868.625 913.7594ZM881.625 915.775Q881.625 915.3063 881.15625 915.04065Q880.7031 914.775 879.6875 914.5563Q876.2969 913.85315 876.2969 911.6813Q876.2969 910.41565 877.34375 909.5719Q878.3906 908.7125 880.09375 908.7125Q881.90625 908.7125 882.9844 909.5719Q884.0625 910.41565 884.0625 911.775L881.53125 911.775Q881.53125 911.2438 881.1719 910.8844Q880.8281 910.525 880.0781 910.525Q879.4375 910.525 879.0781 910.8219Q878.7344 911.10315 878.7344 911.5563Q878.7344 911.97815 879.125 912.2438Q879.53125 912.4938 880.4844 912.6813Q881.4375 912.8688 882.0781 913.10315Q884.09375 913.85315 884.09375 915.66565Q884.09375 916.9625 882.96875 917.775Q881.8594 918.5719 880.09375 918.5719Q878.90625 918.5719 877.96875 918.15Q877.0469 917.72815 876.5156 916.9938Q876.0 916.2438 876.0 915.3688L878.40625 915.3688Q878.4375 916.0563 878.90625 916.41565Q879.375 916.775 880.15625 916.775Q880.875 916.775 881.25 916.4938Q881.625 916.2125 881.625 915.775Z" fill-rule="nonzero"/><path fill="#000000" d="M54.943775 588.91876L54.943775 592.84064L65.60002 592.84064L65.60002 595.48126L54.943775 595.48126L54.943775 599.34064L52.80315 599.34064L52.80315 588.91876L54.943775 588.91876ZM57.131275 585.2469Q55.912525 584.23126 55.912525 582.7Q55.912525 579.60626 59.506275 579.575L65.60002 579.575L65.60002 582.10626L59.5844 582.10626Q58.756275 582.10626 58.36565 582.46564Q57.975025 582.8094 57.975025 583.6219Q57.975025 584.7469 58.8344 585.2469L65.60002 585.2469L65.60002 587.77814L52.100025 587.77814L52.100025 585.2469L57.131275 585.2469ZM58.475025 572.3875Q58.3969 572.90314 58.3969 573.29376Q58.3969 574.73126 59.381275 575.1844L65.60002 575.1844L65.60002 577.73126L56.0844 577.73126L56.0844 575.325L57.225025 575.2469Q55.912525 574.4969 55.912525 573.1375Q55.912525 572.71564 56.0219 572.34064L58.475025 572.3875ZM60.756275 571.1219Q59.3344 571.1219 58.24065 570.575Q57.131275 570.02814 56.5219 569.0125Q55.912525 567.98126 55.912525 566.6219Q55.912525 564.7 57.100025 563.48126Q58.2719 562.2625 60.287525 562.1219L60.943775 562.10626Q63.131275 562.10626 64.4594 563.34064Q65.7719 564.5594 65.7719 566.6219Q65.7719 568.66876 64.4594 569.90314Q63.131275 571.1219 60.86565 571.1219L60.756275 571.1219ZM60.943775 568.575Q62.287525 568.575 63.006275 568.075Q63.725025 567.5594 63.725025 566.60626Q63.725025 565.6844 63.0219 565.16876Q62.318775 564.65314 60.756275 564.65314Q59.42815 564.65314 58.7094 565.16876Q57.975025 565.6844 57.975025 566.6219Q57.975025 567.5594 58.7094 568.075Q59.42815 568.575 60.943775 568.575ZM64.63127 555.02814Q65.7719 555.96564 65.7719 557.6375Q65.7719 559.15314 64.8969 559.96564Q64.0219 560.7625 62.318775 560.77814L56.0844 560.77814L56.0844 558.2469L62.24065 558.2469Q63.725025 558.2469 63.725025 556.8875Q63.725025 555.60626 62.818775 555.1219L56.0844 555.1219L56.0844 552.575L65.60002 552.575L65.60002 554.96564L64.63127 555.02814ZM60.7719 551.09064Q58.5844 551.09064 57.256275 550.0594Q55.912525 549.0125 55.912525 547.2469Q55.912525 545.6844 56.99065 544.8094L56.0844 544.7L56.0844 542.40314L65.28752 542.40314Q66.53752 542.40314 67.4594 542.96564Q68.38127 543.52814 68.86565 544.5594Q69.35002 545.59064 69.35002 546.96564Q69.35002 548.0125 68.92815 549.0125Q68.50627 549.9969 67.85002 550.5125L66.30315 549.3875Q67.36565 548.4344 67.36565 547.09064Q67.36565 546.075 66.81877 545.5125Q66.28752 544.95 65.28752 544.95L64.78752 544.95Q65.7719 545.825 65.7719 547.2625Q65.7719 548.98126 64.44377 550.04376Q63.100025 551.09064 60.881275 551.09064L60.7719 551.09064ZM60.9594 548.5594Q62.256275 548.5594 62.99065 548.04376Q63.725025 547.5125 63.725025 546.60626Q63.725025 545.45 62.850025 544.95L58.850025 544.95Q57.975025 545.46564 57.975025 546.59064Q57.975025 547.5125 58.725025 548.04376Q59.475025 548.5594 60.9594 548.5594ZM57.131275 538.2469Q55.912525 537.23126 55.912525 535.7Q55.912525 532.60626 59.506275 532.575L65.60002 532.575L65.60002 535.10626L59.5844 535.10626Q58.756275 535.10626 58.36565 535.46564Q57.975025 535.8094 57.975025 536.6219Q57.975025 537.7469 58.8344 538.2469L65.60002 538.2469L65.60002 540.77814L52.100025 540.77814L52.100025 538.2469L57.131275 538.2469ZM60.92815 522.16876Q63.131275 522.16876 64.4594 523.16876Q65.7719 524.15314 65.7719 525.85626Q65.7719 527.29376 64.7719 528.1844L69.25627 528.1844L69.25627 530.73126L56.0844 530.73126L56.0844 528.3719L57.0219 528.27814Q55.912525 527.35626 55.912525 525.8719Q55.912525 524.1219 57.225025 523.15314Q58.5219 522.16876 60.80315 522.16876L60.92815 522.16876ZM60.74065 524.7Q59.42815 524.7 58.7094 525.16876Q57.975025 525.6375 57.975025 526.54376Q57.975025 527.73126 58.8969 528.1844L62.787525 528.1844Q63.725025 527.71564 63.725025 526.52814Q63.725025 524.7 60.74065 524.7ZM64.63127 515.02814Q65.7719 515.96564 65.7719 517.6375Q65.7719 519.15314 64.8969 519.96564Q64.0219 520.7625 62.318775 520.77814L56.0844 520.77814L56.0844 518.2469L62.24065 518.2469Q63.725025 518.2469 63.725025 516.8875Q63.725025 515.60626 62.818775 515.1219L56.0844 515.1219L56.0844 512.575L65.60002 512.575L65.60002 514.96564L64.63127 515.02814ZM53.756275 507.6844L56.0844 507.6844L56.0844 506.0594L57.9594 506.0594L57.9594 507.6844L62.693775 507.6844Q63.225025 507.6844 63.4594 507.48126Q63.67815 507.27814 63.67815 506.7Q63.67815 506.27814 63.61565 505.96564L65.55315 505.96564Q65.7719 506.7 65.7719 507.4969Q65.7719 510.16876 63.0844 510.21564L57.9594 510.21564L57.9594 511.60626L56.0844 511.60626L56.0844 510.21564L53.756275 510.21564L53.756275 507.6844ZM60.3969 500.60626Q58.381275 500.60626 56.568775 500.075Q54.74065 499.54376 53.350025 498.4969Q51.943775 497.45 51.3969 496.23126L52.7719 495.73126Q53.7094 497.0125 55.7094 497.73126Q57.693775 498.45 60.350025 498.45L60.61565 498.45Q63.2719 498.45 65.2719 497.7469Q67.2719 497.02814 68.25627 495.73126L69.60002 496.23126Q69.06877 497.41876 67.7094 498.45Q66.35002 499.48126 64.5844 500.02814Q62.80315 500.575 60.86565 500.60626L60.3969 500.60626ZM60.4594 490.54376L61.943775 491.91876L65.60002 491.91876L65.60002 494.5594L52.80315 494.5594L52.80315 491.91876L58.600025 491.91876L57.006275 490.7625L52.80315 487.4969L52.80315 484.2625L58.49065 488.79376L65.60002 484.1219L65.60002 487.2625L60.4594 490.54376ZM60.756275 484.1219Q59.3344 484.1219 58.24065 483.575Q57.131275 483.02814 56.5219 482.0125Q55.912525 480.98126 55.912525 479.6219Q55.912525 477.7 57.100025 476.48126Q58.2719 475.2625 60.287525 475.1219L60.943775 475.10626Q63.131275 475.10626 64.4594 476.34064Q65.7719 477.5594 65.7719 479.6219Q65.7719 481.66876 64.4594 482.90314Q63.131275 484.1219 60.86565 484.1219L60.756275 484.1219ZM60.943775 481.575Q62.287525 481.575 63.006275 481.075Q63.725025 480.5594 63.725025 479.60626Q63.725025 478.6844 63.0219 478.16876Q62.318775 477.65314 60.756275 477.65314Q59.42815 477.65314 58.7094 478.16876Q57.975025 478.6844 57.975025 479.6219Q57.975025 480.5594 58.7094 481.075Q59.42815 481.575 60.943775 481.575ZM60.92815 465.16876Q63.131275 465.16876 64.4594 466.16876Q65.7719 467.15314 65.7719 468.85626Q65.7719 470.29376 64.7719 471.1844L69.25627 471.1844L69.25627 473.73126L56.0844 473.73126L56.0844 471.3719L57.0219 471.27814Q55.912525 470.35626 55.912525 468.8719Q55.912525 467.1219 57.225025 466.15314Q58.5219 465.16876 60.80315 465.16876L60.92815 465.16876ZM60.74065 467.7Q59.42815 467.7 58.7094 468.16876Q57.975025 468.6375 57.975025 469.54376Q57.975025 470.73126 58.8969 471.1844L62.787525 471.1844Q63.725025 470.71564 63.725025 469.52814Q63.725025 467.7 60.74065 467.7ZM62.975025 458.575Q62.506275 458.575 62.24065 459.04376Q61.975025 459.4969 61.756275 460.5125Q61.05315 463.90314 58.881275 463.90314Q57.61565 463.90314 56.7719 462.85626Q55.912525 461.8094 55.912525 460.10626Q55.912525 458.29376 56.7719 457.21564Q57.61565 456.1375 58.975025 456.1375L58.975025 458.66876Q58.443775 458.66876 58.0844 459.02814Q57.725025 459.3719 57.725025 460.1219Q57.725025 460.7625 58.0219 461.1219Q58.30315 461.46564 58.756275 461.46564Q59.17815 461.46564 59.443775 461.075Q59.693775 460.66876 59.881275 459.71564Q60.068775 458.7625 60.30315 458.1219Q61.05315 456.10626 62.86565 456.10626Q64.16252 456.10626 64.97502 457.23126Q65.7719 458.34064 65.7719 460.10626Q65.7719 461.29376 65.35002 462.23126Q64.92815 463.15314 64.19377 463.6844Q63.443775 464.2 62.568775 464.2L62.568775 461.79376Q63.256275 461.7625 63.61565 461.29376Q63.975025 460.825 63.975025 460.04376Q63.975025 459.325 63.693775 458.95Q63.412525 458.575 62.975025 458.575ZM66.69377 453.91876L66.69377 455.8094L52.80315 451.10626L52.80315 449.21564L66.69377 453.91876ZM62.975025 442.575Q62.506275 442.575 62.24065 443.04376Q61.975025 443.4969 61.756275 444.5125Q61.05315 447.90314 58.881275 447.90314Q57.61565 447.90314 56.7719 446.85626Q55.912525 445.8094 55.912525 444.10626Q55.912525 442.29376 56.7719 441.21564Q57.61565 440.1375 58.975025 440.1375L58.975025 442.66876Q58.443775 442.66876 58.0844 443.02814Q57.725025 443.3719 57.725025 444.1219Q57.725025 444.7625 58.0219 445.1219Q58.30315 445.46564 58.756275 445.46564Q59.17815 445.46564 59.443775 445.075Q59.693775 444.66876 59.881275 443.71564Q60.068775 442.7625 60.30315 442.1219Q61.05315 440.10626 62.86565 440.10626Q64.16252 440.10626 64.97502 441.23126Q65.7719 442.34064 65.7719 444.10626Q65.7719 445.29376 65.35002 446.23126Q64.92815 447.15314 64.19377 447.6844Q63.443775 448.2 62.568775 448.2L62.568775 445.79376Q63.256275 445.7625 63.61565 445.29376Q63.975025 444.825 63.975025 444.04376Q63.975025 443.325 63.693775 442.95Q63.412525 442.575 62.975025 442.575ZM65.7719 434.34064Q65.7719 436.4344 64.49065 437.7469Q63.2094 439.0594 61.068775 439.0594L60.8344 439.0594Q59.3969 439.0594 58.2719 438.5125Q57.131275 437.96564 56.5219 436.95Q55.912525 435.9344 55.912525 434.6219Q55.912525 432.6844 57.1469 431.5594Q58.381275 430.4344 60.631275 430.4344L61.67815 430.4344L61.67815 436.4969Q62.600025 436.3719 63.162525 435.7469Q63.725025 435.1219 63.725025 434.1844Q63.725025 432.71564 62.662525 431.8875L64.06877 430.6375Q64.86565 431.21564 65.31877 432.1844Q65.7719 433.15314 65.7719 434.34064ZM57.975025 434.6375Q57.975025 435.3875 58.49065 435.8719Q58.99065 436.34064 59.943775 436.46564L59.943775 432.9344L59.74065 432.9344Q58.8969 432.95 58.443775 433.3875Q57.975025 433.825 57.975025 434.6375ZM63.725025 424.7625Q63.725025 424.0594 63.350025 423.6219Q62.9594 423.1844 62.318775 423.16876L62.318775 420.79376Q63.2719 420.79376 64.0844 421.325Q64.88127 421.84064 65.3344 422.7469Q65.7719 423.6375 65.7719 424.73126Q65.7719 426.7625 64.47502 427.95Q63.17815 429.1219 60.8969 429.1219L60.725025 429.1219Q58.537525 429.1219 57.225025 427.95Q55.912525 426.77814 55.912525 424.7469Q55.912525 422.96564 56.92815 421.8875Q57.943775 420.8094 59.631275 420.79376L59.631275 423.16876Q58.8969 423.1844 58.443775 423.6219Q57.975025 424.0594 57.975025 424.79376Q57.975025 425.66876 58.61565 426.1219Q59.256275 426.575 60.7094 426.575L60.975025 426.575Q62.443775 426.575 63.0844 426.1375Q63.725025 425.6844 63.725025 424.7625ZM60.756275 420.1219Q59.3344 420.1219 58.24065 419.575Q57.131275 419.02814 56.5219 418.0125Q55.912525 416.98126 55.912525 415.6219Q55.912525 413.7 57.100025 412.48126Q58.2719 411.2625 60.287525 411.1219L60.943775 411.10626Q63.131275 411.10626 64.4594 412.34064Q65.7719 413.5594 65.7719 415.6219Q65.7719 417.66876 64.4594 418.90314Q63.131275 420.1219 60.86565 420.1219L60.756275 420.1219ZM60.943775 417.575Q62.287525 417.575 63.006275 417.075Q63.725025 416.5594 63.725025 415.60626Q63.725025 414.6844 63.0219 414.16876Q62.318775 413.65314 60.756275 413.65314Q59.42815 413.65314 58.7094 414.16876Q57.975025 414.6844 57.975025 415.6219Q57.975025 416.5594 58.7094 417.075Q59.42815 417.575 60.943775 417.575ZM56.0844 407.3875L57.193775 407.3094Q55.912525 406.29376 55.912525 404.575Q55.912525 403.0594 56.80315 402.325Q57.693775 401.59064 59.4594 401.575L65.60002 401.575L65.60002 404.10626L59.5219 404.10626Q58.7094 404.10626 58.350025 404.46564Q57.975025 404.8094 57.975025 405.6219Q57.975025 406.7 58.8969 407.23126L65.60002 407.23126L65.60002 409.77814L56.0844 409.77814L56.0844 407.3875ZM60.7719 400.1219Q58.55315 400.1219 57.24065 399.1219Q55.912525 398.1219 55.912525 396.3875Q55.912525 394.9969 56.943775 394.10626L52.100025 394.10626L52.100025 391.54376L65.60002 391.54376L65.60002 393.84064L64.5844 393.96564Q65.7719 394.91876 65.7719 396.40314Q65.7719 398.09064 64.4594 399.10626Q63.131275 400.1219 60.7719 400.1219ZM60.9594 397.575Q62.287525 397.575 63.006275 397.1219Q63.725025 396.65314 63.725025 395.7625Q63.725025 394.575 62.725025 394.10626L58.975025 394.10626Q57.975025 394.575 57.975025 395.7469Q57.975025 397.575 60.9594 397.575ZM60.600025 385.34064Q62.5844 385.34064 64.42815 385.91876Q66.25627 386.4969 67.66252 387.575Q69.06877 388.6375 69.60002 389.85626L68.25627 390.34064Q67.31877 389.10626 65.36565 388.3875Q63.3969 387.65314 60.850025 387.6375L60.381275 387.6375Q57.756275 387.6375 55.756275 388.35626Q53.74065 389.0594 52.74065 390.34064L51.3969 389.85626Q51.912525 388.65314 53.287525 387.60626Q54.6469 386.54376 56.4594 385.96564Q58.256275 385.3719 60.2094 385.34064L60.600025 385.34064Z" fill-rule="nonzero"/><path fill="#000000" d="M128.6625 850.65Q128.6625 852.8688 127.89687 853.9625Q127.14687 855.04065 125.5375 855.04065Q123.94375 855.04065 123.17812 853.9938Q122.4125 852.9313 122.38125 850.8219L122.38125 849.1344Q122.38125 846.9469 123.13125 845.8844Q123.89687 844.8063 125.52187 844.8063Q127.13125 844.8063 127.88125 845.8375Q128.64688 846.8688 128.6625 849.0094L128.6625 850.65ZM127.39687 848.9313Q127.39687 847.3219 126.94375 846.5875Q126.50625 845.85315 125.52187 845.85315Q124.55312 845.85315 124.1 846.5875Q123.6625 847.3063 123.64687 848.8219L123.64687 850.85315Q123.64687 852.4625 124.11562 853.2438Q124.58437 854.0094 125.5375 854.0094Q126.475 854.0094 126.92812 853.29065Q127.38125 852.5563 127.39687 850.9938L127.39687 848.9313Z" fill-rule="nonzero"/><path fill="#000000" d="M112.94375 708.52L106.42812 708.52L106.42812 707.6138L109.86562 703.78564Q110.63125 702.91064 110.92812 702.3794Q111.225 701.8325 111.225 701.2388Q111.225 700.47314 110.74062 699.97314Q110.27187 699.47314 109.49062 699.47314Q108.55312 699.47314 108.02187 700.0044Q107.50625 700.53564 107.50625 701.5044L106.24062 701.5044Q106.24062 700.1294 107.11562 699.28564Q108.00625 698.4263 109.49062 698.4263Q110.88125 698.4263 111.67812 699.16064Q112.49062 699.8794 112.49062 701.09814Q112.49062 702.5669 110.61562 704.59814L107.95937 707.4888L112.94375 707.4888L112.94375 708.52ZM115.00625 703.53564L115.52187 698.5669L120.61562 698.5669L120.61562 699.7388L116.58437 699.7388L116.2875 702.4419Q117.02187 702.02 117.94375 702.02Q119.30312 702.02 120.1 702.9263Q120.9125 703.8169 120.9125 705.34814Q120.9125 706.8794 120.06875 707.77Q119.24062 708.66064 117.75625 708.66064Q116.44375 708.66064 115.6 707.9263Q114.77187 707.1919 114.64687 705.895L115.85 705.895Q115.95937 706.7544 116.44375 707.1919Q116.94375 707.6294 117.75625 707.6294Q118.63125 707.6294 119.13125 707.03564Q119.64687 706.4263 119.64687 705.3638Q119.64687 704.3638 119.1 703.77Q118.55312 703.16064 117.64687 703.16064Q116.83437 703.16064 116.35 703.52L116.02187 703.78564L115.00625 703.53564ZM128.6625 704.27Q128.6625 706.4888 127.89687 707.5825Q127.14687 708.66064 125.5375 708.66064Q123.94375 708.66064 123.17812 707.6138Q122.4125 706.5513 122.38125 704.4419L122.38125 702.7544Q122.38125 700.5669 123.13125 699.5044Q123.89687 698.4263 125.52187 698.4263Q127.13125 698.4263 127.88125 699.4575Q128.64688 700.4888 128.6625 702.6294L128.6625 704.27ZM127.39687 702.5513Q127.39687 700.9419 126.94375 700.2075Q126.50625 699.47314 125.52187 699.47314Q124.55312 699.47314 124.1 700.2075Q123.6625 700.9263 123.64687 702.4419L123.64687 704.47314Q123.64687 706.0825 124.11562 706.8638Q124.58437 707.6294 125.5375 707.6294Q126.475 707.6294 126.92812 706.91064Q127.38125 706.1763 127.39687 704.6138L127.39687 702.5513Z" fill-rule="nonzero"/><path fill="#000000" d="M107.00625 557.15564L107.52187 552.1869L112.61562 552.1869L112.61562 553.35876L108.58437 553.35876L108.2875 556.0619Q109.02187 555.64 109.94375 555.64Q111.30312 555.64 112.1 556.54626Q112.9125 557.4369 112.9125 558.96814Q112.9125 560.4994 112.06875 561.39Q111.24062 562.28064 109.75625 562.28064Q108.44375 562.28064 107.6 561.54626Q106.77187 560.8119 106.64687 559.515L107.85 559.515Q107.95937 560.3744 108.44375 560.8119Q108.94375 561.2494 109.75625 561.2494Q110.63125 561.2494 111.13125 560.65564Q111.64687 560.04626 111.64687 558.98376Q111.64687 557.98376 111.1 557.39Q110.55312 556.78064 109.64687 556.78064Q108.83437 556.78064 108.35 557.14L108.02187 557.40564L107.00625 557.15564ZM120.6625 557.89Q120.6625 560.10876 119.89687 561.2025Q119.14687 562.28064 117.5375 562.28064Q115.94375 562.28064 115.17812 561.23376Q114.4125 560.17126 114.38125 558.0619L114.38125 556.3744Q114.38125 554.1869 115.13125 553.1244Q115.89687 552.04626 117.52187 552.04626Q119.13125 552.04626 119.88125 553.0775Q120.64687 554.10876 120.6625 556.2494L120.6625 557.89ZM119.39687 556.17126Q119.39687 554.5619 118.94375 553.8275Q118.50625 553.09314 117.52187 553.09314Q116.55312 553.09314 116.1 553.8275Q115.6625 554.54626 115.64687 556.0619L115.64687 558.09314Q115.64687 559.7025 116.11562 560.48376Q116.58437 561.2494 117.5375 561.2494Q118.475 561.2494 118.92812 560.53064Q119.38125 559.79626 119.39687 558.23376L119.39687 556.17126ZM128.6625 557.89Q128.6625 560.10876 127.89687 561.2025Q127.14687 562.28064 125.5375 562.28064Q123.94375 562.28064 123.17812 561.23376Q122.4125 560.17126 122.38125 558.0619L122.38125 556.3744Q122.38125 554.1869 123.13125 553.1244Q123.89687 552.04626 125.52187 552.04626Q127.13125 552.04626 127.88125 553.0775Q128.64688 554.10876 128.6625 556.2494L128.6625 557.89ZM127.39687 556.17126Q127.39687 554.5619 126.94375 553.8275Q126.50625 553.09314 125.52187 553.09314Q124.55312 553.09314 124.1 553.8275Q123.6625 554.54626 123.64687 556.0619L123.64687 558.09314Q123.64687 559.7025 124.11562 560.48376Q124.58437 561.2494 125.5375 561.2494Q126.475 561.2494 126.92812 560.53064Q127.38125 559.79626 127.39687 558.23376L127.39687 556.17126Z" fill-rule="nonzero"/><path fill="#000000" d="M112.85 406.51L108.725 415.76L107.4125 415.76L111.50625 406.83813L106.13125 406.83813L106.13125 405.8069L112.85 405.8069L112.85 406.51ZM115.00625 410.77563L115.52187 405.8069L120.61562 405.8069L120.61562 406.97876L116.58437 406.97876L116.2875 409.6819Q117.02187 409.26 117.94375 409.26Q119.30312 409.26 120.1 410.16626Q120.9125 411.0569 120.9125 412.58813Q120.9125 414.1194 120.06875 415.01Q119.24062 415.90063 117.75625 415.90063Q116.44375 415.90063 115.6 415.16626Q114.77187 414.4319 114.64687 413.135L115.85 413.135Q115.95937 413.9944 116.44375 414.4319Q116.94375 414.8694 117.75625 414.8694Q118.63125 414.8694 119.13125 414.27563Q119.64687 413.66626 119.64687 412.60376Q119.64687 411.60376 119.1 411.01Q118.55312 410.40063 117.64687 410.40063Q116.83437 410.40063 116.35 410.76L116.02187 411.02563L115.00625 410.77563ZM128.6625 411.51Q128.6625 413.72876 127.89687 414.8225Q127.14687 415.90063 125.5375 415.90063Q123.94375 415.90063 123.17812 414.85376Q122.4125 413.79126 122.38125 411.6819L122.38125 409.9944Q122.38125 407.8069 123.13125 406.7444Q123.89687 405.66626 125.52187 405.66626Q127.13125 405.66626 127.88125 406.6975Q128.64688 407.72876 128.6625 409.8694L128.6625 411.51ZM127.39687 409.79126Q127.39687 408.1819 126.94375 407.4475Q126.50625 406.71313 125.52187 406.71313Q124.55312 406.71313 124.1 407.4475Q123.6625 408.16626 123.64687 409.6819L123.64687 411.71313Q123.64687 413.3225 124.11562 414.10376Q124.58437 414.8694 125.5375 414.8694Q126.475 414.8694 126.92812 414.15063Q127.38125 413.41626 127.39687 411.85376L127.39687 409.79126Z" fill-rule="nonzero"/><path fill="#000000" d="M102.58437 269.38L101.31875 269.38L101.31875 260.95813L98.75625 261.88L98.75625 260.73938L102.38125 259.38L102.58437 259.38L102.58437 269.38ZM112.6625 265.13Q112.6625 267.34875 111.89687 268.4425Q111.14687 269.52063 109.5375 269.52063Q107.94375 269.52063 107.17812 268.47375Q106.4125 267.41125 106.38125 265.30188L106.38125 263.61438Q106.38125 261.42688 107.13125 260.36438Q107.89687 259.28625 109.52187 259.28625Q111.13125 259.28625 111.88125 260.3175Q112.64687 261.34875 112.6625 263.48938L112.6625 265.13ZM111.39687 263.41125Q111.39687 261.80188 110.94375 261.0675Q110.50625 260.33313 109.52187 260.33313Q108.55312 260.33313 108.1 261.0675Q107.6625 261.78625 107.64687 263.30188L107.64687 265.33313Q107.64687 266.9425 108.11562 267.72375Q108.58437 268.48938 109.5375 268.48938Q110.475 268.48938 110.92812 267.77063Q111.38125 267.03625 111.39687 265.47375L111.39687 263.41125ZM120.6625 265.13Q120.6625 267.34875 119.89687 268.4425Q119.14687 269.52063 117.5375 269.52063Q115.94375 269.52063 115.17812 268.47375Q114.4125 267.41125 114.38125 265.30188L114.38125 263.61438Q114.38125 261.42688 115.13125 260.36438Q115.89687 259.28625 117.52187 259.28625Q119.13125 259.28625 119.88125 260.3175Q120.64687 261.34875 120.6625 263.48938L120.6625 265.13ZM119.39687 263.41125Q119.39687 261.80188 118.94375 261.0675Q118.50625 260.33313 117.52187 260.33313Q116.55312 260.33313 116.1 261.0675Q115.6625 261.78625 115.64687 263.30188L115.64687 265.33313Q115.64687 266.9425 116.11562 267.72375Q116.58437 268.48938 117.5375 268.48938Q118.475 268.48938 118.92812 267.77063Q119.38125 267.03625 119.39687 265.47375L119.39687 263.41125ZM128.6625 265.13Q128.6625 267.34875 127.89687 268.4425Q127.14687 269.52063 125.5375 269.52063Q123.94375 269.52063 123.17812 268.47375Q122.4125 267.41125 122.38125 265.30188L122.38125 263.61438Q122.38125 261.42688 123.13125 260.36438Q123.89687 259.28625 125.52187 259.28625Q127.13125 259.28625 127.88125 260.3175Q128.64688 261.34875 128.6625 263.48938L128.6625 265.13ZM127.39687 263.41125Q127.39687 261.80188 126.94375 261.0675Q126.50625 260.33313 125.52187 260.33313Q124.55312 260.33313 124.1 261.0675Q123.6625 261.78625 123.64687 263.30188L123.64687 265.33313Q123.64687 266.9425 124.11562 267.72375Q124.58437 268.48938 125.5375 268.48938Q126.475 268.48938 126.92812 267.77063Q127.38125 267.03625 127.39687 265.47375L127.39687 263.41125Z" fill-rule="nonzero"/><path fill="#000000" d="M102.58437 123.0L101.31875 123.0L101.31875 114.578125L98.75625 115.5L98.75625 114.359375L102.38125 113.0L102.58437 113.0L102.58437 123.0ZM112.94375 123.0L106.42812 123.0L106.42812 122.09375L109.86562 118.265625Q110.63125 117.390625 110.92812 116.859375Q111.225 116.3125 111.225 115.71875Q111.225 114.953125 110.74062 114.453125Q110.27187 113.953125 109.49062 113.953125Q108.55312 113.953125 108.02187 114.484375Q107.50625 115.015625 107.50625 115.984375L106.24062 115.984375Q106.24062 114.609375 107.11562 113.765625Q108.00625 112.90625 109.49062 112.90625Q110.88125 112.90625 111.67812 113.640625Q112.49062 114.359375 112.49062 115.578125Q112.49062 117.046875 110.61562 119.078125L107.95937 121.96875L112.94375 121.96875L112.94375 123.0ZM115.00625 118.015625L115.52187 113.046875L120.61562 113.046875L120.61562 114.21875L116.58437 114.21875L116.2875 116.921875Q117.02187 116.5 117.94375 116.5Q119.30312 116.5 120.1 117.40625Q120.9125 118.296875 120.9125 119.828125Q120.9125 121.359375 120.06875 122.25Q119.24062 123.140625 117.75625 123.140625Q116.44375 123.140625 115.6 122.40625Q114.77187 121.671875 114.64687 120.375L115.85 120.375Q115.95937 121.234375 116.44375 121.671875Q116.94375 122.109375 117.75625 122.109375Q118.63125 122.109375 119.13125 121.515625Q119.64687 120.90625 119.64687 119.84375Q119.64687 118.84375 119.1 118.25Q118.55312 117.640625 117.64687 117.640625Q116.83437 117.640625 116.35 118.0L116.02187 118.265625L115.00625 118.015625ZM128.6625 118.75Q128.6625 120.96875 127.89687 122.0625Q127.14687 123.140625 125.5375 123.140625Q123.94375 123.140625 123.17812 122.09375Q122.4125 121.03125 122.38125 118.921875L122.38125 117.234375Q122.38125 115.046875 123.13125 113.984375Q123.89687 112.90625 125.52187 112.90625Q127.13125 112.90625 127.88125 113.9375Q128.64688 114.96875 128.6625 117.109375L128.6625 118.75ZM127.39687 117.03125Q127.39687 115.421875 126.94375 114.6875Q126.50625 113.953125 125.52187 113.953125Q124.55312 113.953125 124.1 114.6875Q123.6625 115.40625 123.64687 116.921875L123.64687 118.953125Q123.64687 120.5625 124.11562 121.34375Q124.58437 122.109375 125.5375 122.109375Q126.475 122.109375 126.92812 121.390625Q127.38125 120.65625 127.39687 119.09375L127.39687 117.03125Z" fill-rule="nonzero"/><path fill="#000000" d="M264.8517 870.4L263.5861 870.4L263.5861 861.97815L261.0236 862.9L261.0236 861.7594L264.6486 860.4L264.8517 860.4L264.8517 870.4Z" fill-rule="nonzero"/><path fill="#000000" d="M455.7553 870.4L449.2397 870.4L449.2397 869.4938L452.6772 865.66565Q453.4428 864.79065 453.7397 864.2594Q454.03656 863.7125 454.03656 863.1188Q454.03656 862.35315 453.5522 861.85315Q453.08344 861.35315 452.3022 861.35315Q451.3647 861.35315 450.83344 861.8844Q450.3178 862.41565 450.3178 863.3844L449.0522 863.3844Q449.0522 862.0094 449.9272 861.16565Q450.8178 860.3063 452.3022 860.3063Q453.6928 860.3063 454.4897 861.04065Q455.3022 861.7594 455.3022 862.97815Q455.3022 864.4469 453.4272 866.47815L450.77094 869.3688L455.7553 869.3688L455.7553 870.4Z" fill-rule="nonzero"/><path fill="#000000" d="M643.1277 867.0563L644.5027 867.0563L644.5027 868.0875L643.1277 868.0875L643.1277 870.4L641.84644 870.4L641.84644 868.0875L637.3152 868.0875L637.3152 867.3375L641.7683 860.4469L643.1277 860.4469L643.1277 867.0563ZM638.7527 867.0563L641.84644 867.0563L641.84644 862.1813L641.7058 862.4469L638.7527 867.0563Z" fill-rule="nonzero"/><path fill="#000000" d="M831.2969 860.4469L831.2969 861.5094L831.0625 861.5094Q829.5781 861.54065 828.7031 862.3844Q827.8281 863.22815 827.6875 864.775Q828.4844 863.8688 829.84375 863.8688Q831.1406 863.8688 831.90625 864.79065Q832.6875 865.6969 832.6875 867.15Q832.6875 868.6969 831.84375 869.6188Q831.0156 870.54065 829.6094 870.54065Q828.1875 870.54065 827.2969 869.4469Q826.40625 868.3375 826.40625 866.6188L826.40625 866.1344Q826.40625 863.3844 827.5781 861.9313Q828.75 860.47815 831.0625 860.4469L831.2969 860.4469ZM829.625 864.9313Q828.9844 864.9313 828.4375 865.3219Q827.8906 865.6969 827.6719 866.29065L827.6719 866.7594Q827.6719 867.9938 828.21875 868.7438Q828.78125 869.4938 829.6094 869.4938Q830.46875 869.4938 830.9531 868.8688Q831.4375 868.22815 831.4375 867.2125Q831.4375 866.1813 830.9375 865.5563Q830.4531 864.9313 829.625 864.9313Z" fill-rule="nonzero"/><path fill="#000000" d="M1020.90356 863.04065Q1020.90356 863.79065 1020.51294 864.3688Q1020.1223 864.9469 1019.45044 865.275Q1020.2317 865.6188 1020.6848 866.2594Q1021.13794 866.9 1021.13794 867.7125Q1021.13794 869.0094 1020.26294 869.775Q1019.40356 870.54065 1017.9817 870.54065Q1016.5442 870.54065 1015.6692 869.775Q1014.8098 868.9938 1014.8098 867.7125Q1014.8098 866.9 1015.2473 866.2594Q1015.6848 865.60315 1016.46606 865.275Q1015.8098 864.9469 1015.4192 864.3688Q1015.0442 863.775 1015.0442 863.04065Q1015.0442 861.79065 1015.84106 861.0563Q1016.65356 860.3063 1017.9817 860.3063Q1019.2942 860.3063 1020.09106 861.0563Q1020.90356 861.79065 1020.90356 863.04065ZM1019.8723 867.6813Q1019.8723 866.85315 1019.34106 866.3375Q1018.8098 865.8063 1017.95044 865.8063Q1017.1067 865.8063 1016.59106 866.3219Q1016.07544 866.8375 1016.07544 867.6969Q1016.07544 868.54065 1016.57544 869.025Q1017.07544 869.5094 1017.9817 869.5094Q1018.8567 869.5094 1019.3567 869.025Q1019.8723 868.525 1019.8723 867.6813ZM1017.9817 861.35315Q1017.2317 861.35315 1016.76294 861.8219Q1016.3098 862.275 1016.3098 863.0719Q1016.3098 863.8219 1016.76294 864.29065Q1017.21606 864.7594 1017.96606 864.7594Q1018.7317 864.7594 1019.1848 864.29065Q1019.63794 863.8219 1019.63794 863.0719Q1019.63794 862.3063 1019.1692 861.8375Q1018.70044 861.35315 1017.9817 861.35315Z" fill-rule="nonzero"/><path fill="#000000" d="M1203.5728 870.4L1202.3071 870.4L1202.3071 861.97815L1199.7446 862.9L1199.7446 861.7594L1203.3696 860.4L1203.5728 860.4L1203.5728 870.4ZM1213.6509 866.15Q1213.6509 868.3688 1212.8853 869.4625Q1212.1353 870.54065 1210.5259 870.54065Q1208.9321 870.54065 1208.1665 869.4938Q1207.4009 868.4313 1207.3696 866.3219L1207.3696 864.6344Q1207.3696 862.4469 1208.1196 861.3844Q1208.8853 860.3063 1210.5103 860.3063Q1212.1196 860.3063 1212.8696 861.3375Q1213.6353 862.3688 1213.6509 864.5094L1213.6509 866.15ZM1212.3853 864.4313Q1212.3853 862.8219 1211.9321 862.0875Q1211.4946 861.35315 1210.5103 861.35315Q1209.5415 861.35315 1209.0884 862.0875Q1208.6509 862.8063 1208.6353 864.3219L1208.6353 866.35315Q1208.6353 867.9625 1209.104 868.7438Q1209.5728 869.5094 1210.5259 869.5094Q1211.4634 869.5094 1211.9165 868.79065Q1212.3696 868.0563 1212.3853 866.4938L1212.3853 864.4313Z" fill-rule="nonzero"/><path fill="#000000" d="M1392.1171 870.4L1390.8514 870.4L1390.8514 861.97815L1388.289 862.9L1388.289 861.7594L1391.914 860.4L1392.1171 860.4L1392.1171 870.4ZM1402.4764 870.4L1395.9608 870.4L1395.9608 869.4938L1399.3983 865.66565Q1400.164 864.79065 1400.4608 864.2594Q1400.7577 863.7125 1400.7577 863.1188Q1400.7577 862.35315 1400.2733 861.85315Q1399.8046 861.35315 1399.0233 861.35315Q1398.0858 861.35315 1397.5546 861.8844Q1397.039 862.41565 1397.039 863.3844L1395.7733 863.3844Q1395.7733 862.0094 1396.6483 861.16565Q1397.539 860.3063 1399.0233 860.3063Q1400.414 860.3063 1401.2108 861.04065Q1402.0233 861.7594 1402.0233 862.97815Q1402.0233 864.4469 1400.1483 866.47815L1397.4921 869.3688L1402.4764 869.3688L1402.4764 870.4Z" fill-rule="nonzero"/><path fill="#000000" d="M63.178123 69.36562Q62.31875 70.6 60.75625 71.225Q59.209373 71.83437 57.146873 71.83437Q55.053123 71.83437 53.428123 70.86562Q51.81875 69.88125 50.928123 68.08437Q50.053123 66.27187 50.0375 63.88125L50.0375 62.396873Q50.0375 58.5375 51.834373 56.428123Q53.63125 54.303123 56.88125 54.303123Q59.553123 54.303123 61.178123 55.678123Q62.81875 57.0375 63.178123 59.5375L60.928123 59.5375Q60.303123 56.146873 56.896873 56.146873Q54.63125 56.146873 53.459373 57.740623Q52.303123 59.334373 52.2875 62.334373L52.2875 63.740623Q52.2875 66.6 53.6 68.30312Q54.9125 69.99062 57.1625 69.99062Q58.428123 69.99062 59.365623 69.70937Q60.31875 69.42812 60.94375 68.75625L60.94375 64.92812L56.990623 64.92812L56.990623 63.1L63.178123 63.1L63.178123 69.36562ZM76.225 63.709373L68.83437 63.709373L68.83437 69.75625L77.42812 69.75625L77.42812 71.6L66.58437 71.6L66.58437 54.5375L77.30312 54.5375L77.30312 56.38125L68.83437 56.38125L68.83437 61.865623L76.225 61.865623L76.225 63.709373ZM92.36562 56.38125L86.88125 56.38125L86.88125 71.6L84.64687 71.6L84.64687 56.38125L79.17812 56.38125L79.17812 54.5375L92.36562 54.5375L92.36562 56.38125ZM112.36562 56.38125L106.88125 56.38125L106.88125 71.6L104.64687 71.6L104.64687 56.38125L99.17812 56.38125L99.17812 54.5375L112.36562 54.5375L112.36562 56.38125ZM116.4125 60.459373Q117.85 58.678123 120.1625 58.678123Q124.17812 58.678123 124.20937 63.225L124.20937 71.6L122.05312 71.6L122.05312 63.209373Q122.0375 61.834373 121.4125 61.178123Q120.80312 60.521873 119.50625 60.521873Q118.44375 60.521873 117.64687 61.084373Q116.85 61.646873 116.4125 62.56875L116.4125 71.6L114.24062 71.6L114.24062 53.6L116.4125 53.6L116.4125 60.459373ZM133.36563 60.865623Q132.88126 60.7875 132.30313 60.7875Q130.17813 60.7875 129.4125 62.6L129.4125 71.6L127.24062 71.6L127.24062 58.9125L129.35 58.9125L129.38126 60.38125Q130.45938 58.678123 132.4125 58.678123Q133.0375 58.678123 133.36563 58.85L133.36563 60.865623ZM134.6625 65.14687Q134.6625 63.271873 135.39688 61.7875Q136.13126 60.303123 137.42813 59.490623Q138.74063 58.678123 140.42813 58.678123Q143.00626 58.678123 144.6 60.475Q146.20938 62.271873 146.20938 65.24062L146.20938 65.39687Q146.20938 67.25625 145.49063 68.725Q144.7875 70.19375 143.475 71.02187Q142.1625 71.83437 140.44376 71.83437Q137.86563 71.83437 136.25626 70.0375Q134.6625 68.24062 134.6625 65.2875L134.6625 65.14687ZM136.85 65.39687Q136.85 67.50625 137.81876 68.7875Q138.80313 70.06875 140.44376 70.06875Q142.1 70.06875 143.06876 68.77187Q144.0375 67.475 144.0375 65.14687Q144.0375 63.053123 143.05313 61.75625Q142.06876 60.459373 140.42813 60.459373Q138.81876 60.459373 137.83438 61.740623Q136.85 63.021873 136.85 65.39687ZM157.06876 70.35Q155.80313 71.83437 153.35 71.83437Q151.33438 71.83437 150.27188 70.6625Q149.20938 69.475 149.19376 67.1625L149.19376 58.9125L151.36563 58.9125L151.36563 67.11562Q151.36563 69.99062 153.70938 69.99062Q156.19376 69.99062 157.00626 68.14687L157.00626 58.9125L159.17813 58.9125L159.17813 71.6L157.11563 71.6L157.06876 70.35ZM161.725 65.14687Q161.725 62.19375 163.1 60.44375Q164.475 58.678123 166.725 58.678123Q169.05313 58.678123 170.35 60.31875L170.45938 58.9125L172.44376 58.9125L172.44376 71.2875Q172.44376 73.75625 170.975 75.17812Q169.52188 76.6 167.05313 76.6Q165.69376 76.6 164.38126 76.00625Q163.06876 75.42812 162.36563 74.39687L163.49063 73.1Q164.89688 74.81875 166.9125 74.81875Q168.49063 74.81875 169.36563 73.92812Q170.25626 73.0375 170.25626 71.42812L170.25626 70.33437Q168.95938 71.83437 166.70938 71.83437Q164.475 71.83437 163.1 70.0375Q161.725 68.24062 161.725 65.14687ZM163.9125 65.39687Q163.9125 67.5375 164.7875 68.77187Q165.6625 69.99062 167.24063 69.99062Q169.30313 69.99062 170.25626 68.13125L170.25626 62.334373Q169.25626 60.521873 167.27188 60.521873Q165.69376 60.521873 164.80313 61.75625Q163.9125 62.990623 163.9125 65.39687ZM177.4125 60.459373Q178.85 58.678123 181.1625 58.678123Q185.17813 58.678123 185.20938 63.225L185.20938 71.6L183.05313 71.6L183.05313 63.209373Q183.0375 61.834373 182.4125 61.178123Q181.80313 60.521873 180.50626 60.521873Q179.44376 60.521873 178.64688 61.084373Q177.85 61.646873 177.4125 62.56875L177.4125 71.6L175.24063 71.6L175.24063 53.6L177.4125 53.6L177.4125 60.459373ZM198.95938 65.39687Q198.95938 68.2875 197.63126 70.06875Q196.30313 71.83437 194.0375 71.83437Q191.74063 71.83437 190.4125 70.36562L190.4125 76.475L188.24063 76.475L188.24063 58.9125L190.225 58.9125L190.33438 60.31875Q191.64688 58.678123 194.00626 58.678123Q196.2875 58.678123 197.61563 60.4125Q198.95938 62.13125 198.95938 65.19375L198.95938 65.39687ZM196.7875 65.14687Q196.7875 63.00625 195.86563 61.771873Q194.95938 60.521873 193.36563 60.521873Q191.39688 60.521873 190.4125 62.271873L190.4125 68.33437Q191.38126 70.06875 193.38126 70.06875Q194.94376 70.06875 195.86563 68.83437Q196.7875 67.58437 196.7875 65.14687ZM209.06876 70.35Q207.80313 71.83437 205.35 71.83437Q203.33438 71.83437 202.27188 70.6625Q201.20938 69.475 201.19376 67.1625L201.19376 58.9125L203.36563 58.9125L203.36563 67.11562Q203.36563 69.99062 205.70938 69.99062Q208.19376 69.99062 209.00626 68.14687L209.00626 58.9125L211.17813 58.9125L211.17813 71.6L209.11563 71.6L209.06876 70.35ZM217.17813 55.85L217.17813 58.9125L219.55313 58.9125L219.55313 60.6L217.17813 60.6L217.17813 68.45937Q217.17813 69.225 217.49063 69.6Q217.81876 69.975 218.58438 69.975Q218.95938 69.975 219.61563 69.83437L219.61563 71.6Q218.75626 71.83437 217.94376 71.83437Q216.49063 71.83437 215.75626 70.95937Q215.02188 70.06875 215.02188 68.45937L215.02188 60.6L212.70938 60.6L212.70938 58.9125L215.02188 58.9125L215.02188 55.85L217.17813 55.85ZM233.61563 63.990623Q230.70938 63.1625 229.39688 61.959373Q228.08438 60.740623 228.08438 58.959373Q228.08438 56.94375 229.69376 55.63125Q231.30313 54.303123 233.88126 54.303123Q235.63126 54.303123 237.00626 54.990623Q238.39688 55.6625 239.14688 56.865623Q239.89688 58.053123 239.89688 59.475L237.64688 59.475Q237.64688 57.928123 236.6625 57.0375Q235.67813 56.146873 233.88126 56.146873Q232.20938 56.146873 231.27188 56.88125Q230.35 57.615623 230.35 58.9125Q230.35 59.959373 231.225 60.678123Q232.11563 61.396873 234.24063 62.00625Q236.38126 62.6 237.56876 63.31875Q238.77188 64.0375 239.35 65.00625Q239.94376 65.95937 239.94376 67.25625Q239.94376 69.33437 238.31876 70.58437Q236.70938 71.83437 233.99063 71.83437Q232.24063 71.83437 230.70938 71.1625Q229.19376 70.49062 228.36563 69.31875Q227.5375 68.14687 227.5375 66.64687L229.80313 66.64687Q229.80313 68.19375 230.94376 69.1Q232.08438 69.99062 233.99063 69.99062Q235.77188 69.99062 236.725 69.27187Q237.67813 68.5375 237.67813 67.2875Q237.67813 66.0375 236.7875 65.35Q235.9125 64.6625 233.61563 63.990623ZM247.33438 70.06875Q248.49063 70.06875 249.35 69.36562Q250.225 68.6625 250.31876 67.6L252.36563 67.6Q252.30313 68.69375 251.61563 69.67812Q250.92813 70.6625 249.77188 71.25625Q248.61563 71.83437 247.33438 71.83437Q244.74063 71.83437 243.20938 70.11562Q241.67813 68.38125 241.67813 65.38125L241.67813 65.00625Q241.67813 63.1625 242.35 61.725Q243.0375 60.271873 244.30313 59.475Q245.58438 58.678123 247.31876 58.678123Q249.44376 58.678123 250.85 59.959373Q252.27188 61.240623 252.36563 63.271873L250.31876 63.271873Q250.225 62.053123 249.38126 61.25625Q248.55313 60.459373 247.31876 60.459373Q245.6625 60.459373 244.75626 61.6625Q243.85 62.85 243.85 65.1L243.85 65.50625Q243.85 67.69375 244.74063 68.88125Q245.64688 70.06875 247.33438 70.06875ZM263.06876 71.6Q262.88126 71.225 262.77188 70.25625Q261.25626 71.83437 259.1625 71.83437Q257.2875 71.83437 256.08438 70.77187Q254.88126 69.70937 254.88126 68.08437Q254.88126 66.1 256.38126 65.00625Q257.89688 63.9125 260.61563 63.9125L262.725 63.9125L262.725 62.9125Q262.725 61.771873 262.0375 61.1Q261.36563 60.428123 260.05313 60.428123Q258.88126 60.428123 258.1 61.021873Q257.31876 61.6 257.31876 62.428123L255.13126 62.428123Q255.13126 61.490623 255.80313 60.6Q256.49063 59.709373 257.63126 59.19375Q258.7875 58.678123 260.17813 58.678123Q262.36563 58.678123 263.6 59.7875Q264.85 60.88125 264.89688 62.803123L264.89688 68.63125Q264.89688 70.38125 265.35 71.4125L265.35 71.6L263.06876 71.6ZM259.475 69.94375Q260.49063 69.94375 261.39688 69.42812Q262.31876 68.89687 262.725 68.05312L262.725 65.44375L261.0375 65.44375Q257.05313 65.44375 257.05313 67.77187Q257.05313 68.80312 257.725 69.38125Q258.4125 69.94375 259.475 69.94375ZM270.6 71.6L268.42813 71.6L268.42813 53.6L270.6 53.6L270.6 71.6ZM282.06876 71.6Q281.88126 71.225 281.77188 70.25625Q280.25626 71.83437 278.1625 71.83437Q276.2875 71.83437 275.08438 70.77187Q273.88126 69.70937 273.88126 68.08437Q273.88126 66.1 275.38126 65.00625Q276.89688 63.9125 279.61563 63.9125L281.725 63.9125L281.725 62.9125Q281.725 61.771873 281.0375 61.1Q280.36563 60.428123 279.05313 60.428123Q277.88126 60.428123 277.1 61.021873Q276.31876 61.6 276.31876 62.428123L274.13126 62.428123Q274.13126 61.490623 274.80313 60.6Q275.49063 59.709373 276.63126 59.19375Q277.7875 58.678123 279.17813 58.678123Q281.36563 58.678123 282.6 59.7875Q283.85 60.88125 283.89688 62.803123L283.89688 68.63125Q283.89688 70.38125 284.35 71.4125L284.35 71.6L282.06876 71.6ZM278.475 69.94375Q279.49063 69.94375 280.39688 69.42812Q281.31876 68.89687 281.725 68.05312L281.725 65.44375L280.0375 65.44375Q276.05313 65.44375 276.05313 67.77187Q276.05313 68.80312 276.725 69.38125Q277.4125 69.94375 278.475 69.94375ZM297.975 65.39687Q297.975 68.30312 296.63126 70.06875Q295.30313 71.83437 293.05313 71.83437Q290.64688 71.83437 289.33438 70.13125L289.24063 71.6L287.24063 71.6L287.24063 53.6L289.4125 53.6L289.4125 60.31875Q290.725 58.678123 293.02188 58.678123Q295.33438 58.678123 296.64688 60.428123Q297.975 62.178123 297.975 65.20937L297.975 65.39687ZM295.80313 65.14687Q295.80313 62.94375 294.94376 61.740623Q294.1 60.521873 292.49063 60.521873Q290.35 60.521873 289.4125 62.521873L289.4125 68.00625Q290.4125 69.99062 292.52188 69.99062Q294.06876 69.99062 294.92813 68.7875Q295.80313 67.58437 295.80313 65.14687ZM302.6 71.6L300.42813 71.6L300.42813 58.9125L302.6 58.9125L302.6 71.6ZM300.25626 55.553123Q300.25626 55.021873 300.56876 54.6625Q300.89688 54.303123 301.52188 54.303123Q302.1625 54.303123 302.49063 54.6625Q302.81876 55.021873 302.81876 55.553123Q302.81876 56.084373 302.49063 56.44375Q302.1625 56.7875 301.52188 56.7875Q300.89688 56.7875 300.56876 56.44375Q300.25626 56.084373 300.25626 55.553123ZM308.6 71.6L306.42813 71.6L306.42813 53.6L308.6 53.6L308.6 71.6ZM314.6 71.6L312.42813 71.6L312.42813 58.9125L314.6 58.9125L314.6 71.6ZM312.25626 55.553123Q312.25626 55.021873 312.56876 54.6625Q312.89688 54.303123 313.52188 54.303123Q314.1625 54.303123 314.49063 54.6625Q314.81876 55.021873 314.81876 55.553123Q314.81876 56.084373 314.49063 56.44375Q314.1625 56.7875 313.52188 56.7875Q312.89688 56.7875 312.56876 56.44375Q312.25626 56.084373 312.25626 55.553123ZM321.17813 55.85L321.17813 58.9125L323.55313 58.9125L323.55313 60.6L321.17813 60.6L321.17813 68.45937Q321.17813 69.225 321.49063 69.6Q321.81876 69.975 322.58438 69.975Q322.95938 69.975 323.61563 69.83437L323.61563 71.6Q322.75626 71.83437 321.94376 71.83437Q320.49063 71.83437 319.75626 70.95937Q319.02188 70.06875 319.02188 68.45937L319.02188 60.6L316.70938 60.6L316.70938 58.9125L319.02188 58.9125L319.02188 55.85L321.17813 55.85ZM330.39688 68.42812L333.35 58.9125L335.6625 58.9125L330.56876 73.55312Q329.38126 76.725 326.80313 76.725L326.39688 76.69375L325.58438 76.5375L325.58438 74.77187L326.17813 74.81875Q327.27188 74.81875 327.88126 74.36562Q328.50626 73.92812 328.89688 72.75625L329.38126 71.45937L324.86563 58.9125L327.225 58.9125L330.39688 68.42812Z" fill-rule="nonzero"/></svg>