<svg version="1.1" viewBox="0.0 0.0 1571.0 972.0" fill="none" stroke="none" stroke-linecap="square" stroke-miterlimit="10" width="1571" height="972" xmlns:xlink="http://www.w3.org/1999/xlink" xmlns="http://www.w3.org/2000/svg"><path fill="#ffffff" d="M0 0L1571.0 0L1571.0 972.0L0 972.0L0 0Z" fill-rule="nonzero"/><path stroke="#333333" stroke-width="1.0" stroke-linecap="butt" d="M136.5 850.5L1522.5 850.5" fill-rule="nonzero"/><path stroke="#cccccc" stroke-width="1.0" stroke-linecap="butt" d="M136.5 667.5L1522.5 667.5" fill-rule="nonzero"/><path stroke="#cccccc" stroke-width="1.0" stroke-linecap="butt" d="M136.5 484.5L1522.5 484.5" fill-rule="nonzero"/><path stroke="#cccccc" stroke-width="1.0" stroke-linecap="butt" d="M136.5 301.5L1522.5 301.5" fill-rule="nonzero"/><path stroke="#cccccc" stroke-width="1.0" stroke-linecap="butt" d="M136.5 118.5L1522.5 118.5" fill-rule="nonzero"/><path stroke="#e6e6e6" stroke-width="1.0" stroke-linecap="butt" d="M136.5 789.5L1522.5 789.5" fill-rule="nonzero"/><path stroke="#e6e6e6" stroke-width="1.0" stroke-linecap="butt" d="M136.5 728.5L1522.5 728.5" fill-rule="nonzero"/><path stroke="#e6e6e6" stroke-width="1.0" stroke-linecap="butt" d="M136.5 606.5L1522.5 606.5" fill-rule="nonzero"/><path stroke="#e6e6e6" stroke-width="1.0" stroke-linecap="butt" d="M136.5 545.5L1522.5 545.5" fill-rule="nonzero"/><path stroke="#e6e6e6" stroke-width="1.0" stroke-linecap="butt" d="M136.5 423.5L1522.5 423.5" fill-rule="nonzero"/><path stroke="#e6e6e6" stroke-width="1.0" stroke-linecap="butt" d="M136.5 362.5L1522.5 362.5" fill-rule="nonzero"/><path stroke="#e6e6e6" stroke-width="1.0" stroke-linecap="butt" d="M136.5 240.5L1522.5 240.5" fill-rule="nonzero"/><path stroke="#e6e6e6" stroke-width="1.0" stroke-linecap="butt" d="M136.5 179.5L1522.5 179.5" fill-rule="nonzero"/><path stroke="#000000" stroke-width="1.0" stroke-linecap="butt" d="M136.5 850.5L136.5 118.5" fill-rule="nonzero"/><clipPath id="id_0"><path d="M136.6 118.5L1522.4 118.5L1522.4 850.4L136.6 850.4L136.6 118.5Z" clip-rule="nonzero"/></clipPath><path stroke="#000000" stroke-width="2.0" stroke-linecap="butt" stroke-opacity="0.0" clip-path="url(#id_0)" d="M415.0 850.0L283.0 850.0L283.0 396.0C283.0 394.89542 283.89542 394.0 285.0 394.0L413.0 394.0C414.10458 394.0 415.0 394.89542 415.0 396.0Z" fill-rule="nonzero"/><path fill="#4285f4" clip-path="url(#id_0)" d="M415.0 850.0L283.0 850.0L283.0 396.0C283.0 394.89542 283.89542 394.0 285.0 394.0L413.0 394.0C414.10458 394.0 415.0 394.89542 415.0 396.0Z" fill-rule="nonzero"/><path stroke="#000000" stroke-width="2.0" stroke-linecap="butt" stroke-opacity="0.0" clip-path="url(#id_0)" d="M829.0 850.0L697.0 850.0L697.0 439.0C697.0 437.89542 697.89545 437.0 699.0 437.0L827.0 437.0C828.10455 437.0 829.0 437.89542 829.0 439.0Z" fill-rule="nonzero"/><path fill="#4285f4" clip-path="url(#id_0)" d="M829.0 850.0L697.0 850.0L697.0 439.0C697.0 437.89542 697.89545 437.0 699.0 437.0L827.0 437.0C828.10455 437.0 829.0 437.89542 829.0 439.0Z" fill-rule="nonzero"/><path stroke="#000000" stroke-width="2.0" stroke-linecap="butt" stroke-opacity="0.0" clip-path="url(#id_0)" d="M1242.0 850.0L1110.0 850.0L1110.0 675.0C1110.0 673.89545 1110.8954 673.0 1112.0 673.0L1240.0 673.0C1241.1046 673.0 1242.0 673.89545 1242.0 675.0Z" fill-rule="nonzero"/><path fill="#4285f4" clip-path="url(#id_0)" d="M1242.0 850.0L1110.0 850.0L1110.0 675.0C1110.0 673.89545 1110.8954 673.0 1112.0 673.0L1240.0 673.0C1241.1046 673.0 1242.0 673.89545 1242.0 675.0Z" fill-rule="nonzero"/><path stroke="#000000" stroke-width="2.0" stroke-linecap="butt" stroke-opacity="0.0" clip-path="url(#id_0)" d="M549.0 850.0L417.0 850.0L417.0 240.0C417.0 238.89543 417.89542 238.0 419.0 238.0L547.0 238.0C548.10455 238.0 549.0 238.89543 549.0 240.0Z" fill-rule="nonzero"/><path fill="#ea4335" clip-path="url(#id_0)" d="M549.0 850.0L417.0 850.0L417.0 240.0C417.0 238.89543 417.89542 238.0 419.0 238.0L547.0 238.0C548.10455 238.0 549.0 238.89543 549.0 240.0Z" fill-rule="nonzero"/><path stroke="#000000" stroke-width="2.0" stroke-linecap="butt" stroke-opacity="0.0" clip-path="url(#id_0)" d="M963.0 850.0L831.0 850.0L831.0 278.0C831.0 276.89542 831.89545 276.0 833.0 276.0L961.0 276.0C962.10455 276.0 963.0 276.89542 963.0 278.0Z" fill-rule="nonzero"/><path fill="#ea4335" clip-path="url(#id_0)" d="M963.0 850.0L831.0 850.0L831.0 278.0C831.0 276.89542 831.89545 276.0 833.0 276.0L961.0 276.0C962.10455 276.0 963.0 276.89542 963.0 278.0Z" fill-rule="nonzero"/><path stroke="#000000" stroke-width="2.0" stroke-linecap="butt" stroke-opacity="0.0" clip-path="url(#id_0)" d="M1376.0 850.0L1244.0 850.0L1244.0 395.0C1244.0 393.89542 1244.8954 393.0 1246.0 393.0L1374.0 393.0C1375.1046 393.0 1376.0 393.89542 1376.0 395.0Z" fill-rule="nonzero"/><path fill="#ea4335" clip-path="url(#id_0)" d="M1376.0 850.0L1244.0 850.0L1244.0 395.0C1244.0 393.89542 1244.8954 393.0 1246.0 393.0L1374.0 393.0C1375.1046 393.0 1376.0 393.89542 1376.0 395.0Z" fill-rule="nonzero"/><path stroke="#ffffff" stroke-width="3.0" stroke-linejoin="round" stroke-linecap="round" d="M343.20312 364.31912L343.20312 365.47537L342.95312 365.47537Q341.375 365.491 340.4375 366.41287Q339.5 367.31912 339.34375 368.95975Q340.1875 367.991 341.65625 367.991Q343.04688 367.991 343.875 368.97537Q344.70312 369.95975 344.70312 371.50662Q344.70312 373.16287 343.79688 374.14725Q342.90625 375.13162 341.40625 375.13162Q339.875 375.13162 338.92188 373.95975Q337.96875 372.78787 337.96875 370.9285L337.96875 370.41287Q337.96875 367.47537 339.21875 365.91287Q340.48438 364.35037 342.96875 364.31912L343.20312 364.31912ZM341.42188 369.13162Q340.73438 369.13162 340.14062 369.5535Q339.5625 369.95975 339.32812 370.58475L339.32812 371.08475Q339.32812 372.41287 339.92188 373.22537Q340.51562 374.02225 341.40625 374.02225Q342.3125 374.02225 342.82812 373.35037Q343.35938 372.66287 343.35938 371.58475Q343.35938 370.47537 342.82812 369.8035Q342.29688 369.13162 341.42188 369.13162ZM352.875 374.991L345.89062 374.991L345.89062 374.02225L349.57812 369.91287Q350.39062 368.991 350.70312 368.41287Q351.01562 367.81912 351.01562 367.19412Q351.01562 366.366 350.51562 365.83475Q350.01562 365.28787 349.17188 365.28787Q348.15625 365.28787 347.59375 365.866Q347.03125 366.44412 347.03125 367.47537L345.6875 367.47537Q345.6875 365.991 346.625 365.08475Q347.57812 364.1785 349.17188 364.1785Q350.65625 364.1785 351.51562 364.95975Q352.39062 365.741 352.39062 367.03787Q352.39062 368.616 350.375 370.78787L347.51562 373.88162L352.875 373.88162L352.875 374.991ZM359.60938 371.41287L361.09375 371.41287L361.09375 372.52225L359.60938 372.52225L359.60938 374.991L358.25 374.991L358.25 372.52225L353.39062 372.52225L353.39062 371.70975L358.15625 364.31912L359.60938 364.31912L359.60938 371.41287ZM354.92188 371.41287L358.25 371.41287L358.25 366.1785L358.07812 366.47537L354.92188 371.41287Z" fill-rule="nonzero"/><path fill="#000000" d="M343.20312 364.31912L343.20312 365.47537L342.95312 365.47537Q341.375 365.491 340.4375 366.41287Q339.5 367.31912 339.34375 368.95975Q340.1875 367.991 341.65625 367.991Q343.04688 367.991 343.875 368.97537Q344.70312 369.95975 344.70312 371.50662Q344.70312 373.16287 343.79688 374.14725Q342.90625 375.13162 341.40625 375.13162Q339.875 375.13162 338.92188 373.95975Q337.96875 372.78787 337.96875 370.9285L337.96875 370.41287Q337.96875 367.47537 339.21875 365.91287Q340.48438 364.35037 342.96875 364.31912L343.20312 364.31912ZM341.42188 369.13162Q340.73438 369.13162 340.14062 369.5535Q339.5625 369.95975 339.32812 370.58475L339.32812 371.08475Q339.32812 372.41287 339.92188 373.22537Q340.51562 374.02225 341.40625 374.02225Q342.3125 374.02225 342.82812 373.35037Q343.35938 372.66287 343.35938 371.58475Q343.35938 370.47537 342.82812 369.8035Q342.29688 369.13162 341.42188 369.13162ZM352.875 374.991L345.89062 374.991L345.89062 374.02225L349.57812 369.91287Q350.39062 368.991 350.70312 368.41287Q351.01562 367.81912 351.01562 367.19412Q351.01562 366.366 350.51562 365.83475Q350.01562 365.28787 349.17188 365.28787Q348.15625 365.28787 347.59375 365.866Q347.03125 366.44412 347.03125 367.47537L345.6875 367.47537Q345.6875 365.991 346.625 365.08475Q347.57812 364.1785 349.17188 364.1785Q350.65625 364.1785 351.51562 364.95975Q352.39062 365.741 352.39062 367.03787Q352.39062 368.616 350.375 370.78787L347.51562 373.88162L352.875 373.88162L352.875 374.991ZM359.60938 371.41287L361.09375 371.41287L361.09375 372.52225L359.60938 372.52225L359.60938 374.991L358.25 374.991L358.25 372.52225L353.39062 372.52225L353.39062 371.70975L358.15625 364.31912L359.60938 364.31912L359.60938 371.41287ZM354.92188 371.41287L358.25 371.41287L358.25 366.1785L358.07812 366.47537L354.92188 371.41287Z" fill-rule="nonzero"/><path stroke="#ffffff" stroke-width="3.0" stroke-linejoin="round" stroke-linecap="round" d="M752.5156 412.96982L753.0469 407.6417L758.5156 407.6417L758.5156 408.90732L754.2031 408.90732L753.875 411.81357Q754.65625 411.34482 755.65625 411.34482Q757.1094 411.34482 757.96875 412.31357Q758.8281 413.2667 758.8281 414.90732Q758.8281 416.56357 757.9375 417.5167Q757.0469 418.4542 755.4531 418.4542Q754.0469 418.4542 753.1406 417.67294Q752.25 416.8917 752.125 415.50107L753.40625 415.50107Q753.53125 416.42294 754.0625 416.8917Q754.59375 417.36044 755.4531 417.36044Q756.3906 417.36044 756.9219 416.71982Q757.46875 416.06357 757.46875 414.92294Q757.46875 413.86044 756.8906 413.21982Q756.3125 412.56357 755.34375 412.56357Q754.4531 412.56357 753.9531 412.9542L753.59375 413.25107L752.5156 412.96982ZM765.2031 407.6417L765.2031 408.79794L764.9531 408.79794Q763.375 408.81357 762.4375 409.73544Q761.5 410.6417 761.34375 412.28232Q762.1875 411.31357 763.65625 411.31357Q765.0469 411.31357 765.875 412.29794Q766.7031 413.28232 766.7031 414.8292Q766.7031 416.48544 765.7969 417.46982Q764.90625 418.4542 763.40625 418.4542Q761.875 418.4542 760.9219 417.28232Q759.96875 416.11044 759.96875 414.25107L759.96875 413.73544Q759.96875 410.79794 761.21875 409.23544Q762.4844 407.67294 764.96875 407.6417L765.2031 407.6417ZM763.4219 412.4542Q762.7344 412.4542 762.1406 412.87607Q761.5625 413.28232 761.3281 413.90732L761.3281 414.40732Q761.3281 415.73544 761.9219 416.54794Q762.5156 417.34482 763.40625 417.34482Q764.3125 417.34482 764.8281 416.67294Q765.3594 415.98544 765.3594 414.90732Q765.3594 413.79794 764.8281 413.12607Q764.2969 412.4542 763.4219 412.4542ZM773.6094 414.73544L775.09375 414.73544L775.09375 415.84482L773.6094 415.84482L773.6094 418.31357L772.25 418.31357L772.25 415.84482L767.3906 415.84482L767.3906 415.03232L772.15625 407.6417L773.6094 407.6417L773.6094 414.73544ZM768.9219 414.73544L772.25 414.73544L772.25 409.50107L772.0781 409.79794L768.9219 414.73544Z" fill-rule="nonzero"/><path fill="#000000" d="M752.5156 412.96982L753.0469 407.6417L758.5156 407.6417L758.5156 408.90732L754.2031 408.90732L753.875 411.81357Q754.65625 411.34482 755.65625 411.34482Q757.1094 411.34482 757.96875 412.31357Q758.8281 413.2667 758.8281 414.90732Q758.8281 416.56357 757.9375 417.5167Q757.0469 418.4542 755.4531 418.4542Q754.0469 418.4542 753.1406 417.67294Q752.25 416.8917 752.125 415.50107L753.40625 415.50107Q753.53125 416.42294 754.0625 416.8917Q754.59375 417.36044 755.4531 417.36044Q756.3906 417.36044 756.9219 416.71982Q757.46875 416.06357 757.46875 414.92294Q757.46875 413.86044 756.8906 413.21982Q756.3125 412.56357 755.34375 412.56357Q754.4531 412.56357 753.9531 412.9542L753.59375 413.25107L752.5156 412.96982ZM765.2031 407.6417L765.2031 408.79794L764.9531 408.79794Q763.375 408.81357 762.4375 409.73544Q761.5 410.6417 761.34375 412.28232Q762.1875 411.31357 763.65625 411.31357Q765.0469 411.31357 765.875 412.29794Q766.7031 413.28232 766.7031 414.8292Q766.7031 416.48544 765.7969 417.46982Q764.90625 418.4542 763.40625 418.4542Q761.875 418.4542 760.9219 417.28232Q759.96875 416.11044 759.96875 414.25107L759.96875 413.73544Q759.96875 410.79794 761.21875 409.23544Q762.4844 407.67294 764.96875 407.6417L765.2031 407.6417ZM763.4219 412.4542Q762.7344 412.4542 762.1406 412.87607Q761.5625 413.28232 761.3281 413.90732L761.3281 414.40732Q761.3281 415.73544 761.9219 416.54794Q762.5156 417.34482 763.40625 417.34482Q764.3125 417.34482 764.8281 416.67294Q765.3594 415.98544 765.3594 414.90732Q765.3594 413.79794 764.8281 413.12607Q764.2969 412.4542 763.4219 412.4542ZM773.6094 414.73544L775.09375 414.73544L775.09375 415.84482L773.6094 415.84482L773.6094 418.31357L772.25 418.31357L772.25 415.84482L767.3906 415.84482L767.3906 415.03232L772.15625 407.6417L773.6094 407.6417L773.6094 414.73544ZM768.9219 414.73544L772.25 414.73544L772.25 409.50107L772.0781 409.79794L768.9219 414.73544Z" fill-rule="nonzero"/><path stroke="#ffffff" stroke-width="3.0" stroke-linejoin="round" stroke-linecap="round" d="M1171.875 654.25446L1164.8906 654.25446L1164.8906 653.2857L1168.5781 649.17633Q1169.3906 648.25446 1169.7031 647.67633Q1170.0156 647.0826 1170.0156 646.4576Q1170.0156 645.62946 1169.5156 645.0982Q1169.0156 644.55133 1168.1719 644.55133Q1167.1562 644.55133 1166.5938 645.12946Q1166.0312 645.7076 1166.0312 646.73883L1164.6875 646.73883Q1164.6875 645.25446 1165.625 644.3482Q1166.5781 643.44196 1168.1719 643.44196Q1169.6562 643.44196 1170.5156 644.2232Q1171.3906 645.00446 1171.3906 646.30133Q1171.3906 647.87946 1169.375 650.05133L1166.5156 653.1451L1171.875 653.1451L1171.875 654.25446ZM1178.6094 650.67633L1180.0938 650.67633L1180.0938 651.7857L1178.6094 651.7857L1178.6094 654.25446L1177.25 654.25446L1177.25 651.7857L1172.3906 651.7857L1172.3906 650.9732L1177.1562 643.5826L1178.6094 643.5826L1178.6094 650.67633ZM1173.9219 650.67633L1177.25 650.67633L1177.25 645.44196L1177.0781 645.73883L1173.9219 650.67633ZM1187.875 654.25446L1180.8906 654.25446L1180.8906 653.2857L1184.5781 649.17633Q1185.3906 648.25446 1185.7031 647.67633Q1186.0156 647.0826 1186.0156 646.4576Q1186.0156 645.62946 1185.5156 645.0982Q1185.0156 644.55133 1184.1719 644.55133Q1183.1562 644.55133 1182.5938 645.12946Q1182.0312 645.7076 1182.0312 646.73883L1180.6875 646.73883Q1180.6875 645.25446 1181.625 644.3482Q1182.5781 643.44196 1184.1719 643.44196Q1185.6562 643.44196 1186.5156 644.2232Q1187.3906 645.00446 1187.3906 646.30133Q1187.3906 647.87946 1185.375 650.05133L1182.5156 653.1451L1187.875 653.1451L1187.875 654.25446Z" fill-rule="nonzero"/><path fill="#000000" d="M1171.875 654.25446L1164.8906 654.25446L1164.8906 653.2857L1168.5781 649.17633Q1169.3906 648.25446 1169.7031 647.67633Q1170.0156 647.0826 1170.0156 646.4576Q1170.0156 645.62946 1169.5156 645.0982Q1169.0156 644.55133 1168.1719 644.55133Q1167.1562 644.55133 1166.5938 645.12946Q1166.0312 645.7076 1166.0312 646.73883L1164.6875 646.73883Q1164.6875 645.25446 1165.625 644.3482Q1166.5781 643.44196 1168.1719 643.44196Q1169.6562 643.44196 1170.5156 644.2232Q1171.3906 645.00446 1171.3906 646.30133Q1171.3906 647.87946 1169.375 650.05133L1166.5156 653.1451L1171.875 653.1451L1171.875 654.25446ZM1178.6094 650.67633L1180.0938 650.67633L1180.0938 651.7857L1178.6094 651.7857L1178.6094 654.25446L1177.25 654.25446L1177.25 651.7857L1172.3906 651.7857L1172.3906 650.9732L1177.1562 643.5826L1178.6094 643.5826L1178.6094 650.67633ZM1173.9219 650.67633L1177.25 650.67633L1177.25 645.44196L1177.0781 645.73883L1173.9219 650.67633ZM1187.875 654.25446L1180.8906 654.25446L1180.8906 653.2857L1184.5781 649.17633Q1185.3906 648.25446 1185.7031 647.67633Q1186.0156 647.0826 1186.0156 646.4576Q1186.0156 645.62946 1185.5156 645.0982Q1185.0156 644.55133 1184.1719 644.55133Q1183.1562 644.55133 1182.5938 645.12946Q1182.0312 645.7076 1182.0312 646.73883L1180.6875 646.73883Q1180.6875 645.25446 1181.625 644.3482Q1182.5781 643.44196 1184.1719 643.44196Q1185.6562 643.44196 1186.5156 644.2232Q1187.3906 645.00446 1187.3906 646.30133Q1187.3906 647.87946 1185.375 650.05133L1182.5156 653.1451L1187.875 653.1451L1187.875 654.25446Z" fill-rule="nonzero"/><path stroke="#ffffff" stroke-width="3.0" stroke-linejoin="round" stroke-linecap="round" d="M478.35938 210.68921Q478.35938 211.48608 477.9375 212.11108Q477.51562 212.72046 476.79688 213.07983Q477.625 213.43921 478.10938 214.12671Q478.60938 214.81421 478.60938 215.68921Q478.60938 217.06421 477.67188 217.89233Q476.73438 218.70483 475.21875 218.70483Q473.67188 218.70483 472.75 217.89233Q471.82812 217.06421 471.82812 215.68921Q471.82812 214.81421 472.29688 214.12671Q472.76562 213.42358 473.59375 213.06421Q472.89062 212.72046 472.46875 212.09546Q472.0625 211.47046 472.0625 210.68921Q472.0625 209.32983 472.92188 208.54858Q473.79688 207.75171 475.21875 207.75171Q476.625 207.75171 477.48438 208.54858Q478.35938 209.32983 478.35938 210.68921ZM477.25 215.65796Q477.25 214.76733 476.67188 214.20483Q476.10938 213.64233 475.1875 213.64233Q474.28125 213.64233 473.71875 214.20483Q473.17188 214.75171 473.17188 215.65796Q473.17188 216.56421 473.70312 217.09546Q474.25 217.61108 475.21875 217.61108Q476.15625 217.61108 476.70312 217.09546Q477.25 216.56421 477.25 215.65796ZM475.21875 208.86108Q474.40625 208.86108 473.90625 209.36108Q473.42188 209.86108 473.42188 210.70483Q473.42188 211.51733 473.90625 212.01733Q474.40625 212.51733 475.21875 212.51733Q476.03125 212.51733 476.51562 212.01733Q477.0 211.51733 477.0 210.70483Q477.0 209.89233 476.48438 209.37671Q475.98438 208.86108 475.21875 208.86108ZM481.85938 212.57983L482.875 212.57983Q483.82812 212.56421 484.375 212.07983Q484.9375 211.57983 484.9375 210.73608Q484.9375 208.86108 483.0625 208.86108Q482.1875 208.86108 481.65625 209.37671Q481.14062 209.87671 481.14062 210.70483L479.78125 210.70483Q479.78125 209.42358 480.70312 208.59546Q481.64062 207.75171 483.0625 207.75171Q484.57812 207.75171 485.42188 208.54858Q486.28125 209.34546 486.28125 210.76733Q486.28125 211.47046 485.82812 212.12671Q485.39062 212.76733 484.60938 213.09546Q485.48438 213.37671 485.96875 214.01733Q486.45312 214.65796 486.45312 215.59546Q486.45312 217.03296 485.51562 217.87671Q484.57812 218.70483 483.07812 218.70483Q481.57812 218.70483 480.625 217.89233Q479.6875 217.07983 479.6875 215.75171L481.04688 215.75171Q481.04688 216.59546 481.59375 217.11108Q482.15625 217.61108 483.07812 217.61108Q484.04688 217.61108 484.5625 217.09546Q485.09375 216.57983 485.09375 215.62671Q485.09375 214.68921 484.51562 214.18921Q483.95312 213.68921 482.875 213.67358L481.85938 213.67358L481.85938 212.57983ZM494.76562 208.65796L490.35938 218.56421L488.9375 218.56421L493.32812 209.01733L487.5625 209.01733L487.5625 207.89233L494.76562 207.89233L494.76562 208.65796Z" fill-rule="nonzero"/><path fill="#000000" d="M478.35938 210.68921Q478.35938 211.48608 477.9375 212.11108Q477.51562 212.72046 476.79688 213.07983Q477.625 213.43921 478.10938 214.12671Q478.60938 214.81421 478.60938 215.68921Q478.60938 217.06421 477.67188 217.89233Q476.73438 218.70483 475.21875 218.70483Q473.67188 218.70483 472.75 217.89233Q471.82812 217.06421 471.82812 215.68921Q471.82812 214.81421 472.29688 214.12671Q472.76562 213.42358 473.59375 213.06421Q472.89062 212.72046 472.46875 212.09546Q472.0625 211.47046 472.0625 210.68921Q472.0625 209.32983 472.92188 208.54858Q473.79688 207.75171 475.21875 207.75171Q476.625 207.75171 477.48438 208.54858Q478.35938 209.32983 478.35938 210.68921ZM477.25 215.65796Q477.25 214.76733 476.67188 214.20483Q476.10938 213.64233 475.1875 213.64233Q474.28125 213.64233 473.71875 214.20483Q473.17188 214.75171 473.17188 215.65796Q473.17188 216.56421 473.70312 217.09546Q474.25 217.61108 475.21875 217.61108Q476.15625 217.61108 476.70312 217.09546Q477.25 216.56421 477.25 215.65796ZM475.21875 208.86108Q474.40625 208.86108 473.90625 209.36108Q473.42188 209.86108 473.42188 210.70483Q473.42188 211.51733 473.90625 212.01733Q474.40625 212.51733 475.21875 212.51733Q476.03125 212.51733 476.51562 212.01733Q477.0 211.51733 477.0 210.70483Q477.0 209.89233 476.48438 209.37671Q475.98438 208.86108 475.21875 208.86108ZM481.85938 212.57983L482.875 212.57983Q483.82812 212.56421 484.375 212.07983Q484.9375 211.57983 484.9375 210.73608Q484.9375 208.86108 483.0625 208.86108Q482.1875 208.86108 481.65625 209.37671Q481.14062 209.87671 481.14062 210.70483L479.78125 210.70483Q479.78125 209.42358 480.70312 208.59546Q481.64062 207.75171 483.0625 207.75171Q484.57812 207.75171 485.42188 208.54858Q486.28125 209.34546 486.28125 210.76733Q486.28125 211.47046 485.82812 212.12671Q485.39062 212.76733 484.60938 213.09546Q485.48438 213.37671 485.96875 214.01733Q486.45312 214.65796 486.45312 215.59546Q486.45312 217.03296 485.51562 217.87671Q484.57812 218.70483 483.07812 218.70483Q481.57812 218.70483 480.625 217.89233Q479.6875 217.07983 479.6875 215.75171L481.04688 215.75171Q481.04688 216.59546 481.59375 217.11108Q482.15625 217.61108 483.07812 217.61108Q484.04688 217.61108 484.5625 217.09546Q485.09375 216.57983 485.09375 215.62671Q485.09375 214.68921 484.51562 214.18921Q483.95312 213.68921 482.875 213.67358L481.85938 213.67358L481.85938 212.57983ZM494.76562 208.65796L490.35938 218.56421L488.9375 218.56421L493.32812 209.01733L487.5625 209.01733L487.5625 207.89233L494.76562 207.89233L494.76562 208.65796Z" fill-rule="nonzero"/><path stroke="#ffffff" stroke-width="3.0" stroke-linejoin="round" stroke-linecap="round" d="M892.7656 247.48065L888.3594 257.3869L886.9375 257.3869L891.3281 247.84003L885.5625 247.84003L885.5625 246.71503L892.7656 246.71503L892.7656 247.48065ZM900.3594 249.5119Q900.3594 250.30878 899.9375 250.93378Q899.5156 251.54315 898.7969 251.90253Q899.625 252.2619 900.1094 252.9494Q900.6094 253.6369 900.6094 254.5119Q900.6094 255.8869 899.6719 256.71503Q898.7344 257.52753 897.21875 257.52753Q895.6719 257.52753 894.75 256.71503Q893.8281 255.8869 893.8281 254.5119Q893.8281 253.6369 894.2969 252.9494Q894.7656 252.24628 895.59375 251.8869Q894.8906 251.54315 894.46875 250.91815Q894.0625 250.29315 894.0625 249.5119Q894.0625 248.15253 894.9219 247.37128Q895.7969 246.5744 897.21875 246.5744Q898.625 246.5744 899.4844 247.37128Q900.3594 248.15253 900.3594 249.5119ZM899.25 254.48065Q899.25 253.59003 898.6719 253.02753Q898.1094 252.46503 897.1875 252.46503Q896.28125 252.46503 895.71875 253.02753Q895.1719 253.5744 895.1719 254.48065Q895.1719 255.3869 895.7031 255.91815Q896.25 256.43378 897.21875 256.43378Q898.15625 256.43378 898.7031 255.91815Q899.25 255.3869 899.25 254.48065ZM897.21875 247.68378Q896.40625 247.68378 895.90625 248.18378Q895.4219 248.68378 895.4219 249.52753Q895.4219 250.34003 895.90625 250.84003Q896.40625 251.34003 897.21875 251.34003Q898.03125 251.34003 898.5156 250.84003Q899.0 250.34003 899.0 249.52753Q899.0 248.71503 898.4844 248.1994Q897.9844 247.68378 897.21875 247.68378ZM907.6094 253.80878L909.09375 253.80878L909.09375 254.91815L907.6094 254.91815L907.6094 257.3869L906.25 257.3869L906.25 254.91815L901.3906 254.91815L901.3906 254.10565L906.15625 246.71503L907.6094 246.71503L907.6094 253.80878ZM902.9219 253.80878L906.25 253.80878L906.25 248.5744L906.0781 248.87128L902.9219 253.80878Z" fill-rule="nonzero"/><path fill="#000000" d="M892.7656 247.48065L888.3594 257.3869L886.9375 257.3869L891.3281 247.84003L885.5625 247.84003L885.5625 246.71503L892.7656 246.71503L892.7656 247.48065ZM900.3594 249.5119Q900.3594 250.30878 899.9375 250.93378Q899.5156 251.54315 898.7969 251.90253Q899.625 252.2619 900.1094 252.9494Q900.6094 253.6369 900.6094 254.5119Q900.6094 255.8869 899.6719 256.71503Q898.7344 257.52753 897.21875 257.52753Q895.6719 257.52753 894.75 256.71503Q893.8281 255.8869 893.8281 254.5119Q893.8281 253.6369 894.2969 252.9494Q894.7656 252.24628 895.59375 251.8869Q894.8906 251.54315 894.46875 250.91815Q894.0625 250.29315 894.0625 249.5119Q894.0625 248.15253 894.9219 247.37128Q895.7969 246.5744 897.21875 246.5744Q898.625 246.5744 899.4844 247.37128Q900.3594 248.15253 900.3594 249.5119ZM899.25 254.48065Q899.25 253.59003 898.6719 253.02753Q898.1094 252.46503 897.1875 252.46503Q896.28125 252.46503 895.71875 253.02753Q895.1719 253.5744 895.1719 254.48065Q895.1719 255.3869 895.7031 255.91815Q896.25 256.43378 897.21875 256.43378Q898.15625 256.43378 898.7031 255.91815Q899.25 255.3869 899.25 254.48065ZM897.21875 247.68378Q896.40625 247.68378 895.90625 248.18378Q895.4219 248.68378 895.4219 249.52753Q895.4219 250.34003 895.90625 250.84003Q896.40625 251.34003 897.21875 251.34003Q898.03125 251.34003 898.5156 250.84003Q899.0 250.34003 899.0 249.52753Q899.0 248.71503 898.4844 248.1994Q897.9844 247.68378 897.21875 247.68378ZM907.6094 253.80878L909.09375 253.80878L909.09375 254.91815L907.6094 254.91815L907.6094 257.3869L906.25 257.3869L906.25 254.91815L901.3906 254.91815L901.3906 254.10565L906.15625 246.71503L907.6094 246.71503L907.6094 253.80878ZM902.9219 253.80878L906.25 253.80878L906.25 248.5744L906.0781 248.87128L902.9219 253.80878Z" fill-rule="nonzero"/><path stroke="#ffffff" stroke-width="3.0" stroke-linejoin="round" stroke-linecap="round" d="M1304.2031 363.62903L1304.2031 364.78528L1303.9531 364.78528Q1302.375 364.8009 1301.4375 365.72278Q1300.5 366.62903 1300.3438 368.26965Q1301.1875 367.3009 1302.6562 367.3009Q1304.0469 367.3009 1304.875 368.28528Q1305.7031 369.26965 1305.7031 370.81653Q1305.7031 372.47278 1304.7969 373.45715Q1303.9062 374.44153 1302.4062 374.44153Q1300.875 374.44153 1299.9219 373.26965Q1298.9688 372.09778 1298.9688 370.2384L1298.9688 369.72278Q1298.9688 366.78528 1300.2188 365.22278Q1301.4844 363.66028 1303.9688 363.62903L1304.2031 363.62903ZM1302.4219 368.44153Q1301.7344 368.44153 1301.1406 368.8634Q1300.5625 369.26965 1300.3281 369.89465L1300.3281 370.39465Q1300.3281 371.72278 1300.9219 372.53528Q1301.5156 373.33215 1302.4062 373.33215Q1303.3125 373.33215 1303.8281 372.66028Q1304.3594 371.97278 1304.3594 370.89465Q1304.3594 369.78528 1303.8281 369.1134Q1303.2969 368.44153 1302.4219 368.44153ZM1313.875 374.3009L1306.8906 374.3009L1306.8906 373.33215L1310.5781 369.22278Q1311.3906 368.3009 1311.7031 367.72278Q1312.0156 367.12903 1312.0156 366.50403Q1312.0156 365.6759 1311.5156 365.14465Q1311.0156 364.59778 1310.1719 364.59778Q1309.1562 364.59778 1308.5938 365.1759Q1308.0312 365.75403 1308.0312 366.78528L1306.6875 366.78528Q1306.6875 365.3009 1307.625 364.39465Q1308.5781 363.4884 1310.1719 363.4884Q1311.6562 363.4884 1312.5156 364.26965Q1313.3906 365.0509 1313.3906 366.34778Q1313.3906 367.9259 1311.375 370.09778L1308.5156 373.19153L1313.875 373.19153L1313.875 374.3009ZM1315.5156 368.95715L1316.0469 363.62903L1321.5156 363.62903L1321.5156 364.89465L1317.2031 364.89465L1316.875 367.8009Q1317.6562 367.33215 1318.6562 367.33215Q1320.1094 367.33215 1320.9688 368.3009Q1321.8281 369.25403 1321.8281 370.89465Q1321.8281 372.5509 1320.9375 373.50403Q1320.0469 374.44153 1318.4531 374.44153Q1317.0469 374.44153 1316.1406 373.66028Q1315.25 372.87903 1315.125 371.4884L1316.4062 371.4884Q1316.5312 372.41028 1317.0625 372.87903Q1317.5938 373.34778 1318.4531 373.34778Q1319.3906 373.34778 1319.9219 372.70715Q1320.4688 372.0509 1320.4688 370.91028Q1320.4688 369.84778 1319.8906 369.20715Q1319.3125 368.5509 1318.3438 368.5509Q1317.4531 368.5509 1316.9531 368.94153L1316.5938 369.2384L1315.5156 368.95715Z" fill-rule="nonzero"/><path fill="#000000" d="M1304.2031 363.62903L1304.2031 364.78528L1303.9531 364.78528Q1302.375 364.8009 1301.4375 365.72278Q1300.5 366.62903 1300.3438 368.26965Q1301.1875 367.3009 1302.6562 367.3009Q1304.0469 367.3009 1304.875 368.28528Q1305.7031 369.26965 1305.7031 370.81653Q1305.7031 372.47278 1304.7969 373.45715Q1303.9062 374.44153 1302.4062 374.44153Q1300.875 374.44153 1299.9219 373.26965Q1298.9688 372.09778 1298.9688 370.2384L1298.9688 369.72278Q1298.9688 366.78528 1300.2188 365.22278Q1301.4844 363.66028 1303.9688 363.62903L1304.2031 363.62903ZM1302.4219 368.44153Q1301.7344 368.44153 1301.1406 368.8634Q1300.5625 369.26965 1300.3281 369.89465L1300.3281 370.39465Q1300.3281 371.72278 1300.9219 372.53528Q1301.5156 373.33215 1302.4062 373.33215Q1303.3125 373.33215 1303.8281 372.66028Q1304.3594 371.97278 1304.3594 370.89465Q1304.3594 369.78528 1303.8281 369.1134Q1303.2969 368.44153 1302.4219 368.44153ZM1313.875 374.3009L1306.8906 374.3009L1306.8906 373.33215L1310.5781 369.22278Q1311.3906 368.3009 1311.7031 367.72278Q1312.0156 367.12903 1312.0156 366.50403Q1312.0156 365.6759 1311.5156 365.14465Q1311.0156 364.59778 1310.1719 364.59778Q1309.1562 364.59778 1308.5938 365.1759Q1308.0312 365.75403 1308.0312 366.78528L1306.6875 366.78528Q1306.6875 365.3009 1307.625 364.39465Q1308.5781 363.4884 1310.1719 363.4884Q1311.6562 363.4884 1312.5156 364.26965Q1313.3906 365.0509 1313.3906 366.34778Q1313.3906 367.9259 1311.375 370.09778L1308.5156 373.19153L1313.875 373.19153L1313.875 374.3009ZM1315.5156 368.95715L1316.0469 363.62903L1321.5156 363.62903L1321.5156 364.89465L1317.2031 364.89465L1316.875 367.8009Q1317.6562 367.33215 1318.6562 367.33215Q1320.1094 367.33215 1320.9688 368.3009Q1321.8281 369.25403 1321.8281 370.89465Q1321.8281 372.5509 1320.9375 373.50403Q1320.0469 374.44153 1318.4531 374.44153Q1317.0469 374.44153 1316.1406 373.66028Q1315.25 372.87903 1315.125 371.4884L1316.4062 371.4884Q1316.5312 372.41028 1317.0625 372.87903Q1317.5938 373.34778 1318.4531 373.34778Q1319.3906 373.34778 1319.9219 372.70715Q1320.4688 372.0509 1320.4688 370.91028Q1320.4688 369.84778 1319.8906 369.20715Q1319.3125 368.5509 1318.3438 368.5509Q1317.4531 368.5509 1316.9531 368.94153L1316.5938 369.2384L1315.5156 368.95715Z" fill-rule="nonzero"/><path fill="#000000" d="M792.1406 918.4L792.1406 905.60315L796.0781 905.60315Q797.7656 905.60315 799.09375 906.3688Q800.4375 907.1188 801.1719 908.525Q801.9219 909.9313 801.9219 911.7125L801.9219 912.3063Q801.9219 914.0875 801.1875 915.47815Q800.4531 916.8688 799.1094 917.6344Q797.78125 918.3844 796.1094 918.4L792.1406 918.4ZM794.78125 907.7438L794.78125 916.275L796.0469 916.275Q797.59375 916.275 798.40625 915.275Q799.2344 914.2594 799.25 912.3844L799.25 911.6969Q799.25 909.7438 798.4375 908.7438Q797.6406 907.7438 796.0781 907.7438L794.78125 907.7438ZM809.4844 918.4Q809.3125 918.0563 809.2344 917.54065Q808.3125 918.5719 806.8281 918.5719Q805.4375 918.5719 804.5156 917.775Q803.59375 916.9625 803.59375 915.72815Q803.59375 914.2125 804.71875 913.41565Q805.84375 912.60315 807.9531 912.5875L809.125 912.5875L809.125 912.04065Q809.125 911.3844 808.78125 910.9938Q808.4531 910.5875 807.71875 910.5875Q807.0781 910.5875 806.7031 910.9Q806.34375 911.2125 806.34375 911.7438L803.8125 911.7438Q803.8125 910.91565 804.3125 910.2125Q804.8281 909.5094 805.75 909.1188Q806.6875 908.7125 807.8594 908.7125Q809.6094 908.7125 810.6406 909.60315Q811.6719 910.47815 811.6719 912.0875L811.6719 916.1969Q811.6875 917.5563 812.0469 918.2438L812.0469 918.4L809.4844 918.4ZM807.3906 916.6344Q807.9531 916.6344 808.4219 916.3844Q808.8906 916.1344 809.125 915.7125L809.125 914.0719L808.1719 914.0719Q806.2656 914.0719 806.1406 915.4L806.1406 915.54065Q806.1406 916.025 806.46875 916.3375Q806.8125 916.6344 807.3906 916.6344ZM817.0156 906.5563L817.0156 908.8844L818.6406 908.8844L818.6406 910.7594L817.0156 910.7594L817.0156 915.4938Q817.0156 916.025 817.21875 916.2594Q817.4219 916.47815 818.0 916.47815Q818.4219 916.47815 818.7344 916.41565L818.7344 918.35315Q818.0 918.5719 817.2031 918.5719Q814.53125 918.5719 814.4844 915.8844L814.4844 910.7594L813.09375 910.7594L813.09375 908.8844L814.4844 908.8844L814.4844 906.5563L817.0156 906.5563ZM825.4844 918.4Q825.3125 918.0563 825.2344 917.54065Q824.3125 918.5719 822.8281 918.5719Q821.4375 918.5719 820.5156 917.775Q819.59375 916.9625 819.59375 915.72815Q819.59375 914.2125 820.71875 913.41565Q821.84375 912.60315 823.9531 912.5875L825.125 912.5875L825.125 912.04065Q825.125 911.3844 824.78125 910.9938Q824.4531 910.5875 823.71875 910.5875Q823.0781 910.5875 822.7031 910.9Q822.34375 911.2125 822.34375 911.7438L819.8125 911.7438Q819.8125 910.91565 820.3125 910.2125Q820.8281 909.5094 821.75 909.1188Q822.6875 908.7125 823.8594 908.7125Q825.6094 908.7125 826.6406 909.60315Q827.6719 910.47815 827.6719 912.0875L827.6719 916.1969Q827.6875 917.5563 828.0469 918.2438L828.0469 918.4L825.4844 918.4ZM823.3906 916.6344Q823.9531 916.6344 824.4219 916.3844Q824.8906 916.1344 825.125 915.7125L825.125 914.0719L824.1719 914.0719Q822.2656 914.0719 822.1406 915.4L822.1406 915.54065Q822.1406 916.025 822.46875 916.3375Q822.8125 916.6344 823.3906 916.6344ZM840.78125 915.04065Q840.78125 914.29065 840.25 913.9Q839.71875 913.4938 838.34375 913.0563Q836.9844 912.60315 836.1875 912.1813Q834.0 910.9938 834.0 909.0094Q834.0 907.9625 834.5781 907.15Q835.1719 906.3375 836.2656 905.8844Q837.3594 905.4313 838.71875 905.4313Q840.09375 905.4313 841.15625 905.9313Q842.2344 906.41565 842.8281 907.3219Q843.4219 908.22815 843.4219 909.3844L840.78125 909.3844Q840.78125 908.5094 840.2344 908.025Q839.6875 907.525 838.6719 907.525Q837.71875 907.525 837.1719 907.9313Q836.6406 908.3375 836.6406 909.0094Q836.6406 909.6344 837.2656 910.0563Q837.8906 910.47815 839.125 910.85315Q841.375 911.525 842.3906 912.525Q843.4219 913.525 843.4219 915.025Q843.4219 916.6813 842.15625 917.6344Q840.90625 918.5719 838.78125 918.5719Q837.3125 918.5719 836.09375 918.04065Q834.875 917.4938 834.2344 916.5563Q833.6094 915.6188 833.6094 914.3688L836.25 914.3688Q836.25 916.4938 838.78125 916.4938Q839.71875 916.4938 840.25 916.1188Q840.78125 915.72815 840.78125 915.04065ZM847.65625 918.4L845.1094 918.4L845.1094 908.8844L847.65625 908.8844L847.65625 918.4ZM844.9531 906.4313Q844.9531 905.85315 845.3281 905.4938Q845.71875 905.1188 846.375 905.1188Q847.03125 905.1188 847.4219 905.4938Q847.8125 905.85315 847.8125 906.4313Q847.8125 907.0094 847.4219 907.3844Q847.03125 907.7438 846.375 907.7438Q845.7344 907.7438 845.34375 907.3844Q844.9531 907.0094 844.9531 906.4313ZM852.8906 916.35315L857.5469 916.35315L857.5469 918.4L849.65625 918.4L849.65625 916.85315L854.125 910.9469L849.78125 910.9469L849.78125 908.8844L857.40625 908.8844L857.40625 910.4L852.8906 916.35315ZM863.3594 918.5719Q861.2656 918.5719 859.9531 917.29065Q858.6406 916.0094 858.6406 913.8688L858.6406 913.6344Q858.6406 912.1969 859.1875 911.0719Q859.7344 909.9313 860.75 909.3219Q861.7656 908.7125 863.0781 908.7125Q865.0156 908.7125 866.1406 909.9469Q867.2656 911.1813 867.2656 913.4313L867.2656 914.47815L861.2031 914.47815Q861.3281 915.4 861.9531 915.9625Q862.5781 916.525 863.5156 916.525Q864.9844 916.525 865.8125 915.4625L867.0625 916.8688Q866.4844 917.66565 865.5156 918.1188Q864.5469 918.5719 863.3594 918.5719ZM863.0625 910.775Q862.3125 910.775 861.8281 911.29065Q861.3594 911.79065 861.2344 912.7438L864.7656 912.7438L864.7656 912.54065Q864.75 911.6969 864.3125 911.2438Q863.875 910.775 863.0625 910.775Z" fill-rule="nonzero"/><path fill="#000000" d="M54.943775 588.91876L54.943775 592.84064L65.60002 592.84064L65.60002 595.48126L54.943775 595.48126L54.943775 599.34064L52.80315 599.34064L52.80315 588.91876L54.943775 588.91876ZM57.131275 585.2469Q55.912525 584.23126 55.912525 582.7Q55.912525 579.60626 59.506275 579.575L65.60002 579.575L65.60002 582.10626L59.5844 582.10626Q58.756275 582.10626 58.36565 582.46564Q57.975025 582.8094 57.975025 583.6219Q57.975025 584.7469 58.8344 585.2469L65.60002 585.2469L65.60002 587.77814L52.100025 587.77814L52.100025 585.2469L57.131275 585.2469ZM58.475025 572.3875Q58.3969 572.90314 58.3969 573.29376Q58.3969 574.73126 59.381275 575.1844L65.60002 575.1844L65.60002 577.73126L56.0844 577.73126L56.0844 575.325L57.225025 575.2469Q55.912525 574.4969 55.912525 573.1375Q55.912525 572.71564 56.0219 572.34064L58.475025 572.3875ZM60.756275 571.1219Q59.3344 571.1219 58.24065 570.575Q57.131275 570.02814 56.5219 569.0125Q55.912525 567.98126 55.912525 566.6219Q55.912525 564.7 57.100025 563.48126Q58.2719 562.2625 60.287525 562.1219L60.943775 562.10626Q63.131275 562.10626 64.4594 563.34064Q65.7719 564.5594 65.7719 566.6219Q65.7719 568.66876 64.4594 569.90314Q63.131275 571.1219 60.86565 571.1219L60.756275 571.1219ZM60.943775 568.575Q62.287525 568.575 63.006275 568.075Q63.725025 567.5594 63.725025 566.60626Q63.725025 565.6844 63.0219 565.16876Q62.318775 564.65314 60.756275 564.65314Q59.42815 564.65314 58.7094 565.16876Q57.975025 565.6844 57.975025 566.6219Q57.975025 567.5594 58.7094 568.075Q59.42815 568.575 60.943775 568.575ZM64.63127 555.02814Q65.7719 555.96564 65.7719 557.6375Q65.7719 559.15314 64.8969 559.96564Q64.0219 560.7625 62.318775 560.77814L56.0844 560.77814L56.0844 558.2469L62.24065 558.2469Q63.725025 558.2469 63.725025 556.8875Q63.725025 555.60626 62.818775 555.1219L56.0844 555.1219L56.0844 552.575L65.60002 552.575L65.60002 554.96564L64.63127 555.02814ZM60.7719 551.09064Q58.5844 551.09064 57.256275 550.0594Q55.912525 549.0125 55.912525 547.2469Q55.912525 545.6844 56.99065 544.8094L56.0844 544.7L56.0844 542.40314L65.28752 542.40314Q66.53752 542.40314 67.4594 542.96564Q68.38127 543.52814 68.86565 544.5594Q69.35002 545.59064 69.35002 546.96564Q69.35002 548.0125 68.92815 549.0125Q68.50627 549.9969 67.85002 550.5125L66.30315 549.3875Q67.36565 548.4344 67.36565 547.09064Q67.36565 546.075 66.81877 545.5125Q66.28752 544.95 65.28752 544.95L64.78752 544.95Q65.7719 545.825 65.7719 547.2625Q65.7719 548.98126 64.44377 550.04376Q63.100025 551.09064 60.881275 551.09064L60.7719 551.09064ZM60.9594 548.5594Q62.256275 548.5594 62.99065 548.04376Q63.725025 547.5125 63.725025 546.60626Q63.725025 545.45 62.850025 544.95L58.850025 544.95Q57.975025 545.46564 57.975025 546.59064Q57.975025 547.5125 58.725025 548.04376Q59.475025 548.5594 60.9594 548.5594ZM57.131275 538.2469Q55.912525 537.23126 55.912525 535.7Q55.912525 532.60626 59.506275 532.575L65.60002 532.575L65.60002 535.10626L59.5844 535.10626Q58.756275 535.10626 58.36565 535.46564Q57.975025 535.8094 57.975025 536.6219Q57.975025 537.7469 58.8344 538.2469L65.60002 538.2469L65.60002 540.77814L52.100025 540.77814L52.100025 538.2469L57.131275 538.2469ZM60.92815 522.16876Q63.131275 522.16876 64.4594 523.16876Q65.7719 524.15314 65.7719 525.85626Q65.7719 527.29376 64.7719 528.1844L69.25627 528.1844L69.25627 530.73126L56.0844 530.73126L56.0844 528.3719L57.0219 528.27814Q55.912525 527.35626 55.912525 525.8719Q55.912525 524.1219 57.225025 523.15314Q58.5219 522.16876 60.80315 522.16876L60.92815 522.16876ZM60.74065 524.7Q59.42815 524.7 58.7094 525.16876Q57.975025 525.6375 57.975025 526.54376Q57.975025 527.73126 58.8969 528.1844L62.787525 528.1844Q63.725025 527.71564 63.725025 526.52814Q63.725025 524.7 60.74065 524.7ZM64.63127 515.02814Q65.7719 515.96564 65.7719 517.6375Q65.7719 519.15314 64.8969 519.96564Q64.0219 520.7625 62.318775 520.77814L56.0844 520.77814L56.0844 518.2469L62.24065 518.2469Q63.725025 518.2469 63.725025 516.8875Q63.725025 515.60626 62.818775 515.1219L56.0844 515.1219L56.0844 512.575L65.60002 512.575L65.60002 514.96564L64.63127 515.02814ZM53.756275 507.6844L56.0844 507.6844L56.0844 506.0594L57.9594 506.0594L57.9594 507.6844L62.693775 507.6844Q63.225025 507.6844 63.4594 507.48126Q63.67815 507.27814 63.67815 506.7Q63.67815 506.27814 63.61565 505.96564L65.55315 505.96564Q65.7719 506.7 65.7719 507.4969Q65.7719 510.16876 63.0844 510.21564L57.9594 510.21564L57.9594 511.60626L56.0844 511.60626L56.0844 510.21564L53.756275 510.21564L53.756275 507.6844ZM60.3969 500.60626Q58.381275 500.60626 56.568775 500.075Q54.74065 499.54376 53.350025 498.4969Q51.943775 497.45 51.3969 496.23126L52.7719 495.73126Q53.7094 497.0125 55.7094 497.73126Q57.693775 498.45 60.350025 498.45L60.61565 498.45Q63.2719 498.45 65.2719 497.7469Q67.2719 497.02814 68.25627 495.73126L69.60002 496.23126Q69.06877 497.41876 67.7094 498.45Q66.35002 499.48126 64.5844 500.02814Q62.80315 500.575 60.86565 500.60626L60.3969 500.60626ZM60.4594 490.54376L61.943775 491.91876L65.60002 491.91876L65.60002 494.5594L52.80315 494.5594L52.80315 491.91876L58.600025 491.91876L57.006275 490.7625L52.80315 487.4969L52.80315 484.2625L58.49065 488.79376L65.60002 484.1219L65.60002 487.2625L60.4594 490.54376ZM60.756275 484.1219Q59.3344 484.1219 58.24065 483.575Q57.131275 483.02814 56.5219 482.0125Q55.912525 480.98126 55.912525 479.6219Q55.912525 477.7 57.100025 476.48126Q58.2719 475.2625 60.287525 475.1219L60.943775 475.10626Q63.131275 475.10626 64.4594 476.34064Q65.7719 477.5594 65.7719 479.6219Q65.7719 481.66876 64.4594 482.90314Q63.131275 484.1219 60.86565 484.1219L60.756275 484.1219ZM60.943775 481.575Q62.287525 481.575 63.006275 481.075Q63.725025 480.5594 63.725025 479.60626Q63.725025 478.6844 63.0219 478.16876Q62.318775 477.65314 60.756275 477.65314Q59.42815 477.65314 58.7094 478.16876Q57.975025 478.6844 57.975025 479.6219Q57.975025 480.5594 58.7094 481.075Q59.42815 481.575 60.943775 481.575ZM60.92815 465.16876Q63.131275 465.16876 64.4594 466.16876Q65.7719 467.15314 65.7719 468.85626Q65.7719 470.29376 64.7719 471.1844L69.25627 471.1844L69.25627 473.73126L56.0844 473.73126L56.0844 471.3719L57.0219 471.27814Q55.912525 470.35626 55.912525 468.8719Q55.912525 467.1219 57.225025 466.15314Q58.5219 465.16876 60.80315 465.16876L60.92815 465.16876ZM60.74065 467.7Q59.42815 467.7 58.7094 468.16876Q57.975025 468.6375 57.975025 469.54376Q57.975025 470.73126 58.8969 471.1844L62.787525 471.1844Q63.725025 470.71564 63.725025 469.52814Q63.725025 467.7 60.74065 467.7ZM62.975025 458.575Q62.506275 458.575 62.24065 459.04376Q61.975025 459.4969 61.756275 460.5125Q61.05315 463.90314 58.881275 463.90314Q57.61565 463.90314 56.7719 462.85626Q55.912525 461.8094 55.912525 460.10626Q55.912525 458.29376 56.7719 457.21564Q57.61565 456.1375 58.975025 456.1375L58.975025 458.66876Q58.443775 458.66876 58.0844 459.02814Q57.725025 459.3719 57.725025 460.1219Q57.725025 460.7625 58.0219 461.1219Q58.30315 461.46564 58.756275 461.46564Q59.17815 461.46564 59.443775 461.075Q59.693775 460.66876 59.881275 459.71564Q60.068775 458.7625 60.30315 458.1219Q61.05315 456.10626 62.86565 456.10626Q64.16252 456.10626 64.97502 457.23126Q65.7719 458.34064 65.7719 460.10626Q65.7719 461.29376 65.35002 462.23126Q64.92815 463.15314 64.19377 463.6844Q63.443775 464.2 62.568775 464.2L62.568775 461.79376Q63.256275 461.7625 63.61565 461.29376Q63.975025 460.825 63.975025 460.04376Q63.975025 459.325 63.693775 458.95Q63.412525 458.575 62.975025 458.575ZM66.69377 453.91876L66.69377 455.8094L52.80315 451.10626L52.80315 449.21564L66.69377 453.91876ZM62.975025 442.575Q62.506275 442.575 62.24065 443.04376Q61.975025 443.4969 61.756275 444.5125Q61.05315 447.90314 58.881275 447.90314Q57.61565 447.90314 56.7719 446.85626Q55.912525 445.8094 55.912525 444.10626Q55.912525 442.29376 56.7719 441.21564Q57.61565 440.1375 58.975025 440.1375L58.975025 442.66876Q58.443775 442.66876 58.0844 443.02814Q57.725025 443.3719 57.725025 444.1219Q57.725025 444.7625 58.0219 445.1219Q58.30315 445.46564 58.756275 445.46564Q59.17815 445.46564 59.443775 445.075Q59.693775 444.66876 59.881275 443.71564Q60.068775 442.7625 60.30315 442.1219Q61.05315 440.10626 62.86565 440.10626Q64.16252 440.10626 64.97502 441.23126Q65.7719 442.34064 65.7719 444.10626Q65.7719 445.29376 65.35002 446.23126Q64.92815 447.15314 64.19377 447.6844Q63.443775 448.2 62.568775 448.2L62.568775 445.79376Q63.256275 445.7625 63.61565 445.29376Q63.975025 444.825 63.975025 444.04376Q63.975025 443.325 63.693775 442.95Q63.412525 442.575 62.975025 442.575ZM65.7719 434.34064Q65.7719 436.4344 64.49065 437.7469Q63.2094 439.0594 61.068775 439.0594L60.8344 439.0594Q59.3969 439.0594 58.2719 438.5125Q57.131275 437.96564 56.5219 436.95Q55.912525 435.9344 55.912525 434.6219Q55.912525 432.6844 57.1469 431.5594Q58.381275 430.4344 60.631275 430.4344L61.67815 430.4344L61.67815 436.4969Q62.600025 436.3719 63.162525 435.7469Q63.725025 435.1219 63.725025 434.1844Q63.725025 432.71564 62.662525 431.8875L64.06877 430.6375Q64.86565 431.21564 65.31877 432.1844Q65.7719 433.15314 65.7719 434.34064ZM57.975025 434.6375Q57.975025 435.3875 58.49065 435.8719Q58.99065 436.34064 59.943775 436.46564L59.943775 432.9344L59.74065 432.9344Q58.8969 432.95 58.443775 433.3875Q57.975025 433.825 57.975025 434.6375ZM63.725025 424.7625Q63.725025 424.0594 63.350025 423.6219Q62.9594 423.1844 62.318775 423.16876L62.318775 420.79376Q63.2719 420.79376 64.0844 421.325Q64.88127 421.84064 65.3344 422.7469Q65.7719 423.6375 65.7719 424.73126Q65.7719 426.7625 64.47502 427.95Q63.17815 429.1219 60.8969 429.1219L60.725025 429.1219Q58.537525 429.1219 57.225025 427.95Q55.912525 426.77814 55.912525 424.7469Q55.912525 422.96564 56.92815 421.8875Q57.943775 420.8094 59.631275 420.79376L59.631275 423.16876Q58.8969 423.1844 58.443775 423.6219Q57.975025 424.0594 57.975025 424.79376Q57.975025 425.66876 58.61565 426.1219Q59.256275 426.575 60.7094 426.575L60.975025 426.575Q62.443775 426.575 63.0844 426.1375Q63.725025 425.6844 63.725025 424.7625ZM60.756275 420.1219Q59.3344 420.1219 58.24065 419.575Q57.131275 419.02814 56.5219 418.0125Q55.912525 416.98126 55.912525 415.6219Q55.912525 413.7 57.100025 412.48126Q58.2719 411.2625 60.287525 411.1219L60.943775 411.10626Q63.131275 411.10626 64.4594 412.34064Q65.7719 413.5594 65.7719 415.6219Q65.7719 417.66876 64.4594 418.90314Q63.131275 420.1219 60.86565 420.1219L60.756275 420.1219ZM60.943775 417.575Q62.287525 417.575 63.006275 417.075Q63.725025 416.5594 63.725025 415.60626Q63.725025 414.6844 63.0219 414.16876Q62.318775 413.65314 60.756275 413.65314Q59.42815 413.65314 58.7094 414.16876Q57.975025 414.6844 57.975025 415.6219Q57.975025 416.5594 58.7094 417.075Q59.42815 417.575 60.943775 417.575ZM56.0844 407.3875L57.193775 407.3094Q55.912525 406.29376 55.912525 404.575Q55.912525 403.0594 56.80315 402.325Q57.693775 401.59064 59.4594 401.575L65.60002 401.575L65.60002 404.10626L59.5219 404.10626Q58.7094 404.10626 58.350025 404.46564Q57.975025 404.8094 57.975025 405.6219Q57.975025 406.7 58.8969 407.23126L65.60002 407.23126L65.60002 409.77814L56.0844 409.77814L56.0844 407.3875ZM60.7719 400.1219Q58.55315 400.1219 57.24065 399.1219Q55.912525 398.1219 55.912525 396.3875Q55.912525 394.9969 56.943775 394.10626L52.100025 394.10626L52.100025 391.54376L65.60002 391.54376L65.60002 393.84064L64.5844 393.96564Q65.7719 394.91876 65.7719 396.40314Q65.7719 398.09064 64.4594 399.10626Q63.131275 400.1219 60.7719 400.1219ZM60.9594 397.575Q62.287525 397.575 63.006275 397.1219Q63.725025 396.65314 63.725025 395.7625Q63.725025 394.575 62.725025 394.10626L58.975025 394.10626Q57.975025 394.575 57.975025 395.7469Q57.975025 397.575 60.9594 397.575ZM60.600025 385.34064Q62.5844 385.34064 64.42815 385.91876Q66.25627 386.4969 67.66252 387.575Q69.06877 388.6375 69.60002 389.85626L68.25627 390.34064Q67.31877 389.10626 65.36565 388.3875Q63.3969 387.65314 60.850025 387.6375L60.381275 387.6375Q57.756275 387.6375 55.756275 388.35626Q53.74065 389.0594 52.74065 390.34064L51.3969 389.85626Q51.912525 388.65314 53.287525 387.60626Q54.6469 386.54376 56.4594 385.96564Q58.256275 385.3719 60.2094 385.34064L60.600025 385.34064Z" fill-rule="nonzero"/><path fill="#000000" d="M128.6625 850.65Q128.6625 852.8688 127.89687 853.9625Q127.14687 855.04065 125.5375 855.04065Q123.94375 855.04065 123.17812 853.9938Q122.4125 852.9313 122.38125 850.8219L122.38125 849.1344Q122.38125 846.9469 123.13125 845.8844Q123.89687 844.8063 125.52187 844.8063Q127.13125 844.8063 127.88125 845.8375Q128.64688 846.8688 128.6625 849.0094L128.6625 850.65ZM127.39687 848.9313Q127.39687 847.3219 126.94375 846.5875Q126.50625 845.85315 125.52187 845.85315Q124.55312 845.85315 124.1 846.5875Q123.6625 847.3063 123.64687 848.8219L123.64687 850.85315Q123.64687 852.4625 124.11562 853.2438Q124.58437 854.0094 125.5375 854.0094Q126.475 854.0094 126.92812 853.29065Q127.38125 852.5563 127.39687 850.9938L127.39687 848.9313Z" fill-rule="nonzero"/><path fill="#000000" d="M112.94375 671.925L106.42812 671.925L106.42812 671.01874L109.86562 667.1906Q110.63125 666.3156 110.92812 665.78436Q111.225 665.2375 111.225 664.64374Q111.225 663.8781 110.74062 663.3781Q110.27187 662.8781 109.49062 662.8781Q108.55312 662.8781 108.02187 663.40936Q107.50625 663.9406 107.50625 664.90936L106.24062 664.90936Q106.24062 663.53436 107.11562 662.6906Q108.00625 661.83124 109.49062 661.83124Q110.88125 661.83124 111.67812 662.5656Q112.49062 663.28436 112.49062 664.5031Q112.49062 665.97186 110.61562 668.0031L107.95937 670.89374L112.94375 670.89374L112.94375 671.925ZM115.00625 666.9406L115.52187 661.97186L120.61562 661.97186L120.61562 663.14374L116.58437 663.14374L116.2875 665.84686Q117.02187 665.425 117.94375 665.425Q119.30312 665.425 120.1 666.33124Q120.9125 667.22186 120.9125 668.7531Q120.9125 670.28436 120.06875 671.175Q119.24062 672.0656 117.75625 672.0656Q116.44375 672.0656 115.6 671.33124Q114.77187 670.59686 114.64687 669.3L115.85 669.3Q115.95937 670.15936 116.44375 670.59686Q116.94375 671.03436 117.75625 671.03436Q118.63125 671.03436 119.13125 670.4406Q119.64687 669.83124 119.64687 668.76874Q119.64687 667.76874 119.1 667.175Q118.55312 666.5656 117.64687 666.5656Q116.83437 666.5656 116.35 666.925L116.02187 667.1906L115.00625 666.9406ZM128.6625 667.675Q128.6625 669.89374 127.89687 670.9875Q127.14687 672.0656 125.5375 672.0656Q123.94375 672.0656 123.17812 671.01874Q122.4125 669.95624 122.38125 667.84686L122.38125 666.15936Q122.38125 663.97186 123.13125 662.90936Q123.89687 661.83124 125.52187 661.83124Q127.13125 661.83124 127.88125 662.8625Q128.64688 663.89374 128.6625 666.03436L128.6625 667.675ZM127.39687 665.95624Q127.39687 664.34686 126.94375 663.6125Q126.50625 662.8781 125.52187 662.8781Q124.55312 662.8781 124.1 663.6125Q123.6625 664.33124 123.64687 665.84686L123.64687 667.8781Q123.64687 669.4875 124.11562 670.26874Q124.58437 671.03436 125.5375 671.03436Q126.475 671.03436 126.92812 670.3156Q127.38125 669.58124 127.39687 668.01874L127.39687 665.95624Z" fill-rule="nonzero"/><path fill="#000000" d="M107.00625 483.96564L107.52187 478.9969L112.61562 478.9969L112.61562 480.16876L108.58437 480.16876L108.2875 482.8719Q109.02187 482.45 109.94375 482.45Q111.30312 482.45 112.1 483.35626Q112.9125 484.2469 112.9125 485.77814Q112.9125 487.3094 112.06875 488.2Q111.24062 489.09064 109.75625 489.09064Q108.44375 489.09064 107.6 488.35626Q106.77187 487.6219 106.64687 486.325L107.85 486.325Q107.95937 487.1844 108.44375 487.6219Q108.94375 488.0594 109.75625 488.0594Q110.63125 488.0594 111.13125 487.46564Q111.64687 486.85626 111.64687 485.79376Q111.64687 484.79376 111.1 484.2Q110.55312 483.59064 109.64687 483.59064Q108.83437 483.59064 108.35 483.95L108.02187 484.21564L107.00625 483.96564ZM120.6625 484.7Q120.6625 486.91876 119.89687 488.0125Q119.14687 489.09064 117.5375 489.09064Q115.94375 489.09064 115.17812 488.04376Q114.4125 486.98126 114.38125 484.8719L114.38125 483.1844Q114.38125 480.9969 115.13125 479.9344Q115.89687 478.85626 117.52187 478.85626Q119.13125 478.85626 119.88125 479.8875Q120.64687 480.91876 120.6625 483.0594L120.6625 484.7ZM119.39687 482.98126Q119.39687 481.3719 118.94375 480.6375Q118.50625 479.90314 117.52187 479.90314Q116.55312 479.90314 116.1 480.6375Q115.6625 481.35626 115.64687 482.8719L115.64687 484.90314Q115.64687 486.5125 116.11562 487.29376Q116.58437 488.0594 117.5375 488.0594Q118.475 488.0594 118.92812 487.34064Q119.38125 486.60626 119.39687 485.04376L119.39687 482.98126ZM128.6625 484.7Q128.6625 486.91876 127.89687 488.0125Q127.14687 489.09064 125.5375 489.09064Q123.94375 489.09064 123.17812 488.04376Q122.4125 486.98126 122.38125 484.8719L122.38125 483.1844Q122.38125 480.9969 123.13125 479.9344Q123.89687 478.85626 125.52187 478.85626Q127.13125 478.85626 127.88125 479.8875Q128.64688 480.91876 128.6625 483.0594L128.6625 484.7ZM127.39687 482.98126Q127.39687 481.3719 126.94375 480.6375Q126.50625 479.90314 125.52187 479.90314Q124.55312 479.90314 124.1 480.6375Q123.6625 481.35626 123.64687 482.8719L123.64687 484.90314Q123.64687 486.5125 124.11562 487.29376Q124.58437 488.0594 125.5375 488.0594Q126.475 488.0594 126.92812 487.34064Q127.38125 486.60626 127.39687 485.04376L127.39687 482.98126Z" fill-rule="nonzero"/><path fill="#000000" d="M112.85 296.725L108.725 305.975L107.4125 305.975L111.50625 297.05313L106.13125 297.05313L106.13125 296.02188L112.85 296.02188L112.85 296.725ZM115.00625 300.99063L115.52187 296.02188L120.61562 296.02188L120.61562 297.19376L116.58437 297.19376L116.2875 299.89688Q117.02187 299.475 117.94375 299.475Q119.30312 299.475 120.1 300.38126Q120.9125 301.27188 120.9125 302.80313Q120.9125 304.33438 120.06875 305.225Q119.24062 306.11563 117.75625 306.11563Q116.44375 306.11563 115.6 305.38126Q114.77187 304.64688 114.64687 303.35L115.85 303.35Q115.95937 304.20938 116.44375 304.64688Q116.94375 305.08438 117.75625 305.08438Q118.63125 305.08438 119.13125 304.49063Q119.64687 303.88126 119.64687 302.81876Q119.64687 301.81876 119.1 301.225Q118.55312 300.61563 117.64687 300.61563Q116.83437 300.61563 116.35 300.975L116.02187 301.24063L115.00625 300.99063ZM128.6625 301.725Q128.6625 303.94376 127.89687 305.0375Q127.14687 306.11563 125.5375 306.11563Q123.94375 306.11563 123.17812 305.06876Q122.4125 304.00626 122.38125 301.89688L122.38125 300.20938Q122.38125 298.02188 123.13125 296.95938Q123.89687 295.88126 125.52187 295.88126Q127.13125 295.88126 127.88125 296.9125Q128.64688 297.94376 128.6625 300.08438L128.6625 301.725ZM127.39687 300.00626Q127.39687 298.39688 126.94375 297.6625Q126.50625 296.92813 125.52187 296.92813Q124.55312 296.92813 124.1 297.6625Q123.6625 298.38126 123.64687 299.89688L123.64687 301.92813Q123.64687 303.5375 124.11562 304.31876Q124.58437 305.08438 125.5375 305.08438Q126.475 305.08438 126.92812 304.36563Q127.38125 303.63126 127.39687 302.06876L127.39687 300.00626Z" fill-rule="nonzero"/><path fill="#000000" d="M102.58437 123.0L101.31875 123.0L101.31875 114.578125L98.75625 115.5L98.75625 114.359375L102.38125 113.0L102.58437 113.0L102.58437 123.0ZM112.6625 118.75Q112.6625 120.96875 111.89687 122.0625Q111.14687 123.140625 109.5375 123.140625Q107.94375 123.140625 107.17812 122.09375Q106.4125 121.03125 106.38125 118.921875L106.38125 117.234375Q106.38125 115.046875 107.13125 113.984375Q107.89687 112.90625 109.52187 112.90625Q111.13125 112.90625 111.88125 113.9375Q112.64687 114.96875 112.6625 117.109375L112.6625 118.75ZM111.39687 117.03125Q111.39687 115.421875 110.94375 114.6875Q110.50625 113.953125 109.52187 113.953125Q108.55312 113.953125 108.1 114.6875Q107.6625 115.40625 107.64687 116.921875L107.64687 118.953125Q107.64687 120.5625 108.11562 121.34375Q108.58437 122.109375 109.5375 122.109375Q110.475 122.109375 110.92812 121.390625Q111.38125 120.65625 111.39687 119.09375L111.39687 117.03125ZM120.6625 118.75Q120.6625 120.96875 119.89687 122.0625Q119.14687 123.140625 117.5375 123.140625Q115.94375 123.140625 115.17812 122.09375Q114.4125 121.03125 114.38125 118.921875L114.38125 117.234375Q114.38125 115.046875 115.13125 113.984375Q115.89687 112.90625 117.52187 112.90625Q119.13125 112.90625 119.88125 113.9375Q120.64687 114.96875 120.6625 117.109375L120.6625 118.75ZM119.39687 117.03125Q119.39687 115.421875 118.94375 114.6875Q118.50625 113.953125 117.52187 113.953125Q116.55312 113.953125 116.1 114.6875Q115.6625 115.40625 115.64687 116.921875L115.64687 118.953125Q115.64687 120.5625 116.11562 121.34375Q116.58437 122.109375 117.5375 122.109375Q118.475 122.109375 118.92812 121.390625Q119.38125 120.65625 119.39687 119.09375L119.39687 117.03125ZM128.6625 118.75Q128.6625 120.96875 127.89687 122.0625Q127.14687 123.140625 125.5375 123.140625Q123.94375 123.140625 123.17812 122.09375Q122.4125 121.03125 122.38125 118.921875L122.38125 117.234375Q122.38125 115.046875 123.13125 113.984375Q123.89687 112.90625 125.52187 112.90625Q127.13125 112.90625 127.88125 113.9375Q128.64688 114.96875 128.6625 117.109375L128.6625 118.75ZM127.39687 117.03125Q127.39687 115.421875 126.94375 114.6875Q126.50625 113.953125 125.52187 113.953125Q124.55312 113.953125 124.1 114.6875Q123.6625 115.40625 123.64687 116.921875L123.64687 118.953125Q123.64687 120.5625 124.11562 121.34375Q124.58437 122.109375 125.5375 122.109375Q126.475 122.109375 126.92812 121.390625Q127.38125 120.65625 127.39687 119.09375L127.39687 117.03125Z" fill-rule="nonzero"/><path fill="#000000" d="M418.68774 863.04065Q418.68774 863.79065 418.29712 864.3688Q417.9065 864.9469 417.23462 865.275Q418.01587 865.6188 418.469 866.2594Q418.92212 866.9 418.92212 867.7125Q418.92212 869.0094 418.04712 869.775Q417.18774 870.54065 415.76587 870.54065Q414.32837 870.54065 413.45337 869.775Q412.594 868.9938 412.594 867.7125Q412.594 866.9 413.0315 866.2594Q413.469 865.60315 414.25024 865.275Q413.594 864.9469 413.20337 864.3688Q412.82837 863.775 412.82837 863.04065Q412.82837 861.79065 413.62524 861.0563Q414.43774 860.3063 415.76587 860.3063Q417.07837 860.3063 417.87524 861.0563Q418.68774 861.79065 418.68774 863.04065ZM417.6565 867.6813Q417.6565 866.85315 417.12524 866.3375Q416.594 865.8063 415.73462 865.8063Q414.89087 865.8063 414.37524 866.3219Q413.85962 866.8375 413.85962 867.6969Q413.85962 868.54065 414.35962 869.025Q414.85962 869.5094 415.76587 869.5094Q416.64087 869.5094 417.14087 869.025Q417.6565 868.525 417.6565 867.6813ZM415.76587 861.35315Q415.01587 861.35315 414.54712 861.8219Q414.094 862.275 414.094 863.0719Q414.094 863.8219 414.54712 864.29065Q415.00024 864.7594 415.75024 864.7594Q416.51587 864.7594 416.969 864.29065Q417.42212 863.8219 417.42212 863.0719Q417.42212 862.3063 416.95337 861.8375Q416.48462 861.35315 415.76587 861.35315Z" fill-rule="nonzero"/><path fill="#000000" d="M822.4844 870.4L821.21875 870.4L821.21875 861.97815L818.65625 862.9L818.65625 861.7594L822.28125 860.4L822.4844 860.4L822.4844 870.4ZM832.84375 870.4L826.3281 870.4L826.3281 869.4938L829.7656 865.66565Q830.53125 864.79065 830.8281 864.2594Q831.125 863.7125 831.125 863.1188Q831.125 862.35315 830.6406 861.85315Q830.1719 861.35315 829.3906 861.35315Q828.4531 861.35315 827.9219 861.8844Q827.40625 862.41565 827.40625 863.3844L826.1406 863.3844Q826.1406 862.0094 827.0156 861.16565Q827.90625 860.3063 829.3906 860.3063Q830.78125 860.3063 831.5781 861.04065Q832.3906 861.7594 832.3906 862.97815Q832.3906 864.4469 830.5156 866.47815L827.8594 869.3688L832.84375 869.3688L832.84375 870.4ZM840.3594 863.04065Q840.3594 863.79065 839.96875 864.3688Q839.5781 864.9469 838.90625 865.275Q839.6875 865.6188 840.1406 866.2594Q840.59375 866.9 840.59375 867.7125Q840.59375 869.0094 839.71875 869.775Q838.8594 870.54065 837.4375 870.54065Q836.0 870.54065 835.125 869.775Q834.2656 868.9938 834.2656 867.7125Q834.2656 866.9 834.7031 866.2594Q835.1406 865.60315 835.9219 865.275Q835.2656 864.9469 834.875 864.3688Q834.5 863.775 834.5 863.04065Q834.5 861.79065 835.2969 861.0563Q836.1094 860.3063 837.4375 860.3063Q838.75 860.3063 839.5469 861.0563Q840.3594 861.79065 840.3594 863.04065ZM839.3281 867.6813Q839.3281 866.85315 838.7969 866.3375Q838.2656 865.8063 837.40625 865.8063Q836.5625 865.8063 836.0469 866.3219Q835.53125 866.8375 835.53125 867.6969Q835.53125 868.54065 836.03125 869.025Q836.53125 869.5094 837.4375 869.5094Q838.3125 869.5094 838.8125 869.025Q839.3281 868.525 839.3281 867.6813ZM837.4375 861.35315Q836.6875 861.35315 836.21875 861.8219Q835.7656 862.275 835.7656 863.0719Q835.7656 863.8219 836.21875 864.29065Q836.6719 864.7594 837.4219 864.7594Q838.1875 864.7594 838.6406 864.29065Q839.09375 863.8219 839.09375 863.0719Q839.09375 862.3063 838.625 861.8375Q838.15625 861.35315 837.4375 861.35315Z" fill-rule="nonzero"/><path fill="#000000" d="M1234.5154 870.4L1227.9998 870.4L1227.9998 869.4938L1231.4373 865.66565Q1232.2029 864.79065 1232.4998 864.2594Q1232.7966 863.7125 1232.7966 863.1188Q1232.7966 862.35315 1232.3123 861.85315Q1231.8435 861.35315 1231.0623 861.35315Q1230.1248 861.35315 1229.5935 861.8844Q1229.0779 862.41565 1229.0779 863.3844L1227.8123 863.3844Q1227.8123 862.0094 1228.6873 861.16565Q1229.5779 860.3063 1231.0623 860.3063Q1232.4529 860.3063 1233.2498 861.04065Q1234.0623 861.7594 1234.0623 862.97815Q1234.0623 864.4469 1232.1873 866.47815L1229.531 869.3688L1234.5154 869.3688L1234.5154 870.4ZM1242.2341 866.15Q1242.2341 868.3688 1241.4685 869.4625Q1240.7185 870.54065 1239.1091 870.54065Q1237.5154 870.54065 1236.7498 869.4938Q1235.9841 868.4313 1235.9529 866.3219L1235.9529 864.6344Q1235.9529 862.4469 1236.7029 861.3844Q1237.4685 860.3063 1239.0935 860.3063Q1240.7029 860.3063 1241.4529 861.3375Q1242.2185 862.3688 1242.2341 864.5094L1242.2341 866.15ZM1240.9685 864.4313Q1240.9685 862.8219 1240.5154 862.0875Q1240.0779 861.35315 1239.0935 861.35315Q1238.1248 861.35315 1237.6716 862.0875Q1237.2341 862.8063 1237.2185 864.3219L1237.2185 866.35315Q1237.2185 867.9625 1237.6873 868.7438Q1238.156 869.5094 1239.1091 869.5094Q1240.0466 869.5094 1240.4998 868.79065Q1240.9529 868.0563 1240.9685 866.4938L1240.9685 864.4313ZM1249.3435 867.0563L1250.7185 867.0563L1250.7185 868.0875L1249.3435 868.0875L1249.3435 870.4L1248.0623 870.4L1248.0623 868.0875L1243.531 868.0875L1243.531 867.3375L1247.9841 860.4469L1249.3435 860.4469L1249.3435 867.0563ZM1244.9685 867.0563L1248.0623 867.0563L1248.0623 862.1813L1247.9216 862.4469L1244.9685 867.0563ZM1258.031 863.04065Q1258.031 863.79065 1257.6404 864.3688Q1257.2498 864.9469 1256.5779 865.275Q1257.3591 865.6188 1257.8123 866.2594Q1258.2654 866.9 1258.2654 867.7125Q1258.2654 869.0094 1257.3904 869.775Q1256.531 870.54065 1255.1091 870.54065Q1253.6716 870.54065 1252.7966 869.775Q1251.9373 868.9938 1251.9373 867.7125Q1251.9373 866.9 1252.3748 866.2594Q1252.8123 865.60315 1253.5935 865.275Q1252.9373 864.9469 1252.5466 864.3688Q1252.1716 863.775 1252.1716 863.04065Q1252.1716 861.79065 1252.9685 861.0563Q1253.781 860.3063 1255.1091 860.3063Q1256.4216 860.3063 1257.2185 861.0563Q1258.031 861.79065 1258.031 863.04065ZM1256.9998 867.6813Q1256.9998 866.85315 1256.4685 866.3375Q1255.9373 865.8063 1255.0779 865.8063Q1254.2341 865.8063 1253.7185 866.3219Q1253.2029 866.8375 1253.2029 867.6969Q1253.2029 868.54065 1253.7029 869.025Q1254.2029 869.5094 1255.1091 869.5094Q1255.9841 869.5094 1256.4841 869.025Q1256.9998 868.525 1256.9998 867.6813ZM1255.1091 861.35315Q1254.3591 861.35315 1253.8904 861.8219Q1253.4373 862.275 1253.4373 863.0719Q1253.4373 863.8219 1253.8904 864.29065Q1254.3435 864.7594 1255.0935 864.7594Q1255.8591 864.7594 1256.3123 864.29065Q1256.7654 863.8219 1256.7654 863.0719Q1256.7654 862.3063 1256.2966 861.8375Q1255.8279 861.35315 1255.1091 861.35315Z" fill-rule="nonzero"/><path fill="#4285f4" d="M727.0 130.5C727.0 129.94771 727.4477 129.5 728.0 129.5L738.0 129.5C738.5523 129.5 739.0 129.94771 739.0 130.5L739.0 140.5C739.0 141.05229 738.5523 141.5 738.0 141.5L728.0 141.5C727.4477 141.5 727.0 141.05229 727.0 140.5Z" fill-rule="nonzero"/><path stroke="#ffffff" stroke-width="3.0" stroke-linejoin="round" stroke-linecap="round" d="M751.09375 135.5625Q749.40625 135.07812 748.625 134.375Q747.8594 133.65625 747.8594 132.625Q747.8594 131.45312 748.7969 130.6875Q749.7344 129.90625 751.25 129.90625Q752.2656 129.90625 753.0625 130.3125Q753.875 130.70312 754.3125 131.40625Q754.7656 132.09375 754.7656 132.92188L753.4375 132.92188Q753.4375 132.01562 752.8594 131.5Q752.2969 130.98438 751.25 130.98438Q750.28125 130.98438 749.7344 131.42188Q749.1875 131.84375 749.1875 132.60938Q749.1875 133.21875 749.7031 133.64062Q750.21875 134.04688 751.4531 134.40625Q752.7031 134.75 753.40625 135.17188Q754.1094 135.59375 754.4375 136.15625Q754.78125 136.71875 754.78125 137.46875Q754.78125 138.6875 753.8281 139.42188Q752.8906 140.14062 751.3125 140.14062Q750.28125 140.14062 749.3906 139.75Q748.5156 139.34375 748.03125 138.67188Q747.5469 137.98438 747.5469 137.10938L748.8594 137.10938Q748.8594 138.01562 749.53125 138.54688Q750.2031 139.0625 751.3125 139.0625Q752.3594 139.0625 752.90625 138.64062Q753.4531 138.21875 753.4531 137.48438Q753.4531 136.75 752.9375 136.35938Q752.4375 135.95312 751.09375 135.5625ZM761.78125 135.40625L757.46875 135.40625L757.46875 138.92188L762.4844 138.92188L762.4844 140.0L756.15625 140.0L756.15625 130.04688L762.40625 130.04688L762.40625 131.125L757.46875 131.125L757.46875 134.32812L761.78125 134.32812L761.78125 135.40625ZM771.03125 131.125L767.8281 131.125L767.8281 140.0L766.53125 140.0L766.53125 131.125L763.3281 131.125L763.3281 130.04688L771.03125 130.04688L771.03125 131.125Z" fill-rule="nonzero"/><path fill="#1a1a1a" d="M751.09375 135.5625Q749.40625 135.07812 748.625 134.375Q747.8594 133.65625 747.8594 132.625Q747.8594 131.45312 748.7969 130.6875Q749.7344 129.90625 751.25 129.90625Q752.2656 129.90625 753.0625 130.3125Q753.875 130.70312 754.3125 131.40625Q754.7656 132.09375 754.7656 132.92188L753.4375 132.92188Q753.4375 132.01562 752.8594 131.5Q752.2969 130.98438 751.25 130.98438Q750.28125 130.98438 749.7344 131.42188Q749.1875 131.84375 749.1875 132.60938Q749.1875 133.21875 749.7031 133.64062Q750.21875 134.04688 751.4531 134.40625Q752.7031 134.75 753.40625 135.17188Q754.1094 135.59375 754.4375 136.15625Q754.78125 136.71875 754.78125 137.46875Q754.78125 138.6875 753.8281 139.42188Q752.8906 140.14062 751.3125 140.14062Q750.28125 140.14062 749.3906 139.75Q748.5156 139.34375 748.03125 138.67188Q747.5469 137.98438 747.5469 137.10938L748.8594 137.10938Q748.8594 138.01562 749.53125 138.54688Q750.2031 139.0625 751.3125 139.0625Q752.3594 139.0625 752.90625 138.64062Q753.4531 138.21875 753.4531 137.48438Q753.4531 136.75 752.9375 136.35938Q752.4375 135.95312 751.09375 135.5625ZM761.78125 135.40625L757.46875 135.40625L757.46875 138.92188L762.4844 138.92188L762.4844 140.0L756.15625 140.0L756.15625 130.04688L762.40625 130.04688L762.40625 131.125L757.46875 131.125L757.46875 134.32812L761.78125 134.32812L761.78125 135.40625ZM771.03125 131.125L767.8281 131.125L767.8281 140.0L766.53125 140.0L766.53125 131.125L763.3281 131.125L763.3281 130.04688L771.03125 130.04688L771.03125 131.125Z" fill-rule="nonzero"/><path fill="#ea4335" d="M787.0 130.5C787.0 129.94771 787.4477 129.5 788.0 129.5L798.0 129.5C798.5523 129.5 799.0 129.94771 799.0 130.5L799.0 140.5C799.0 141.05229 798.5523 141.5 798.0 141.5L788.0 141.5C787.4477 141.5 787.0 141.05229 787.0 140.5Z" fill-rule="nonzero"/><path stroke="#ffffff" stroke-width="3.0" stroke-linejoin="round" stroke-linecap="round" d="M809.84375 130.04688L813.1094 138.17188L816.3594 130.04688L818.0625 130.04688L818.0625 140.0L816.75 140.0L816.75 136.125L816.875 131.9375L813.6094 140.0L812.59375 140.0L809.34375 131.95312L809.46875 136.125L809.46875 140.0L808.15625 140.0L808.15625 130.04688L809.84375 130.04688ZM821.3281 140.0L820.0625 140.0L820.0625 132.60938L821.3281 132.60938L821.3281 140.0ZM819.96875 130.64062Q819.96875 130.32812 820.15625 130.125Q820.34375 129.90625 820.7031 129.90625Q821.0781 129.90625 821.2656 130.125Q821.46875 130.32812 821.46875 130.64062Q821.46875 130.95312 821.2656 131.15625Q821.0781 131.35938 820.7031 131.35938Q820.34375 131.35938 820.15625 131.15625Q819.96875 130.95312 819.96875 130.64062ZM825.4375 135.29688L827.0781 132.60938L828.5625 132.60938L826.1406 136.26562L828.625 140.0L827.1719 140.0L825.4531 137.23438L823.75 140.0L822.28125 140.0L824.78125 136.26562L822.3594 132.60938L823.8125 132.60938L825.4375 135.29688ZM833.03125 140.14062Q831.5156 140.14062 830.5781 139.15625Q829.6406 138.15625 829.6406 136.5L829.6406 136.28125Q829.6406 135.17188 830.0625 134.3125Q830.4844 133.4375 831.2344 132.95312Q831.9844 132.46875 832.875 132.46875Q834.3125 132.46875 835.1094 133.42188Q835.90625 134.35938 835.90625 136.14062L835.90625 136.65625L830.90625 136.65625Q830.9219 137.75 831.53125 138.4375Q832.15625 139.10938 833.09375 139.10938Q833.7656 139.10938 834.21875 138.84375Q834.6875 138.5625 835.0469 138.10938L835.8125 138.70312Q834.8906 140.14062 833.03125 140.14062ZM832.875 133.5Q832.1094 133.5 831.5781 134.0625Q831.0625 134.625 830.9375 135.625L834.6406 135.625L834.6406 135.53125Q834.59375 134.5625 834.125 134.03125Q833.65625 133.5 832.875 133.5ZM836.65625 136.23438Q836.65625 134.53125 837.4531 133.5Q838.2656 132.46875 839.5625 132.46875Q840.875 132.46875 841.625 133.35938L841.625 129.5L842.8906 129.5L842.8906 140.0L841.7344 140.0L841.6719 139.20312Q840.90625 140.14062 839.5625 140.14062Q838.2656 140.14062 837.4531 139.09375Q836.65625 138.03125 836.65625 136.32812L836.65625 136.23438ZM837.9219 136.39062Q837.9219 137.64062 838.4375 138.35938Q838.9531 139.0625 839.875 139.0625Q841.0781 139.0625 841.625 137.98438L841.625 134.57812Q841.0625 133.54688 839.8906 133.54688Q838.9531 133.54688 838.4375 134.26562Q837.9219 134.96875 837.9219 136.39062Z" fill-rule="nonzero"/><path fill="#1a1a1a" d="M809.84375 130.04688L813.1094 138.17188L816.3594 130.04688L818.0625 130.04688L818.0625 140.0L816.75 140.0L816.75 136.125L816.875 131.9375L813.6094 140.0L812.59375 140.0L809.34375 131.95312L809.46875 136.125L809.46875 140.0L808.15625 140.0L808.15625 130.04688L809.84375 130.04688ZM821.3281 140.0L820.0625 140.0L820.0625 132.60938L821.3281 132.60938L821.3281 140.0ZM819.96875 130.64062Q819.96875 130.32812 820.15625 130.125Q820.34375 129.90625 820.7031 129.90625Q821.0781 129.90625 821.2656 130.125Q821.46875 130.32812 821.46875 130.64062Q821.46875 130.95312 821.2656 131.15625Q821.0781 131.35938 820.7031 131.35938Q820.34375 131.35938 820.15625 131.15625Q819.96875 130.95312 819.96875 130.64062ZM825.4375 135.29688L827.0781 132.60938L828.5625 132.60938L826.1406 136.26562L828.625 140.0L827.1719 140.0L825.4531 137.23438L823.75 140.0L822.28125 140.0L824.78125 136.26562L822.3594 132.60938L823.8125 132.60938L825.4375 135.29688ZM833.03125 140.14062Q831.5156 140.14062 830.5781 139.15625Q829.6406 138.15625 829.6406 136.5L829.6406 136.28125Q829.6406 135.17188 830.0625 134.3125Q830.4844 133.4375 831.2344 132.95312Q831.9844 132.46875 832.875 132.46875Q834.3125 132.46875 835.1094 133.42188Q835.90625 134.35938 835.90625 136.14062L835.90625 136.65625L830.90625 136.65625Q830.9219 137.75 831.53125 138.4375Q832.15625 139.10938 833.09375 139.10938Q833.7656 139.10938 834.21875 138.84375Q834.6875 138.5625 835.0469 138.10938L835.8125 138.70312Q834.8906 140.14062 833.03125 140.14062ZM832.875 133.5Q832.1094 133.5 831.5781 134.0625Q831.0625 134.625 830.9375 135.625L834.6406 135.625L834.6406 135.53125Q834.59375 134.5625 834.125 134.03125Q833.65625 133.5 832.875 133.5ZM836.65625 136.23438Q836.65625 134.53125 837.4531 133.5Q838.2656 132.46875 839.5625 132.46875Q840.875 132.46875 841.625 133.35938L841.625 129.5L842.8906 129.5L842.8906 140.0L841.7344 140.0L841.6719 139.20312Q840.90625 140.14062 839.5625 140.14062Q838.2656 140.14062 837.4531 139.09375Q836.65625 138.03125 836.65625 136.32812L836.65625 136.23438ZM837.9219 136.39062Q837.9219 137.64062 838.4375 138.35938Q838.9531 139.0625 839.875 139.0625Q841.0781 139.0625 841.625 137.98438L841.625 134.57812Q841.0625 133.54688 839.8906 133.54688Q838.9531 133.54688 838.4375 134.26562Q837.9219 134.96875 837.9219 136.39062Z" fill-rule="nonzero"/><path fill="#000000" d="M55.615623 63.990623Q52.709373 63.1625 51.396873 61.959373Q50.084373 60.740623 50.084373 58.959373Q50.084373 56.94375 51.69375 55.63125Q53.303123 54.303123 55.88125 54.303123Q57.63125 54.303123 59.00625 54.990623Q60.396873 55.6625 61.146873 56.865623Q61.896873 58.053123 61.896873 59.475L59.646873 59.475Q59.646873 57.928123 58.6625 57.0375Q57.678123 56.146873 55.88125 56.146873Q54.209373 56.146873 53.271873 56.88125Q52.35 57.615623 52.35 58.9125Q52.35 59.959373 53.225 60.678123Q54.115623 61.396873 56.240623 62.00625Q58.38125 62.6 59.56875 63.31875Q60.771873 64.0375 61.35 65.00625Q61.94375 65.95937 61.94375 67.25625Q61.94375 69.33437 60.31875 70.58437Q58.709373 71.83437 55.990623 71.83437Q54.240623 71.83437 52.709373 71.1625Q51.19375 70.49062 50.365623 69.31875Q49.5375 68.14687 49.5375 66.64687L51.803123 66.64687Q51.803123 68.19375 52.94375 69.1Q54.084373 69.99062 55.990623 69.99062Q57.771873 69.99062 58.725 69.27187Q59.678123 68.5375 59.678123 67.2875Q59.678123 66.0375 58.7875 65.35Q57.9125 64.6625 55.615623 63.990623ZM74.225 63.709373L66.83437 63.709373L66.83437 69.75625L75.42812 69.75625L75.42812 71.6L64.58437 71.6L64.58437 54.5375L75.30312 54.5375L75.30312 56.38125L66.83437 56.38125L66.83437 61.865623L74.225 61.865623L74.225 63.709373ZM90.36562 56.38125L84.88125 56.38125L84.88125 71.6L82.64687 71.6L82.64687 56.38125L77.17812 56.38125L77.17812 54.5375L90.36562 54.5375L90.36562 56.38125ZM92.67812 73.06875L90.81875 73.06875L97.94375 54.5375L99.7875 54.5375L92.67812 73.06875ZM105.49062 54.5375L111.06875 68.45937L116.64687 54.5375L119.56875 54.5375L119.56875 71.6L117.31875 71.6L117.31875 64.95937L117.52187 57.7875L111.92812 71.6L110.19375 71.6L104.61562 57.81875L104.83437 64.95937L104.83437 71.6L102.58437 71.6L102.58437 54.5375L105.49062 54.5375ZM125.6 71.6L123.42812 71.6L123.42812 58.9125L125.6 58.9125L125.6 71.6ZM123.25625 55.553123Q123.25625 55.021873 123.56875 54.6625Q123.89687 54.303123 124.52187 54.303123Q125.1625 54.303123 125.49062 54.6625Q125.81875 55.021873 125.81875 55.553123Q125.81875 56.084373 125.49062 56.44375Q125.1625 56.7875 124.52187 56.7875Q123.89687 56.7875 123.56875 56.44375Q123.25625 56.084373 123.25625 55.553123ZM133.49063 63.553123L136.30313 58.9125L138.83438 58.9125L134.69376 65.19375L138.975 71.6L136.45938 71.6L133.5375 66.85L130.6 71.6L128.08438 71.6L132.36563 65.19375L128.20938 58.9125L130.725 58.9125L133.49063 63.553123ZM146.50626 71.83437Q143.92813 71.83437 142.30313 70.14687Q140.69376 68.44375 140.69376 65.61562L140.69376 65.20937Q140.69376 63.31875 141.4125 61.85Q142.13126 60.365623 143.42813 59.521873Q144.725 58.678123 146.24063 58.678123Q148.70938 58.678123 150.06876 60.31875Q151.44376 61.94375 151.44376 64.975L151.44376 65.88125L142.86563 65.88125Q142.9125 67.75625 143.95938 68.9125Q145.00626 70.06875 146.61563 70.06875Q147.77188 70.06875 148.56876 69.6Q149.36563 69.13125 149.95938 68.35L151.2875 69.38125Q149.69376 71.83437 146.50626 71.83437ZM146.24063 60.459373Q144.92813 60.459373 144.0375 61.428123Q143.14688 62.38125 142.92813 64.1L149.2875 64.1L149.2875 63.928123Q149.19376 62.2875 148.39688 61.38125Q147.6 60.459373 146.24063 60.459373ZM153.70938 65.14687Q153.70938 62.240623 155.08438 60.459373Q156.475 58.678123 158.725 58.678123Q160.94376 58.678123 162.24063 60.209373L162.24063 53.6L164.4125 53.6L164.4125 71.6L162.42813 71.6L162.31876 70.24062Q161.02188 71.83437 158.69376 71.83437Q156.49063 71.83437 155.1 70.0375Q153.70938 68.225 153.70938 65.31875L153.70938 65.14687ZM155.88126 65.39687Q155.88126 67.55312 156.77188 68.77187Q157.6625 69.99062 159.24063 69.99062Q161.30313 69.99062 162.24063 68.14687L162.24063 62.31875Q161.27188 60.521873 159.25626 60.521873Q157.6625 60.521873 156.77188 61.75625Q155.88126 62.990623 155.88126 65.39687ZM186.36563 56.38125L180.88126 56.38125L180.88126 71.6L178.64688 71.6L178.64688 56.38125L173.17813 56.38125L173.17813 54.5375L186.36563 54.5375L186.36563 56.38125ZM190.4125 60.459373Q191.85 58.678123 194.1625 58.678123Q198.17813 58.678123 198.20938 63.225L198.20938 71.6L196.05313 71.6L196.05313 63.209373Q196.0375 61.834373 195.4125 61.178123Q194.80313 60.521873 193.50626 60.521873Q192.44376 60.521873 191.64688 61.084373Q190.85 61.646873 190.4125 62.56875L190.4125 71.6L188.24063 71.6L188.24063 53.6L190.4125 53.6L190.4125 60.459373ZM207.36563 60.865623Q206.88126 60.7875 206.30313 60.7875Q204.17813 60.7875 203.4125 62.6L203.4125 71.6L201.24063 71.6L201.24063 58.9125L203.35 58.9125L203.38126 60.38125Q204.45938 58.678123 206.4125 58.678123Q207.0375 58.678123 207.36563 58.85L207.36563 60.865623ZM208.6625 65.14687Q208.6625 63.271873 209.39688 61.7875Q210.13126 60.303123 211.42813 59.490623Q212.74063 58.678123 214.42813 58.678123Q217.00626 58.678123 218.6 60.475Q220.20938 62.271873 220.20938 65.24062L220.20938 65.39687Q220.20938 67.25625 219.49063 68.725Q218.7875 70.19375 217.475 71.02187Q216.1625 71.83437 214.44376 71.83437Q211.86563 71.83437 210.25626 70.0375Q208.6625 68.24062 208.6625 65.2875L208.6625 65.14687ZM210.85 65.39687Q210.85 67.50625 211.81876 68.7875Q212.80313 70.06875 214.44376 70.06875Q216.1 70.06875 217.06876 68.77187Q218.0375 67.475 218.0375 65.14687Q218.0375 63.053123 217.05313 61.75625Q216.06876 60.459373 214.42813 60.459373Q212.81876 60.459373 211.83438 61.740623Q210.85 63.021873 210.85 65.39687ZM231.06876 70.35Q229.80313 71.83437 227.35 71.83437Q225.33438 71.83437 224.27188 70.6625Q223.20938 69.475 223.19376 67.1625L223.19376 58.9125L225.36563 58.9125L225.36563 67.11562Q225.36563 69.99062 227.70938 69.99062Q230.19376 69.99062 231.00626 68.14687L231.00626 58.9125L233.17813 58.9125L233.17813 71.6L231.11563 71.6L231.06876 70.35ZM235.725 65.14687Q235.725 62.19375 237.1 60.44375Q238.475 58.678123 240.725 58.678123Q243.05313 58.678123 244.35 60.31875L244.45938 58.9125L246.44376 58.9125L246.44376 71.2875Q246.44376 73.75625 244.975 75.17812Q243.52188 76.6 241.05313 76.6Q239.69376 76.6 238.38126 76.00625Q237.06876 75.42812 236.36563 74.39687L237.49063 73.1Q238.89688 74.81875 240.9125 74.81875Q242.49063 74.81875 243.36563 73.92812Q244.25626 73.0375 244.25626 71.42812L244.25626 70.33437Q242.95938 71.83437 240.70938 71.83437Q238.475 71.83437 237.1 70.0375Q235.725 68.24062 235.725 65.14687ZM237.9125 65.39687Q237.9125 67.5375 238.7875 68.77187Q239.6625 69.99062 241.24063 69.99062Q243.30313 69.99062 244.25626 68.13125L244.25626 62.334373Q243.25626 60.521873 241.27188 60.521873Q239.69376 60.521873 238.80313 61.75625Q237.9125 62.990623 237.9125 65.39687ZM251.4125 60.459373Q252.85 58.678123 255.1625 58.678123Q259.17813 58.678123 259.20938 63.225L259.20938 71.6L257.05313 71.6L257.05313 63.209373Q257.0375 61.834373 256.4125 61.178123Q255.80313 60.521873 254.50626 60.521873Q253.44376 60.521873 252.64688 61.084373Q251.85 61.646873 251.4125 62.56875L251.4125 71.6L249.24063 71.6L249.24063 53.6L251.4125 53.6L251.4125 60.459373ZM272.95938 65.39687Q272.95938 68.2875 271.63126 70.06875Q270.30313 71.83437 268.0375 71.83437Q265.74063 71.83437 264.4125 70.36562L264.4125 76.475L262.24063 76.475L262.24063 58.9125L264.225 58.9125L264.33438 60.31875Q265.64688 58.678123 268.00626 58.678123Q270.2875 58.678123 271.61563 60.4125Q272.95938 62.13125 272.95938 65.19375L272.95938 65.39687ZM270.7875 65.14687Q270.7875 63.00625 269.86563 61.771873Q268.95938 60.521873 267.36563 60.521873Q265.39688 60.521873 264.4125 62.271873L264.4125 68.33437Q265.38126 70.06875 267.38126 70.06875Q268.94376 70.06875 269.86563 68.83437Q270.7875 67.58437 270.7875 65.14687ZM283.06876 70.35Q281.80313 71.83437 279.35 71.83437Q277.33438 71.83437 276.27188 70.6625Q275.20938 69.475 275.19376 67.1625L275.19376 58.9125L277.36563 58.9125L277.36563 67.11562Q277.36563 69.99062 279.70938 69.99062Q282.19376 69.99062 283.00626 68.14687L283.00626 58.9125L285.17813 58.9125L285.17813 71.6L283.11563 71.6L283.06876 70.35ZM291.17813 55.85L291.17813 58.9125L293.55313 58.9125L293.55313 60.6L291.17813 60.6L291.17813 68.45937Q291.17813 69.225 291.49063 69.6Q291.81876 69.975 292.58438 69.975Q292.95938 69.975 293.61563 69.83437L293.61563 71.6Q292.75626 71.83437 291.94376 71.83437Q290.49063 71.83437 289.75626 70.95937Q289.02188 70.06875 289.02188 68.45937L289.02188 60.6L286.70938 60.6L286.70938 58.9125L289.02188 58.9125L289.02188 55.85L291.17813 55.85Z" fill-rule="nonzero"/></svg>